<ttFont>
    <TTGlyph name=".notdef" xMin="7" yMin="0" xMax="507" yMax="700">
      <contour>
        <pt x="7" y="0" on="1"/>
        <pt x="7" y="700" on="1"/>
        <pt x="507" y="700" on="1"/>
        <pt x="507" y="0" on="1"/>
      </contour>
      <contour>
        <pt x="257" y="395" on="1"/>
        <pt x="426" y="650" on="1"/>
        <pt x="86" y="650" on="1"/>
      </contour>
      <contour>
        <pt x="56" y="95" on="1"/>
        <pt x="227" y="350" on="1"/>
        <pt x="56" y="605" on="1"/>
      </contour>
      <contour>
        <pt x="456" y="95" on="1"/>
        <pt x="456" y="605" on="1"/>
        <pt x="287" y="350" on="1"/>
      </contour>
      <contour>
        <pt x="87" y="50" on="1"/>
        <pt x="427" y="50" on="1"/>
        <pt x="256" y="305" on="1"/>
      </contour>
    </TTGlyph>
    <TTGlyph name="A" xMin="2" yMin="-2" xMax="503" yMax="702">
      <contour>
        <pt x="2" y="-2" on="0"/>
        <pt x="2" y="20" on="1"/>
        <pt x="2" y="28" on="0"/>
        <pt x="5" y="38" on="1"/>
        <pt x="159" y="674" on="1"/>
        <pt x="166" y="702" on="0"/>
        <pt x="220" y="702" on="1"/>
        <pt x="285" y="702" on="1"/>
        <pt x="340" y="702" on="0"/>
        <pt x="347" y="674" on="1"/>
        <pt x="501" y="38" on="1"/>
        <pt x="503" y="24" on="0"/>
        <pt x="503" y="20" on="1"/>
        <pt x="503" y="-2" on="0"/>
        <pt x="460" y="-2" on="1"/>
        <pt x="407" y="-2" on="1"/>
        <pt x="359" y="-2" on="0"/>
        <pt x="354" y="19" on="1"/>
        <pt x="328" y="141" on="1"/>
        <pt x="176" y="141" on="1"/>
        <pt x="149" y="19" on="1"/>
        <pt x="145" y="-2" on="0"/>
        <pt x="102" y="-2" on="1"/>
        <pt x="50" y="-2" on="1"/>
      </contour>
      <contour>
        <pt x="311" y="263" on="1"/>
        <pt x="266" y="475" on="1"/>
        <pt x="259" y="511" on="0"/>
        <pt x="254" y="551" on="1"/>
        <pt x="249" y="551" on="1"/>
        <pt x="244" y="511" on="0"/>
        <pt x="237" y="475" on="1"/>
        <pt x="193" y="263" on="1"/>
      </contour>
    </TTGlyph>
    <TTGlyph name="AE" xMin="3" yMin="-2" xMax="709" yMax="700">
      <contour>
        <pt x="3" y="-2" on="0"/>
        <pt x="3" y="20" on="1"/>
        <pt x="3" y="29" on="0"/>
        <pt x="6" y="38" on="1"/>
        <pt x="252" y="673" on="1"/>
        <pt x="262" y="700" on="0"/>
        <pt x="287" y="700" on="1"/>
        <pt x="679" y="700" on="1"/>
        <pt x="694" y="700" on="0"/>
        <pt x="708" y="676" on="0"/>
        <pt x="708" y="650" on="1"/>
        <pt x="708" y="619" on="1"/>
        <pt x="708" y="593" on="0"/>
        <pt x="694" y="569" on="0"/>
        <pt x="679" y="569" on="1"/>
        <pt x="451" y="569" on="1"/>
        <pt x="466" y="424" on="1"/>
        <pt x="659" y="424" on="1"/>
        <pt x="674" y="424" on="0"/>
        <pt x="688" y="400" on="0"/>
        <pt x="688" y="374" on="1"/>
        <pt x="688" y="343" on="1"/>
        <pt x="688" y="317" on="0"/>
        <pt x="674" y="293" on="0"/>
        <pt x="659" y="293" on="1"/>
        <pt x="483" y="293" on="1"/>
        <pt x="500" y="131" on="1"/>
        <pt x="680" y="131" on="1"/>
        <pt x="695" y="131" on="0"/>
        <pt x="709" y="107" on="0"/>
        <pt x="709" y="81" on="1"/>
        <pt x="709" y="50" on="1"/>
        <pt x="709" y="24" on="0"/>
        <pt x="695" y="0" on="0"/>
        <pt x="680" y="0" on="1"/>
        <pt x="393" y="0" on="1"/>
        <pt x="380" y="0" on="0"/>
        <pt x="368" y="14" on="0"/>
        <pt x="366" y="30" on="1"/>
        <pt x="354" y="141" on="1"/>
        <pt x="194" y="141" on="1"/>
        <pt x="147" y="19" on="1"/>
        <pt x="140" y="-2" on="0"/>
        <pt x="108" y="-2" on="1"/>
        <pt x="62" y="-2" on="1"/>
      </contour>
      <contour>
        <pt x="235" y="273" on="1"/>
        <pt x="342" y="273" on="1"/>
        <pt x="326" y="454" on="1"/>
        <pt x="326" y="526" on="1"/>
        <pt x="322" y="526" on="1"/>
        <pt x="299" y="455" on="1"/>
      </contour>
    </TTGlyph>
    <TTGlyph name="AEacute" xMin="3" yMin="-2" xMax="709" yMax="911">
      <component glyphName="AE" x="0" y="0" flags="0x0"/>
      <component glyphName="acutecomb" x="398" y="177" flags="0x4"/>
    </TTGlyph>
    <TTGlyph name="Aacute" xMin="2" yMin="-2" xMax="503" yMax="911">
      <component glyphName="A" x="0" y="0" flags="0x0"/>
      <component glyphName="acutecomb" x="253" y="177" flags="0x4"/>
    </TTGlyph>
    <TTGlyph name="Abreve" xMin="2" yMin="-2" xMax="503" yMax="892">
      <component glyphName="A" x="0" y="0" flags="0x0"/>
      <component glyphName="uni0306" x="253" y="177" flags="0x4"/>
    </TTGlyph>
    <TTGlyph name="Acircumflex" xMin="2" yMin="-2" xMax="503" yMax="895">
      <component glyphName="A" x="0" y="0" flags="0x0"/>
      <component glyphName="uni0302" x="250" y="177" flags="0x4"/>
    </TTGlyph>
    <TTGlyph name="Adieresis" xMin="2" yMin="-2" xMax="503" yMax="879">
      <component glyphName="A" x="0" y="0" flags="0x0"/>
      <component glyphName="uni0308" x="254" y="177" flags="0x4"/>
    </TTGlyph>
    <TTGlyph name="Agrave" xMin="2" yMin="-2" xMax="503" yMax="911">
      <component glyphName="A" x="0" y="0" flags="0x0"/>
      <component glyphName="gravecomb" x="251" y="177" flags="0x4"/>
    </TTGlyph>
    <TTGlyph name="Amacron" xMin="2" yMin="-2" xMax="503" yMax="869">
      <component glyphName="A" x="0" y="0" flags="0x0"/>
      <component glyphName="uni0304" x="251" y="177" flags="0x4"/>
    </TTGlyph>
    <TTGlyph name="Aogonek" xMin="2" yMin="-168" xMax="503" yMax="702">
      <contour>
        <pt x="485" y="-95" on="0"/>
        <pt x="499" y="-108" on="0"/>
        <pt x="499" y="-125" on="1"/>
        <pt x="499" y="-146" on="0"/>
        <pt x="482" y="-156" on="1"/>
        <pt x="457" y="-168" on="0"/>
        <pt x="426" y="-168" on="1"/>
        <pt x="369" y="-168" on="0"/>
        <pt x="329" y="-108" on="0"/>
        <pt x="329" y="-74" on="1"/>
        <pt x="329" y="-26" on="0"/>
        <pt x="354" y="20" on="1"/>
        <pt x="328" y="141" on="1"/>
        <pt x="176" y="141" on="1"/>
        <pt x="149" y="19" on="1"/>
        <pt x="145" y="-2" on="0"/>
        <pt x="102" y="-2" on="1"/>
        <pt x="50" y="-2" on="1"/>
        <pt x="2" y="-2" on="0"/>
        <pt x="2" y="20" on="1"/>
        <pt x="2" y="28" on="0"/>
        <pt x="5" y="38" on="1"/>
        <pt x="159" y="674" on="1"/>
        <pt x="166" y="702" on="0"/>
        <pt x="220" y="702" on="1"/>
        <pt x="285" y="702" on="1"/>
        <pt x="340" y="702" on="0"/>
        <pt x="347" y="674" on="1"/>
        <pt x="501" y="38" on="1"/>
        <pt x="503" y="24" on="0"/>
        <pt x="503" y="20" on="1"/>
        <pt x="503" y="-2" on="0"/>
        <pt x="460" y="-2" on="1"/>
        <pt x="407" y="-2" on="1"/>
        <pt x="405" y="-2" on="1"/>
        <pt x="396" y="-31" on="0"/>
        <pt x="396" y="-55" on="1"/>
        <pt x="396" y="-99" on="0"/>
        <pt x="445" y="-99" on="1"/>
        <pt x="453" y="-99" on="0"/>
        <pt x="465" y="-95" on="0"/>
        <pt x="469" y="-95" on="1"/>
      </contour>
      <contour>
        <pt x="311" y="263" on="1"/>
        <pt x="266" y="475" on="1"/>
        <pt x="259" y="511" on="0"/>
        <pt x="254" y="551" on="1"/>
        <pt x="249" y="551" on="1"/>
        <pt x="244" y="511" on="0"/>
        <pt x="237" y="475" on="1"/>
        <pt x="193" y="263" on="1"/>
      </contour>
    </TTGlyph>
    <TTGlyph name="Aring" xMin="2" yMin="-2" xMax="503" yMax="926">
      <component glyphName="A" x="0" y="0" flags="0x0"/>
      <component glyphName="uni030A" x="252" y="177" flags="0x4"/>
    </TTGlyph>
    <TTGlyph name="Aringacute" xMin="2" yMin="-2" xMax="503" yMax="1011">
      <contour>
        <pt x="221" y="872" on="0"/>
        <pt x="212" y="879" on="0"/>
        <pt x="212" y="887" on="1"/>
        <pt x="212" y="894" on="0"/>
        <pt x="226" y="929" on="1"/>
        <pt x="247" y="984" on="1"/>
        <pt x="261" y="1011" on="0"/>
        <pt x="322" y="1011" on="1"/>
        <pt x="343" y="1011" on="0"/>
        <pt x="362" y="1001" on="0"/>
        <pt x="362" y="987" on="1"/>
        <pt x="362" y="980" on="0"/>
        <pt x="337" y="946" on="0"/>
        <pt x="288" y="887" on="1"/>
        <pt x="281" y="880" on="0"/>
        <pt x="257" y="872" on="0"/>
        <pt x="233" y="872" on="1"/>
      </contour>
      <contour>
        <pt x="503" y="24" on="0"/>
        <pt x="503" y="20" on="1"/>
        <pt x="503" y="-2" on="0"/>
        <pt x="460" y="-2" on="1"/>
        <pt x="407" y="-2" on="1"/>
        <pt x="359" y="-2" on="0"/>
        <pt x="354" y="19" on="1"/>
        <pt x="328" y="141" on="1"/>
        <pt x="176" y="141" on="1"/>
        <pt x="149" y="19" on="1"/>
        <pt x="145" y="-2" on="0"/>
        <pt x="102" y="-2" on="1"/>
        <pt x="50" y="-2" on="1"/>
        <pt x="2" y="-2" on="0"/>
        <pt x="2" y="20" on="1"/>
        <pt x="2" y="28" on="0"/>
        <pt x="5" y="38" on="1"/>
        <pt x="159" y="674" on="1"/>
        <pt x="162" y="686" on="0"/>
        <pt x="173" y="692" on="1"/>
        <pt x="153" y="718" on="0"/>
        <pt x="153" y="756" on="1"/>
        <pt x="153" y="800" on="0"/>
        <pt x="205" y="856" on="0"/>
        <pt x="251" y="856" on="1"/>
        <pt x="297" y="856" on="0"/>
        <pt x="350" y="801" on="0"/>
        <pt x="350" y="756" on="1"/>
        <pt x="350" y="717" on="0"/>
        <pt x="331" y="694" on="1"/>
        <pt x="344" y="687" on="0"/>
        <pt x="347" y="674" on="1"/>
        <pt x="501" y="38" on="1"/>
      </contour>
      <contour>
        <pt x="234" y="792" on="0"/>
        <pt x="215" y="772" on="0"/>
        <pt x="215" y="755" on="1"/>
        <pt x="215" y="738" on="0"/>
        <pt x="234" y="719" on="0"/>
        <pt x="252" y="719" on="1"/>
        <pt x="269" y="719" on="0"/>
        <pt x="289" y="738" on="0"/>
        <pt x="289" y="755" on="1"/>
        <pt x="289" y="772" on="0"/>
        <pt x="269" y="792" on="0"/>
        <pt x="252" y="792" on="1"/>
      </contour>
      <contour>
        <pt x="311" y="263" on="1"/>
        <pt x="266" y="475" on="1"/>
        <pt x="259" y="511" on="0"/>
        <pt x="254" y="551" on="1"/>
        <pt x="249" y="551" on="1"/>
        <pt x="244" y="511" on="0"/>
        <pt x="237" y="475" on="1"/>
        <pt x="193" y="263" on="1"/>
      </contour>
    </TTGlyph>
    <TTGlyph name="Atilde" xMin="2" yMin="-2" xMax="503" yMax="875">
      <component glyphName="A" x="0" y="0" flags="0x0"/>
      <component glyphName="tildecomb" x="260" y="177" flags="0x4"/>
    </TTGlyph>
    <TTGlyph name="B" xMin="57" yMin="0" xMax="503" yMax="700">
      <contour>
        <pt x="75" y="0" on="0"/>
        <pt x="57" y="19" on="0"/>
        <pt x="57" y="40" on="1"/>
        <pt x="57" y="661" on="1"/>
        <pt x="57" y="681" on="0"/>
        <pt x="75" y="700" on="0"/>
        <pt x="94" y="700" on="1"/>
        <pt x="273" y="700" on="1"/>
        <pt x="483" y="700" on="0"/>
        <pt x="483" y="531" on="1"/>
        <pt x="483" y="419" on="0"/>
        <pt x="393" y="366" on="1"/>
        <pt x="394" y="362" on="1"/>
        <pt x="445" y="347" on="0"/>
        <pt x="503" y="261" on="0"/>
        <pt x="503" y="197" on="1"/>
        <pt x="503" y="108" on="0"/>
        <pt x="388" y="0" on="0"/>
        <pt x="276" y="0" on="1"/>
        <pt x="94" y="0" on="1"/>
      </contour>
      <contour>
        <pt x="274" y="415" on="1"/>
        <pt x="306" y="415" on="0"/>
        <pt x="337" y="456" on="0"/>
        <pt x="337" y="500" on="1"/>
        <pt x="337" y="543" on="0"/>
        <pt x="308" y="580" on="0"/>
        <pt x="276" y="580" on="1"/>
        <pt x="205" y="580" on="1"/>
        <pt x="205" y="415" on="1"/>
      </contour>
      <contour>
        <pt x="281" y="121" on="1"/>
        <pt x="318" y="121" on="0"/>
        <pt x="353" y="163" on="0"/>
        <pt x="353" y="211" on="1"/>
        <pt x="353" y="257" on="0"/>
        <pt x="319" y="296" on="0"/>
        <pt x="281" y="296" on="1"/>
        <pt x="205" y="296" on="1"/>
        <pt x="205" y="121" on="1"/>
      </contour>
    </TTGlyph>
    <TTGlyph name="C" xMin="37" yMin="-8" xMax="436" yMax="708">
      <contour>
        <pt x="164" y="-8" on="0"/>
        <pt x="37" y="165" on="0"/>
        <pt x="37" y="352" on="1"/>
        <pt x="37" y="532" on="0"/>
        <pt x="170" y="708" on="0"/>
        <pt x="309" y="708" on="1"/>
        <pt x="356" y="708" on="0"/>
        <pt x="396" y="697" on="1"/>
        <pt x="427" y="688" on="0"/>
        <pt x="427" y="654" on="1"/>
        <pt x="427" y="616" on="0"/>
        <pt x="400" y="556" on="0"/>
        <pt x="380" y="563" on="1"/>
        <pt x="348" y="573" on="0"/>
        <pt x="316" y="573" on="1"/>
        <pt x="256" y="573" on="0"/>
        <pt x="197" y="463" on="0"/>
        <pt x="197" y="351" on="1"/>
        <pt x="197" y="239" on="0"/>
        <pt x="256" y="128" on="0"/>
        <pt x="321" y="128" on="1"/>
        <pt x="340" y="128" on="0"/>
        <pt x="366" y="133" on="0"/>
        <pt x="387" y="139" on="1"/>
        <pt x="390" y="140" on="0"/>
        <pt x="396" y="140" on="1"/>
        <pt x="416" y="140" on="0"/>
        <pt x="436" y="90" on="0"/>
        <pt x="436" y="49" on="1"/>
        <pt x="436" y="34" on="0"/>
        <pt x="424" y="13" on="0"/>
        <pt x="407" y="7" on="1"/>
        <pt x="390" y="1" on="0"/>
        <pt x="334" y="-8" on="0"/>
        <pt x="304" y="-8" on="1"/>
      </contour>
    </TTGlyph>
    <TTGlyph name="Cacute" xMin="37" yMin="-8" xMax="436" yMax="911">
      <component glyphName="C" x="0" y="0" flags="0x0"/>
      <component glyphName="acutecomb" x="297" y="177" flags="0x4"/>
    </TTGlyph>
    <TTGlyph name="Cacute.loclPLK" xMin="37" yMin="-8" xMax="436" yMax="911">
      <component glyphName="C" x="0" y="0" flags="0x0"/>
      <component glyphName="acute.loclPLK" x="211" y="177" flags="0x4"/>
    </TTGlyph>
    <TTGlyph name="Ccaron" xMin="37" yMin="-8" xMax="436" yMax="895">
      <component glyphName="C" x="0" y="0" flags="0x0"/>
      <component glyphName="uni030C" x="288" y="177" flags="0x4"/>
    </TTGlyph>
    <TTGlyph name="Ccedilla" xMin="37" yMin="-212" xMax="436" yMax="708">
      <contour>
        <pt x="390" y="140" on="0"/>
        <pt x="396" y="140" on="1"/>
        <pt x="416" y="140" on="0"/>
        <pt x="436" y="90" on="0"/>
        <pt x="436" y="49" on="1"/>
        <pt x="436" y="34" on="0"/>
        <pt x="424" y="13" on="0"/>
        <pt x="407" y="7" on="1"/>
        <pt x="377" y="-3" on="0"/>
        <pt x="336" y="-7" on="1"/>
        <pt x="324" y="-48" on="1"/>
        <pt x="353" y="-53" on="0"/>
        <pt x="388" y="-90" on="0"/>
        <pt x="388" y="-122" on="1"/>
        <pt x="388" y="-166" on="0"/>
        <pt x="332" y="-212" on="0"/>
        <pt x="284" y="-212" on="1"/>
        <pt x="241" y="-212" on="0"/>
        <pt x="178" y="-181" on="0"/>
        <pt x="178" y="-160" on="1"/>
        <pt x="178" y="-142" on="0"/>
        <pt x="201" y="-118" on="0"/>
        <pt x="210" y="-118" on="1"/>
        <pt x="219" y="-118" on="0"/>
        <pt x="235" y="-127" on="1"/>
        <pt x="237" y="-128" on="0"/>
        <pt x="261" y="-139" on="0"/>
        <pt x="275" y="-139" on="1"/>
        <pt x="295" y="-139" on="0"/>
        <pt x="295" y="-123" on="1"/>
        <pt x="295" y="-115" on="0"/>
        <pt x="284" y="-106" on="0"/>
        <pt x="272" y="-101" on="1"/>
        <pt x="260" y="-96" on="0"/>
        <pt x="248" y="-87" on="0"/>
        <pt x="248" y="-79" on="1"/>
        <pt x="248" y="-69" on="0"/>
        <pt x="271" y="-7" on="1"/>
        <pt x="149" y="3" on="0"/>
        <pt x="37" y="177" on="0"/>
        <pt x="37" y="352" on="1"/>
        <pt x="37" y="532" on="0"/>
        <pt x="170" y="708" on="0"/>
        <pt x="309" y="708" on="1"/>
        <pt x="356" y="708" on="0"/>
        <pt x="396" y="697" on="1"/>
        <pt x="427" y="688" on="0"/>
        <pt x="427" y="654" on="1"/>
        <pt x="427" y="616" on="0"/>
        <pt x="400" y="556" on="0"/>
        <pt x="380" y="563" on="1"/>
        <pt x="348" y="573" on="0"/>
        <pt x="316" y="573" on="1"/>
        <pt x="256" y="573" on="0"/>
        <pt x="197" y="463" on="0"/>
        <pt x="197" y="351" on="1"/>
        <pt x="197" y="239" on="0"/>
        <pt x="256" y="128" on="0"/>
        <pt x="321" y="128" on="1"/>
        <pt x="340" y="128" on="0"/>
        <pt x="366" y="133" on="0"/>
        <pt x="387" y="139" on="1"/>
      </contour>
    </TTGlyph>
    <TTGlyph name="Ccircumflex" xMin="37" yMin="-8" xMax="436" yMax="895">
      <component glyphName="C" x="0" y="0" flags="0x0"/>
      <component glyphName="uni0302" x="294" y="177" flags="0x4"/>
    </TTGlyph>
    <TTGlyph name="Cdotaccent" xMin="37" yMin="-8" xMax="436" yMax="879">
      <component glyphName="C" x="0" y="0" flags="0x0"/>
      <component glyphName="uni0307" x="296" y="177" flags="0x4"/>
    </TTGlyph>
    <TTGlyph name="D" xMin="57" yMin="0" xMax="537" yMax="700">
      <contour>
        <pt x="75" y="0" on="0"/>
        <pt x="57" y="19" on="0"/>
        <pt x="57" y="40" on="1"/>
        <pt x="57" y="660" on="1"/>
        <pt x="57" y="681" on="0"/>
        <pt x="75" y="700" on="0"/>
        <pt x="94" y="700" on="1"/>
        <pt x="284" y="700" on="1"/>
        <pt x="414" y="700" on="0"/>
        <pt x="537" y="526" on="0"/>
        <pt x="537" y="350" on="1"/>
        <pt x="537" y="174" on="0"/>
        <pt x="414" y="0" on="0"/>
        <pt x="284" y="0" on="1"/>
        <pt x="94" y="0" on="1"/>
      </contour>
      <contour>
        <pt x="279" y="131" on="1"/>
        <pt x="332" y="131" on="0"/>
        <pt x="378" y="230" on="0"/>
        <pt x="378" y="350" on="1"/>
        <pt x="378" y="470" on="0"/>
        <pt x="332" y="569" on="0"/>
        <pt x="279" y="569" on="1"/>
        <pt x="215" y="569" on="1"/>
        <pt x="215" y="131" on="1"/>
      </contour>
    </TTGlyph>
    <TTGlyph name="Dcaron" xMin="57" yMin="0" xMax="537" yMax="895">
      <component glyphName="D" x="0" y="0" flags="0x0"/>
      <component glyphName="uni030C" x="273" y="177" flags="0x4"/>
    </TTGlyph>
    <TTGlyph name="Dcroat" xMin="7" yMin="0" xMax="537" yMax="700">
      <component glyphName="Eth" x="0" y="0" flags="0x0"/>
    </TTGlyph>
    <TTGlyph name="E" xMin="57" yMin="0" xMax="418" yMax="700">
      <contour>
        <pt x="75" y="0" on="0"/>
        <pt x="57" y="19" on="0"/>
        <pt x="57" y="40" on="1"/>
        <pt x="57" y="660" on="1"/>
        <pt x="57" y="681" on="0"/>
        <pt x="75" y="700" on="0"/>
        <pt x="94" y="700" on="1"/>
        <pt x="389" y="700" on="1"/>
        <pt x="404" y="700" on="0"/>
        <pt x="418" y="676" on="0"/>
        <pt x="418" y="650" on="1"/>
        <pt x="418" y="619" on="1"/>
        <pt x="418" y="593" on="0"/>
        <pt x="404" y="569" on="0"/>
        <pt x="389" y="569" on="1"/>
        <pt x="213" y="569" on="1"/>
        <pt x="213" y="424" on="1"/>
        <pt x="369" y="424" on="1"/>
        <pt x="384" y="424" on="0"/>
        <pt x="398" y="400" on="0"/>
        <pt x="398" y="374" on="1"/>
        <pt x="398" y="343" on="1"/>
        <pt x="398" y="317" on="0"/>
        <pt x="384" y="293" on="0"/>
        <pt x="369" y="293" on="1"/>
        <pt x="213" y="293" on="1"/>
        <pt x="213" y="131" on="1"/>
        <pt x="390" y="131" on="1"/>
        <pt x="405" y="131" on="0"/>
        <pt x="418" y="107" on="0"/>
        <pt x="418" y="81" on="1"/>
        <pt x="418" y="50" on="1"/>
        <pt x="418" y="24" on="0"/>
        <pt x="405" y="0" on="0"/>
        <pt x="390" y="0" on="1"/>
        <pt x="94" y="0" on="1"/>
      </contour>
    </TTGlyph>
    <TTGlyph name="Eacute" xMin="57" yMin="0" xMax="418" yMax="911">
      <component glyphName="E" x="0" y="0" flags="0x0"/>
      <component glyphName="acutecomb" x="248" y="177" flags="0x4"/>
    </TTGlyph>
    <TTGlyph name="Ebreve" xMin="57" yMin="0" xMax="418" yMax="892">
      <component glyphName="E" x="0" y="0" flags="0x0"/>
      <component glyphName="uni0306" x="248" y="177" flags="0x4"/>
    </TTGlyph>
    <TTGlyph name="Ecaron" xMin="57" yMin="0" xMax="418" yMax="895">
      <component glyphName="E" x="0" y="0" flags="0x0"/>
      <component glyphName="uni030C" x="239" y="177" flags="0x4"/>
    </TTGlyph>
    <TTGlyph name="Ecircumflex" xMin="57" yMin="0" xMax="418" yMax="895">
      <component glyphName="E" x="0" y="0" flags="0x0"/>
      <component glyphName="uni0302" x="245" y="177" flags="0x4"/>
    </TTGlyph>
    <TTGlyph name="Edieresis" xMin="57" yMin="0" xMax="418" yMax="879">
      <component glyphName="E" x="0" y="0" flags="0x0"/>
      <component glyphName="uni0308" x="249" y="177" flags="0x4"/>
    </TTGlyph>
    <TTGlyph name="Edotaccent" xMin="57" yMin="0" xMax="418" yMax="879">
      <component glyphName="E" x="0" y="0" flags="0x0"/>
      <component glyphName="uni0307" x="247" y="177" flags="0x4"/>
    </TTGlyph>
    <TTGlyph name="Egrave" xMin="57" yMin="0" xMax="418" yMax="911">
      <component glyphName="E" x="0" y="0" flags="0x0"/>
      <component glyphName="gravecomb" x="246" y="177" flags="0x4"/>
    </TTGlyph>
    <TTGlyph name="Emacron" xMin="57" yMin="0" xMax="418" yMax="869">
      <component glyphName="E" x="0" y="0" flags="0x0"/>
      <component glyphName="uni0304" x="246" y="177" flags="0x4"/>
    </TTGlyph>
    <TTGlyph name="Eng" xMin="52" yMin="-212" xMax="538" yMax="702">
      <contour>
        <pt x="538" y="702" on="0"/>
        <pt x="538" y="670" on="1"/>
        <pt x="538" y="-50" on="1"/>
        <pt x="538" y="-129" on="0"/>
        <pt x="464" y="-212" on="0"/>
        <pt x="404" y="-212" on="1"/>
        <pt x="354" y="-212" on="0"/>
        <pt x="305" y="-189" on="0"/>
        <pt x="305" y="-161" on="1"/>
        <pt x="305" y="-139" on="0"/>
        <pt x="322" y="-91" on="0"/>
        <pt x="336" y="-91" on="1"/>
        <pt x="341" y="-91" on="0"/>
        <pt x="360" y="-95" on="0"/>
        <pt x="366" y="-95" on="1"/>
        <pt x="384" y="-95" on="0"/>
        <pt x="398" y="-75" on="0"/>
        <pt x="398" y="-52" on="1"/>
        <pt x="398" y="42" on="1"/>
        <pt x="216" y="366" on="1"/>
        <pt x="207" y="381" on="0"/>
        <pt x="189" y="430" on="1"/>
        <pt x="184" y="427" on="1"/>
        <pt x="192" y="381" on="0"/>
        <pt x="192" y="359" on="1"/>
        <pt x="192" y="30" on="1"/>
        <pt x="192" y="-2" on="0"/>
        <pt x="134" y="-2" on="1"/>
        <pt x="110" y="-2" on="1"/>
        <pt x="52" y="-2" on="0"/>
        <pt x="52" y="30" on="1"/>
        <pt x="52" y="670" on="1"/>
        <pt x="52" y="702" on="0"/>
        <pt x="110" y="702" on="1"/>
        <pt x="136" y="702" on="1"/>
        <pt x="156" y="702" on="0"/>
        <pt x="180" y="691" on="0"/>
        <pt x="188" y="674" on="1"/>
        <pt x="368" y="348" on="1"/>
        <pt x="382" y="322" on="0"/>
        <pt x="402" y="270" on="1"/>
        <pt x="406" y="272" on="1"/>
        <pt x="398" y="324" on="0"/>
        <pt x="398" y="351" on="1"/>
        <pt x="398" y="670" on="1"/>
        <pt x="398" y="702" on="0"/>
        <pt x="456" y="702" on="1"/>
        <pt x="480" y="702" on="1"/>
      </contour>
    </TTGlyph>
    <TTGlyph name="Eogonek" xMin="57" yMin="-177" xMax="496" yMax="700">
      <contour>
        <pt x="482" y="-104" on="0"/>
        <pt x="496" y="-117" on="0"/>
        <pt x="496" y="-134" on="1"/>
        <pt x="496" y="-155" on="0"/>
        <pt x="479" y="-165" on="1"/>
        <pt x="453" y="-177" on="0"/>
        <pt x="423" y="-177" on="1"/>
        <pt x="366" y="-177" on="0"/>
        <pt x="326" y="-117" on="0"/>
        <pt x="326" y="-83" on="1"/>
        <pt x="326" y="-41" on="0"/>
        <pt x="346" y="0" on="1"/>
        <pt x="94" y="0" on="1"/>
        <pt x="75" y="0" on="0"/>
        <pt x="57" y="19" on="0"/>
        <pt x="57" y="40" on="1"/>
        <pt x="57" y="660" on="1"/>
        <pt x="57" y="681" on="0"/>
        <pt x="75" y="700" on="0"/>
        <pt x="94" y="700" on="1"/>
        <pt x="389" y="700" on="1"/>
        <pt x="404" y="700" on="0"/>
        <pt x="418" y="676" on="0"/>
        <pt x="418" y="650" on="1"/>
        <pt x="418" y="619" on="1"/>
        <pt x="418" y="593" on="0"/>
        <pt x="404" y="569" on="0"/>
        <pt x="389" y="569" on="1"/>
        <pt x="213" y="569" on="1"/>
        <pt x="213" y="424" on="1"/>
        <pt x="369" y="424" on="1"/>
        <pt x="384" y="424" on="0"/>
        <pt x="398" y="400" on="0"/>
        <pt x="398" y="374" on="1"/>
        <pt x="398" y="343" on="1"/>
        <pt x="398" y="317" on="0"/>
        <pt x="384" y="293" on="0"/>
        <pt x="369" y="293" on="1"/>
        <pt x="213" y="293" on="1"/>
        <pt x="213" y="131" on="1"/>
        <pt x="390" y="131" on="1"/>
        <pt x="405" y="131" on="0"/>
        <pt x="418" y="107" on="0"/>
        <pt x="418" y="81" on="1"/>
        <pt x="418" y="50" on="1"/>
        <pt x="418" y="20" on="0"/>
        <pt x="409" y="9" on="1"/>
        <pt x="393" y="-29" on="0"/>
        <pt x="393" y="-64" on="1"/>
        <pt x="393" y="-108" on="0"/>
        <pt x="442" y="-108" on="1"/>
        <pt x="450" y="-108" on="0"/>
        <pt x="462" y="-104" on="0"/>
        <pt x="466" y="-104" on="1"/>
      </contour>
    </TTGlyph>
    <TTGlyph name="Eth" xMin="7" yMin="0" xMax="537" yMax="700">
      <contour>
        <pt x="414" y="700" on="0"/>
        <pt x="537" y="526" on="0"/>
        <pt x="537" y="350" on="1"/>
        <pt x="537" y="174" on="0"/>
        <pt x="414" y="0" on="0"/>
        <pt x="284" y="0" on="1"/>
        <pt x="94" y="0" on="1"/>
        <pt x="75" y="0" on="0"/>
        <pt x="57" y="19" on="0"/>
        <pt x="57" y="40" on="1"/>
        <pt x="57" y="291" on="1"/>
        <pt x="36" y="291" on="1"/>
        <pt x="21" y="291" on="0"/>
        <pt x="7" y="315" on="0"/>
        <pt x="7" y="341" on="1"/>
        <pt x="7" y="371" on="1"/>
        <pt x="7" y="397" on="0"/>
        <pt x="21" y="421" on="0"/>
        <pt x="36" y="421" on="1"/>
        <pt x="57" y="421" on="1"/>
        <pt x="57" y="660" on="1"/>
        <pt x="57" y="681" on="0"/>
        <pt x="75" y="700" on="0"/>
        <pt x="94" y="700" on="1"/>
        <pt x="284" y="700" on="1"/>
      </contour>
      <contour>
        <pt x="332" y="131" on="0"/>
        <pt x="378" y="230" on="0"/>
        <pt x="378" y="350" on="1"/>
        <pt x="378" y="470" on="0"/>
        <pt x="332" y="569" on="0"/>
        <pt x="279" y="569" on="1"/>
        <pt x="215" y="569" on="1"/>
        <pt x="215" y="421" on="1"/>
        <pt x="259" y="421" on="1"/>
        <pt x="274" y="421" on="0"/>
        <pt x="288" y="397" on="0"/>
        <pt x="288" y="371" on="1"/>
        <pt x="288" y="341" on="1"/>
        <pt x="288" y="315" on="0"/>
        <pt x="274" y="291" on="0"/>
        <pt x="259" y="291" on="1"/>
        <pt x="215" y="291" on="1"/>
        <pt x="215" y="131" on="1"/>
        <pt x="279" y="131" on="1"/>
      </contour>
    </TTGlyph>
    <TTGlyph name="Euro" xMin="0" yMin="-8" xMax="488" yMax="708">
      <contour>
        <pt x="198" y="-8" on="0"/>
        <pt x="77" y="109" on="0"/>
        <pt x="60" y="233" on="1"/>
        <pt x="30" y="233" on="1"/>
        <pt x="14" y="233" on="0"/>
        <pt x="0" y="249" on="0"/>
        <pt x="0" y="267" on="1"/>
        <pt x="0" y="274" on="1"/>
        <pt x="0" y="292" on="0"/>
        <pt x="14" y="308" on="0"/>
        <pt x="30" y="308" on="1"/>
        <pt x="54" y="308" on="1"/>
        <pt x="53" y="322" on="0"/>
        <pt x="53" y="352" on="1"/>
        <pt x="53" y="384" on="1"/>
        <pt x="30" y="384" on="1"/>
        <pt x="14" y="384" on="0"/>
        <pt x="0" y="400" on="0"/>
        <pt x="0" y="418" on="1"/>
        <pt x="0" y="425" on="1"/>
        <pt x="0" y="443" on="0"/>
        <pt x="14" y="459" on="0"/>
        <pt x="30" y="459" on="1"/>
        <pt x="59" y="459" on="1"/>
        <pt x="76" y="584" on="0"/>
        <pt x="202" y="708" on="0"/>
        <pt x="315" y="708" on="1"/>
        <pt x="360" y="708" on="0"/>
        <pt x="438" y="686" on="0"/>
        <pt x="483" y="653" on="0"/>
        <pt x="483" y="638" on="1"/>
        <pt x="483" y="625" on="0"/>
        <pt x="461" y="581" on="0"/>
        <pt x="431" y="547" on="0"/>
        <pt x="420" y="547" on="1"/>
        <pt x="416" y="547" on="0"/>
        <pt x="386" y="562" on="0"/>
        <pt x="348" y="573" on="0"/>
        <pt x="322" y="573" on="1"/>
        <pt x="242" y="573" on="0"/>
        <pt x="220" y="459" on="1"/>
        <pt x="391" y="459" on="1"/>
        <pt x="407" y="459" on="0"/>
        <pt x="421" y="443" on="0"/>
        <pt x="421" y="425" on="1"/>
        <pt x="421" y="418" on="1"/>
        <pt x="421" y="400" on="0"/>
        <pt x="407" y="384" on="0"/>
        <pt x="391" y="384" on="1"/>
        <pt x="212" y="384" on="1"/>
        <pt x="212" y="351" on="1"/>
        <pt x="212" y="322" on="0"/>
        <pt x="213" y="308" on="1"/>
        <pt x="391" y="308" on="1"/>
        <pt x="407" y="308" on="0"/>
        <pt x="421" y="292" on="0"/>
        <pt x="421" y="274" on="1"/>
        <pt x="421" y="267" on="1"/>
        <pt x="421" y="249" on="0"/>
        <pt x="407" y="233" on="0"/>
        <pt x="391" y="233" on="1"/>
        <pt x="223" y="233" on="1"/>
        <pt x="246" y="128" on="0"/>
        <pt x="321" y="128" on="1"/>
        <pt x="347" y="128" on="0"/>
        <pt x="386" y="140" on="0"/>
        <pt x="406" y="150" on="1"/>
        <pt x="424" y="159" on="0"/>
        <pt x="429" y="159" on="1"/>
        <pt x="445" y="159" on="0"/>
        <pt x="472" y="127" on="0"/>
        <pt x="488" y="86" on="0"/>
        <pt x="488" y="76" on="1"/>
        <pt x="488" y="55" on="0"/>
        <pt x="439" y="16" on="0"/>
        <pt x="357" y="-8" on="0"/>
        <pt x="310" y="-8" on="1"/>
      </contour>
    </TTGlyph>
    <TTGlyph name="F" xMin="57" yMin="-2" xMax="398" yMax="700">
      <contour>
        <pt x="57" y="-2" on="0"/>
        <pt x="57" y="30" on="1"/>
        <pt x="57" y="660" on="1"/>
        <pt x="57" y="681" on="0"/>
        <pt x="75" y="700" on="0"/>
        <pt x="94" y="700" on="1"/>
        <pt x="369" y="700" on="1"/>
        <pt x="384" y="700" on="0"/>
        <pt x="398" y="676" on="0"/>
        <pt x="398" y="650" on="1"/>
        <pt x="398" y="619" on="1"/>
        <pt x="398" y="593" on="0"/>
        <pt x="384" y="569" on="0"/>
        <pt x="369" y="569" on="1"/>
        <pt x="213" y="569" on="1"/>
        <pt x="213" y="423" on="1"/>
        <pt x="360" y="423" on="1"/>
        <pt x="375" y="423" on="0"/>
        <pt x="389" y="399" on="0"/>
        <pt x="389" y="373" on="1"/>
        <pt x="389" y="342" on="1"/>
        <pt x="389" y="316" on="0"/>
        <pt x="375" y="292" on="0"/>
        <pt x="360" y="292" on="1"/>
        <pt x="213" y="292" on="1"/>
        <pt x="213" y="30" on="1"/>
        <pt x="213" y="-2" on="0"/>
        <pt x="155" y="-2" on="1"/>
        <pt x="115" y="-2" on="1"/>
      </contour>
    </TTGlyph>
    <TTGlyph name="G" xMin="37" yMin="-8" xMax="502" yMax="708">
      <contour>
        <pt x="484" y="410" on="0"/>
        <pt x="502" y="391" on="0"/>
        <pt x="502" y="370" on="1"/>
        <pt x="502" y="72" on="1"/>
        <pt x="502" y="49" on="0"/>
        <pt x="441" y="12" on="0"/>
        <pt x="351" y="-8" on="0"/>
        <pt x="310" y="-8" on="1"/>
        <pt x="170" y="-8" on="0"/>
        <pt x="37" y="167" on="0"/>
        <pt x="37" y="352" on="1"/>
        <pt x="37" y="532" on="0"/>
        <pt x="171" y="708" on="0"/>
        <pt x="312" y="708" on="1"/>
        <pt x="357" y="708" on="0"/>
        <pt x="441" y="687" on="0"/>
        <pt x="493" y="654" on="0"/>
        <pt x="493" y="637" on="1"/>
        <pt x="493" y="624" on="0"/>
        <pt x="472" y="580" on="0"/>
        <pt x="442" y="547" on="0"/>
        <pt x="430" y="547" on="1"/>
        <pt x="426" y="547" on="0"/>
        <pt x="392" y="562" on="0"/>
        <pt x="350" y="573" on="0"/>
        <pt x="321" y="573" on="1"/>
        <pt x="257" y="573" on="0"/>
        <pt x="197" y="465" on="0"/>
        <pt x="197" y="351" on="1"/>
        <pt x="197" y="229" on="0"/>
        <pt x="254" y="128" on="0"/>
        <pt x="310" y="128" on="1"/>
        <pt x="334" y="128" on="0"/>
        <pt x="351" y="132" on="1"/>
        <pt x="351" y="278" on="1"/>
        <pt x="300" y="278" on="1"/>
        <pt x="285" y="278" on="0"/>
        <pt x="271" y="302" on="0"/>
        <pt x="271" y="328" on="1"/>
        <pt x="271" y="360" on="1"/>
        <pt x="271" y="386" on="0"/>
        <pt x="285" y="410" on="0"/>
        <pt x="300" y="410" on="1"/>
        <pt x="465" y="410" on="1"/>
      </contour>
    </TTGlyph>
    <TTGlyph name="Gbreve" xMin="37" yMin="-8" xMax="502" yMax="892">
      <component glyphName="G" x="0" y="0" flags="0x0"/>
      <component glyphName="uni0306" x="298" y="177" flags="0x4"/>
    </TTGlyph>
    <TTGlyph name="Gcircumflex" xMin="37" yMin="-8" xMax="502" yMax="895">
      <component glyphName="G" x="0" y="0" flags="0x0"/>
      <component glyphName="uni0302" x="295" y="177" flags="0x4"/>
    </TTGlyph>
    <TTGlyph name="Gcommaaccent" xMin="37" yMin="-240" xMax="502" yMax="708">
      <component glyphName="G" x="0" y="0" flags="0x0"/>
      <component glyphName="uni0326" x="435" y="0" flags="0x0"/>
    </TTGlyph>
    <TTGlyph name="Gdotaccent" xMin="37" yMin="-8" xMax="502" yMax="879">
      <component glyphName="G" x="0" y="0" flags="0x0"/>
      <component glyphName="uni0307" x="297" y="177" flags="0x4"/>
    </TTGlyph>
    <TTGlyph name="H" xMin="57" yMin="-2" xMax="542" yMax="702">
      <contour>
        <pt x="57" y="-2" on="0"/>
        <pt x="57" y="30" on="1"/>
        <pt x="57" y="670" on="1"/>
        <pt x="57" y="702" on="0"/>
        <pt x="115" y="702" on="1"/>
        <pt x="157" y="702" on="1"/>
        <pt x="214" y="702" on="0"/>
        <pt x="214" y="670" on="1"/>
        <pt x="214" y="423" on="1"/>
        <pt x="385" y="423" on="1"/>
        <pt x="385" y="670" on="1"/>
        <pt x="385" y="702" on="0"/>
        <pt x="443" y="702" on="1"/>
        <pt x="484" y="702" on="1"/>
        <pt x="542" y="702" on="0"/>
        <pt x="542" y="670" on="1"/>
        <pt x="542" y="30" on="1"/>
        <pt x="542" y="-2" on="0"/>
        <pt x="484" y="-2" on="1"/>
        <pt x="443" y="-2" on="1"/>
        <pt x="385" y="-2" on="0"/>
        <pt x="385" y="30" on="1"/>
        <pt x="385" y="291" on="1"/>
        <pt x="214" y="291" on="1"/>
        <pt x="214" y="30" on="1"/>
        <pt x="214" y="-2" on="0"/>
        <pt x="157" y="-2" on="1"/>
        <pt x="115" y="-2" on="1"/>
      </contour>
    </TTGlyph>
    <TTGlyph name="Hbar" xMin="12" yMin="-2" xMax="578" yMax="702">
      <contour>
        <pt x="565" y="571" on="0"/>
        <pt x="578" y="552" on="0"/>
        <pt x="578" y="531" on="1"/>
        <pt x="578" y="516" on="1"/>
        <pt x="578" y="495" on="0"/>
        <pt x="565" y="476" on="0"/>
        <pt x="549" y="476" on="1"/>
        <pt x="542" y="476" on="1"/>
        <pt x="542" y="30" on="1"/>
        <pt x="542" y="-2" on="0"/>
        <pt x="484" y="-2" on="1"/>
        <pt x="443" y="-2" on="1"/>
        <pt x="385" y="-2" on="0"/>
        <pt x="385" y="30" on="1"/>
        <pt x="385" y="291" on="1"/>
        <pt x="214" y="291" on="1"/>
        <pt x="214" y="30" on="1"/>
        <pt x="214" y="-2" on="0"/>
        <pt x="157" y="-2" on="1"/>
        <pt x="115" y="-2" on="1"/>
        <pt x="57" y="-2" on="0"/>
        <pt x="57" y="30" on="1"/>
        <pt x="57" y="476" on="1"/>
        <pt x="41" y="476" on="1"/>
        <pt x="26" y="476" on="0"/>
        <pt x="12" y="495" on="0"/>
        <pt x="12" y="516" on="1"/>
        <pt x="12" y="531" on="1"/>
        <pt x="12" y="552" on="0"/>
        <pt x="26" y="571" on="0"/>
        <pt x="41" y="571" on="1"/>
        <pt x="57" y="571" on="1"/>
        <pt x="57" y="670" on="1"/>
        <pt x="57" y="702" on="0"/>
        <pt x="115" y="702" on="1"/>
        <pt x="157" y="702" on="1"/>
        <pt x="214" y="702" on="0"/>
        <pt x="214" y="670" on="1"/>
        <pt x="214" y="571" on="1"/>
        <pt x="385" y="571" on="1"/>
        <pt x="385" y="670" on="1"/>
        <pt x="385" y="702" on="0"/>
        <pt x="443" y="702" on="1"/>
        <pt x="484" y="702" on="1"/>
        <pt x="542" y="702" on="0"/>
        <pt x="542" y="670" on="1"/>
        <pt x="542" y="571" on="1"/>
        <pt x="549" y="571" on="1"/>
      </contour>
      <contour>
        <pt x="385" y="423" on="1"/>
        <pt x="385" y="476" on="1"/>
        <pt x="214" y="476" on="1"/>
        <pt x="214" y="423" on="1"/>
      </contour>
    </TTGlyph>
    <TTGlyph name="Hcircumflex" xMin="57" yMin="-2" xMax="542" yMax="895">
      <component glyphName="H" x="0" y="0" flags="0x0"/>
      <component glyphName="uni0302" x="297" y="177" flags="0x4"/>
    </TTGlyph>
    <TTGlyph name="I" xMin="52" yMin="-3" xMax="209" yMax="703">
      <contour>
        <pt x="52" y="-3" on="0"/>
        <pt x="52" y="30" on="1"/>
        <pt x="52" y="670" on="1"/>
        <pt x="52" y="703" on="0"/>
        <pt x="110" y="703" on="1"/>
        <pt x="152" y="703" on="1"/>
        <pt x="209" y="703" on="0"/>
        <pt x="209" y="670" on="1"/>
        <pt x="209" y="30" on="1"/>
        <pt x="209" y="-3" on="0"/>
        <pt x="152" y="-3" on="1"/>
        <pt x="110" y="-3" on="1"/>
      </contour>
    </TTGlyph>
    <TTGlyph name="IJ" xMin="52" yMin="-8" xMax="565" yMax="703">
      <component glyphName="I" x="0" y="0" flags="0x0"/>
      <component glyphName="J" x="262" y="0" flags="0x0"/>
    </TTGlyph>
    <TTGlyph name="Iacute" xMin="52" yMin="-3" xMax="270" yMax="911">
      <component glyphName="I" x="0" y="0" flags="0x0"/>
      <component glyphName="acutecomb" x="131" y="177" flags="0x4"/>
    </TTGlyph>
    <TTGlyph name="Iacute_J.loclNLD" xMin="52" yMin="-8" xMax="624" yMax="911">
      <component glyphName="I" x="0" y="0" flags="0x0"/>
      <component glyphName="acutecomb" x="131" y="177" flags="0x4"/>
      <component glyphName="J" x="262" y="0" flags="0x0"/>
      <component glyphName="acutecomb" x="485" y="177" flags="0x4"/>
    </TTGlyph>
    <TTGlyph name="Ibreve" xMin="0" yMin="-3" xMax="261" yMax="892">
      <component glyphName="I" x="0" y="0" flags="0x0"/>
      <component glyphName="uni0306" x="131" y="177" flags="0x4"/>
    </TTGlyph>
    <TTGlyph name="Icircumflex" xMin="6" yMin="-3" xMax="255" yMax="895">
      <component glyphName="I" x="0" y="0" flags="0x0"/>
      <component glyphName="uni0302" x="128" y="177" flags="0x4"/>
    </TTGlyph>
    <TTGlyph name="Idieresis" xMin="-6" yMin="-3" xMax="270" yMax="879">
      <component glyphName="I" x="0" y="0" flags="0x0"/>
      <component glyphName="uni0308" x="132" y="177" flags="0x4"/>
    </TTGlyph>
    <TTGlyph name="Idotaccent" xMin="52" yMin="-3" xMax="209" yMax="879">
      <component glyphName="I" x="0" y="0" flags="0x0"/>
      <component glyphName="uni0307" x="130" y="177" flags="0x4"/>
    </TTGlyph>
    <TTGlyph name="Igrave" xMin="-14" yMin="-3" xMax="209" yMax="911">
      <component glyphName="I" x="0" y="0" flags="0x0"/>
      <component glyphName="gravecomb" x="129" y="177" flags="0x4"/>
    </TTGlyph>
    <TTGlyph name="Imacron" xMin="6" yMin="-3" xMax="255" yMax="869">
      <component glyphName="I" x="0" y="0" flags="0x0"/>
      <component glyphName="uni0304" x="129" y="177" flags="0x4"/>
    </TTGlyph>
    <TTGlyph name="Iogonek" xMin="52" yMin="-172" xMax="291" yMax="703">
      <contour>
        <pt x="277" y="-99" on="0"/>
        <pt x="291" y="-112" on="0"/>
        <pt x="291" y="-129" on="1"/>
        <pt x="291" y="-150" on="0"/>
        <pt x="274" y="-160" on="1"/>
        <pt x="249" y="-172" on="0"/>
        <pt x="218" y="-172" on="1"/>
        <pt x="161" y="-172" on="0"/>
        <pt x="121" y="-112" on="0"/>
        <pt x="121" y="-78" on="1"/>
        <pt x="121" y="-43" on="0"/>
        <pt x="137" y="-3" on="1"/>
        <pt x="110" y="-3" on="1"/>
        <pt x="52" y="-3" on="0"/>
        <pt x="52" y="30" on="1"/>
        <pt x="52" y="670" on="1"/>
        <pt x="52" y="703" on="0"/>
        <pt x="110" y="703" on="1"/>
        <pt x="152" y="703" on="1"/>
        <pt x="209" y="703" on="0"/>
        <pt x="209" y="670" on="1"/>
        <pt x="209" y="30" on="1"/>
        <pt x="209" y="21" on="0"/>
        <pt x="205" y="14" on="1"/>
        <pt x="188" y="-23" on="0"/>
        <pt x="188" y="-59" on="1"/>
        <pt x="188" y="-103" on="0"/>
        <pt x="237" y="-103" on="1"/>
        <pt x="245" y="-103" on="0"/>
        <pt x="257" y="-99" on="0"/>
        <pt x="261" y="-99" on="1"/>
      </contour>
    </TTGlyph>
    <TTGlyph name="Itilde" xMin="-33" yMin="-3" xMax="277" yMax="875">
      <component glyphName="I" x="0" y="0" flags="0x0"/>
      <component glyphName="tildecomb" x="138" y="177" flags="0x4"/>
    </TTGlyph>
    <TTGlyph name="J" xMin="8" yMin="-8" xMax="303" yMax="703">
      <contour>
        <pt x="78" y="-8" on="0"/>
        <pt x="8" y="18" on="0"/>
        <pt x="8" y="38" on="1"/>
        <pt x="8" y="67" on="0"/>
        <pt x="34" y="130" on="0"/>
        <pt x="50" y="131" on="1"/>
        <pt x="54" y="131" on="0"/>
        <pt x="81" y="125" on="0"/>
        <pt x="97" y="125" on="1"/>
        <pt x="124" y="125" on="0"/>
        <pt x="146" y="173" on="0"/>
        <pt x="146" y="227" on="1"/>
        <pt x="146" y="670" on="1"/>
        <pt x="146" y="703" on="0"/>
        <pt x="203" y="703" on="1"/>
        <pt x="245" y="703" on="1"/>
        <pt x="303" y="703" on="0"/>
        <pt x="303" y="670" on="1"/>
        <pt x="303" y="202" on="1"/>
        <pt x="303" y="-8" on="0"/>
        <pt x="122" y="-8" on="1"/>
      </contour>
    </TTGlyph>
    <TTGlyph name="Jcircumflex" xMin="8" yMin="-8" xMax="347" yMax="895">
      <component glyphName="J" x="0" y="0" flags="0x0"/>
      <component glyphName="uni0302" x="220" y="177" flags="0x4"/>
    </TTGlyph>
    <TTGlyph name="K" xMin="54" yMin="-2" xMax="522" yMax="702">
      <contour>
        <pt x="522" y="23" on="0"/>
        <pt x="522" y="13" on="1"/>
        <pt x="522" y="-2" on="0"/>
        <pt x="470" y="-2" on="1"/>
        <pt x="404" y="-2" on="1"/>
        <pt x="381" y="-2" on="0"/>
        <pt x="355" y="6" on="0"/>
        <pt x="350" y="17" on="1"/>
        <pt x="214" y="331" on="1"/>
        <pt x="211" y="330" on="1"/>
        <pt x="211" y="30" on="1"/>
        <pt x="211" y="-2" on="0"/>
        <pt x="152" y="-2" on="1"/>
        <pt x="112" y="-2" on="1"/>
        <pt x="54" y="-2" on="0"/>
        <pt x="54" y="30" on="1"/>
        <pt x="54" y="670" on="1"/>
        <pt x="54" y="702" on="0"/>
        <pt x="112" y="702" on="1"/>
        <pt x="152" y="702" on="1"/>
        <pt x="211" y="702" on="0"/>
        <pt x="211" y="670" on="1"/>
        <pt x="211" y="372" on="1"/>
        <pt x="215" y="371" on="1"/>
        <pt x="350" y="683" on="1"/>
        <pt x="355" y="694" on="0"/>
        <pt x="379" y="702" on="0"/>
        <pt x="401" y="702" on="1"/>
        <pt x="456" y="702" on="1"/>
        <pt x="511" y="702" on="0"/>
        <pt x="511" y="687" on="1"/>
        <pt x="511" y="680" on="0"/>
        <pt x="505" y="666" on="1"/>
        <pt x="350" y="357" on="1"/>
        <pt x="516" y="34" on="1"/>
      </contour>
    </TTGlyph>
    <TTGlyph name="Kcommaaccent" xMin="54" yMin="-240" xMax="522" yMax="702">
      <component glyphName="K" x="0" y="0" flags="0x0"/>
      <component glyphName="uni0326" x="394" y="0" flags="0x0"/>
    </TTGlyph>
    <TTGlyph name="L" xMin="57" yMin="0" xMax="392" yMax="702">
      <contour>
        <pt x="75" y="0" on="0"/>
        <pt x="57" y="19" on="0"/>
        <pt x="57" y="40" on="1"/>
        <pt x="57" y="670" on="1"/>
        <pt x="57" y="702" on="0"/>
        <pt x="115" y="702" on="1"/>
        <pt x="155" y="702" on="1"/>
        <pt x="213" y="702" on="0"/>
        <pt x="213" y="670" on="1"/>
        <pt x="213" y="131" on="1"/>
        <pt x="362" y="131" on="1"/>
        <pt x="378" y="131" on="0"/>
        <pt x="392" y="107" on="0"/>
        <pt x="392" y="81" on="1"/>
        <pt x="392" y="50" on="1"/>
        <pt x="392" y="24" on="0"/>
        <pt x="378" y="0" on="0"/>
        <pt x="362" y="0" on="1"/>
        <pt x="94" y="0" on="1"/>
      </contour>
    </TTGlyph>
    <TTGlyph name="Lacute" xMin="57" yMin="0" xMax="392" yMax="911">
      <component glyphName="L" x="0" y="0" flags="0x0"/>
      <component glyphName="acutecomb" x="137" y="177" flags="0x4"/>
    </TTGlyph>
    <TTGlyph name="Lcaron" xMin="57" yMin="0" xMax="392" yMax="702">
      <component glyphName="L" x="0" y="0" flags="0x0"/>
      <component glyphName="caron.alt" x="231" y="0" flags="0x0"/>
    </TTGlyph>
    <TTGlyph name="Lcommaaccent" xMin="57" yMin="-240" xMax="392" yMax="702">
      <component glyphName="L" x="0" y="0" flags="0x0"/>
      <component glyphName="uni0326" x="347" y="0" flags="0x0"/>
    </TTGlyph>
    <TTGlyph name="Ldot" xMin="57" yMin="0" xMax="392" yMax="702">
      <component glyphName="L" x="0" y="0" flags="0x0"/>
      <component glyphName="periodcentered" x="202" y="0" flags="0x0"/>
    </TTGlyph>
    <TTGlyph name="Lslash" xMin="6" yMin="0" xMax="392" yMax="702">
      <contour>
        <pt x="378" y="131" on="0"/>
        <pt x="392" y="107" on="0"/>
        <pt x="392" y="81" on="1"/>
        <pt x="392" y="50" on="1"/>
        <pt x="392" y="24" on="0"/>
        <pt x="378" y="0" on="0"/>
        <pt x="362" y="0" on="1"/>
        <pt x="94" y="0" on="1"/>
        <pt x="75" y="0" on="0"/>
        <pt x="57" y="19" on="0"/>
        <pt x="57" y="40" on="1"/>
        <pt x="57" y="304" on="1"/>
        <pt x="32" y="289" on="1"/>
        <pt x="24" y="284" on="0"/>
        <pt x="17" y="284" on="1"/>
        <pt x="6" y="284" on="0"/>
        <pt x="6" y="304" on="1"/>
        <pt x="6" y="324" on="1"/>
        <pt x="6" y="340" on="0"/>
        <pt x="18" y="361" on="0"/>
        <pt x="32" y="369" on="1"/>
        <pt x="57" y="384" on="1"/>
        <pt x="57" y="670" on="1"/>
        <pt x="57" y="702" on="0"/>
        <pt x="115" y="702" on="1"/>
        <pt x="155" y="702" on="1"/>
        <pt x="213" y="702" on="0"/>
        <pt x="213" y="670" on="1"/>
        <pt x="213" y="480" on="1"/>
        <pt x="271" y="515" on="1"/>
        <pt x="280" y="521" on="0"/>
        <pt x="286" y="521" on="1"/>
        <pt x="297" y="521" on="0"/>
        <pt x="297" y="501" on="1"/>
        <pt x="297" y="481" on="1"/>
        <pt x="297" y="451" on="0"/>
        <pt x="271" y="435" on="1"/>
        <pt x="213" y="400" on="1"/>
        <pt x="213" y="131" on="1"/>
        <pt x="362" y="131" on="1"/>
      </contour>
    </TTGlyph>
    <TTGlyph name="M" xMin="52" yMin="-2" xMax="635" yMax="702">
      <contour>
        <pt x="320" y="223" on="0"/>
        <pt x="302" y="234" on="0"/>
        <pt x="295" y="247" on="1"/>
        <pt x="221" y="385" on="1"/>
        <pt x="215" y="396" on="0"/>
        <pt x="203" y="425" on="0"/>
        <pt x="200" y="432" on="1"/>
        <pt x="196" y="431" on="1"/>
        <pt x="202" y="395" on="0"/>
        <pt x="202" y="376" on="1"/>
        <pt x="202" y="30" on="1"/>
        <pt x="202" y="13" on="0"/>
        <pt x="175" y="-2" on="0"/>
        <pt x="144" y="-2" on="1"/>
        <pt x="110" y="-2" on="1"/>
        <pt x="79" y="-2" on="0"/>
        <pt x="52" y="13" on="0"/>
        <pt x="52" y="30" on="1"/>
        <pt x="52" y="670" on="1"/>
        <pt x="52" y="687" on="0"/>
        <pt x="79" y="702" on="0"/>
        <pt x="110" y="702" on="1"/>
        <pt x="141" y="702" on="1"/>
        <pt x="165" y="702" on="0"/>
        <pt x="193" y="689" on="0"/>
        <pt x="201" y="674" on="1"/>
        <pt x="325" y="439" on="1"/>
        <pt x="335" y="421" on="0"/>
        <pt x="344" y="391" on="1"/>
        <pt x="351" y="418" on="0"/>
        <pt x="362" y="439" on="1"/>
        <pt x="486" y="674" on="1"/>
        <pt x="494" y="689" on="0"/>
        <pt x="522" y="702" on="0"/>
        <pt x="546" y="702" on="1"/>
        <pt x="577" y="702" on="1"/>
        <pt x="608" y="702" on="0"/>
        <pt x="635" y="687" on="0"/>
        <pt x="635" y="670" on="1"/>
        <pt x="635" y="30" on="1"/>
        <pt x="635" y="13" on="0"/>
        <pt x="608" y="-2" on="0"/>
        <pt x="577" y="-2" on="1"/>
        <pt x="543" y="-2" on="1"/>
        <pt x="512" y="-2" on="0"/>
        <pt x="485" y="13" on="0"/>
        <pt x="485" y="30" on="1"/>
        <pt x="485" y="376" on="1"/>
        <pt x="485" y="400" on="0"/>
        <pt x="492" y="431" on="1"/>
        <pt x="488" y="432" on="1"/>
        <pt x="481" y="413" on="0"/>
        <pt x="466" y="385" on="1"/>
        <pt x="392" y="247" on="1"/>
        <pt x="385" y="234" on="0"/>
        <pt x="367" y="223" on="0"/>
        <pt x="352" y="223" on="1"/>
        <pt x="335" y="223" on="1"/>
      </contour>
    </TTGlyph>
    <TTGlyph name="N" xMin="52" yMin="-2" xMax="538" yMax="702">
      <contour>
        <pt x="52" y="-2" on="0"/>
        <pt x="52" y="30" on="1"/>
        <pt x="52" y="670" on="1"/>
        <pt x="52" y="702" on="0"/>
        <pt x="110" y="702" on="1"/>
        <pt x="136" y="702" on="1"/>
        <pt x="156" y="702" on="0"/>
        <pt x="180" y="691" on="0"/>
        <pt x="188" y="674" on="1"/>
        <pt x="368" y="348" on="1"/>
        <pt x="382" y="322" on="0"/>
        <pt x="402" y="270" on="1"/>
        <pt x="406" y="272" on="1"/>
        <pt x="398" y="324" on="0"/>
        <pt x="398" y="351" on="1"/>
        <pt x="398" y="670" on="1"/>
        <pt x="398" y="702" on="0"/>
        <pt x="456" y="702" on="1"/>
        <pt x="480" y="702" on="1"/>
        <pt x="538" y="702" on="0"/>
        <pt x="538" y="670" on="1"/>
        <pt x="538" y="30" on="1"/>
        <pt x="538" y="-2" on="0"/>
        <pt x="480" y="-2" on="1"/>
        <pt x="461" y="-2" on="1"/>
        <pt x="441" y="-2" on="0"/>
        <pt x="415" y="9" on="0"/>
        <pt x="407" y="26" on="1"/>
        <pt x="216" y="366" on="1"/>
        <pt x="207" y="381" on="0"/>
        <pt x="189" y="430" on="1"/>
        <pt x="184" y="427" on="1"/>
        <pt x="192" y="381" on="0"/>
        <pt x="192" y="359" on="1"/>
        <pt x="192" y="30" on="1"/>
        <pt x="192" y="-2" on="0"/>
        <pt x="134" y="-2" on="1"/>
        <pt x="110" y="-2" on="1"/>
      </contour>
    </TTGlyph>
    <TTGlyph name="Nacute" xMin="52" yMin="-2" xMax="538" yMax="911">
      <component glyphName="N" x="0" y="0" flags="0x0"/>
      <component glyphName="acutecomb" x="295" y="177" flags="0x4"/>
    </TTGlyph>
    <TTGlyph name="Nacute.loclPLK" xMin="52" yMin="-2" xMax="538" yMax="911">
      <component glyphName="N" x="0" y="0" flags="0x0"/>
      <component glyphName="acute.loclPLK" x="209" y="177" flags="0x4"/>
    </TTGlyph>
    <TTGlyph name="Ncaron" xMin="52" yMin="-2" xMax="538" yMax="895">
      <component glyphName="N" x="0" y="0" flags="0x0"/>
      <component glyphName="uni030C" x="286" y="177" flags="0x4"/>
    </TTGlyph>
    <TTGlyph name="Ncommaaccent" xMin="52" yMin="-240" xMax="538" yMax="702">
      <component glyphName="N" x="0" y="0" flags="0x0"/>
      <component glyphName="uni0326" x="427" y="0" flags="0x0"/>
    </TTGlyph>
    <TTGlyph name="Ntilde" xMin="52" yMin="-2" xMax="538" yMax="875">
      <component glyphName="N" x="0" y="0" flags="0x0"/>
      <component glyphName="tildecomb" x="302" y="177" flags="0x4"/>
    </TTGlyph>
    <TTGlyph name="O" xMin="38" yMin="-8" xMax="561" yMax="708">
      <contour>
        <pt x="38" y="-8" on="0"/>
        <pt x="38" y="350" on="1"/>
        <pt x="38" y="708" on="0"/>
        <pt x="300" y="708" on="1"/>
        <pt x="428" y="708" on="0"/>
        <pt x="561" y="534" on="0"/>
        <pt x="561" y="350" on="1"/>
        <pt x="561" y="166" on="0"/>
        <pt x="428" y="-8" on="0"/>
        <pt x="300" y="-8" on="1"/>
      </contour>
      <contour>
        <pt x="337" y="123" on="0"/>
        <pt x="381" y="163" on="0"/>
        <pt x="403" y="262" on="0"/>
        <pt x="403" y="350" on="1"/>
        <pt x="403" y="437" on="0"/>
        <pt x="381" y="536" on="0"/>
        <pt x="337" y="576" on="0"/>
        <pt x="301" y="576" on="1"/>
        <pt x="265" y="576" on="0"/>
        <pt x="220" y="536" on="0"/>
        <pt x="197" y="437" on="0"/>
        <pt x="197" y="350" on="1"/>
        <pt x="197" y="263" on="0"/>
        <pt x="220" y="163" on="0"/>
        <pt x="265" y="123" on="0"/>
        <pt x="301" y="123" on="1"/>
      </contour>
    </TTGlyph>
    <TTGlyph name="OE" xMin="37" yMin="-8" xMax="792" yMax="708">
      <contour>
        <pt x="778" y="131" on="0"/>
        <pt x="792" y="107" on="0"/>
        <pt x="792" y="81" on="1"/>
        <pt x="792" y="50" on="1"/>
        <pt x="792" y="24" on="0"/>
        <pt x="778" y="0" on="0"/>
        <pt x="764" y="0" on="1"/>
        <pt x="441" y="0" on="1"/>
        <pt x="424" y="0" on="0"/>
        <pt x="406" y="14" on="0"/>
        <pt x="405" y="30" on="1"/>
        <pt x="377" y="10" on="0"/>
        <pt x="318" y="-8" on="0"/>
        <pt x="283" y="-8" on="1"/>
        <pt x="165" y="-8" on="0"/>
        <pt x="37" y="169" on="0"/>
        <pt x="37" y="350" on="1"/>
        <pt x="37" y="532" on="0"/>
        <pt x="165" y="708" on="0"/>
        <pt x="283" y="708" on="1"/>
        <pt x="319" y="708" on="0"/>
        <pt x="377" y="690" on="0"/>
        <pt x="404" y="669" on="1"/>
        <pt x="406" y="685" on="0"/>
        <pt x="423" y="700" on="0"/>
        <pt x="441" y="700" on="1"/>
        <pt x="763" y="700" on="1"/>
        <pt x="778" y="700" on="0"/>
        <pt x="791" y="676" on="0"/>
        <pt x="791" y="650" on="1"/>
        <pt x="791" y="619" on="1"/>
        <pt x="791" y="593" on="0"/>
        <pt x="778" y="569" on="0"/>
        <pt x="763" y="569" on="1"/>
        <pt x="560" y="569" on="1"/>
        <pt x="560" y="424" on="1"/>
        <pt x="742" y="424" on="1"/>
        <pt x="758" y="424" on="0"/>
        <pt x="771" y="400" on="0"/>
        <pt x="771" y="374" on="1"/>
        <pt x="771" y="343" on="1"/>
        <pt x="771" y="317" on="0"/>
        <pt x="758" y="293" on="0"/>
        <pt x="742" y="293" on="1"/>
        <pt x="560" y="293" on="1"/>
        <pt x="560" y="131" on="1"/>
        <pt x="764" y="131" on="1"/>
      </contour>
      <contour>
        <pt x="336" y="123" on="0"/>
        <pt x="381" y="164" on="0"/>
        <pt x="403" y="263" on="0"/>
        <pt x="403" y="350" on="1"/>
        <pt x="403" y="437" on="0"/>
        <pt x="381" y="535" on="0"/>
        <pt x="337" y="576" on="0"/>
        <pt x="301" y="576" on="1"/>
        <pt x="265" y="576" on="0"/>
        <pt x="220" y="535" on="0"/>
        <pt x="197" y="437" on="0"/>
        <pt x="197" y="350" on="1"/>
        <pt x="197" y="263" on="0"/>
        <pt x="220" y="164" on="0"/>
        <pt x="265" y="123" on="0"/>
        <pt x="301" y="123" on="1"/>
      </contour>
    </TTGlyph>
    <TTGlyph name="Oacute" xMin="38" yMin="-8" xMax="561" yMax="911">
      <component glyphName="O" x="0" y="0" flags="0x0"/>
      <component glyphName="acutecomb" x="300" y="177" flags="0x4"/>
    </TTGlyph>
    <TTGlyph name="Oacute.loclPLK" xMin="38" yMin="-8" xMax="561" yMax="911">
      <component glyphName="O" x="0" y="0" flags="0x0"/>
      <component glyphName="acute.loclPLK" x="214" y="177" flags="0x4"/>
    </TTGlyph>
    <TTGlyph name="Obreve" xMin="38" yMin="-8" xMax="561" yMax="892">
      <component glyphName="O" x="0" y="0" flags="0x0"/>
      <component glyphName="uni0306" x="300" y="177" flags="0x4"/>
    </TTGlyph>
    <TTGlyph name="Ocircumflex" xMin="38" yMin="-8" xMax="561" yMax="895">
      <component glyphName="O" x="0" y="0" flags="0x0"/>
      <component glyphName="uni0302" x="297" y="177" flags="0x4"/>
    </TTGlyph>
    <TTGlyph name="Odieresis" xMin="38" yMin="-8" xMax="561" yMax="879">
      <component glyphName="O" x="0" y="0" flags="0x0"/>
      <component glyphName="uni0308" x="301" y="177" flags="0x4"/>
    </TTGlyph>
    <TTGlyph name="Ograve" xMin="38" yMin="-8" xMax="561" yMax="911">
      <component glyphName="O" x="0" y="0" flags="0x0"/>
      <component glyphName="gravecomb" x="298" y="177" flags="0x4"/>
    </TTGlyph>
    <TTGlyph name="Ohorn" xMin="38" yMin="-8" xMax="603" yMax="785">
      <contour>
        <pt x="38" y="-8" on="0"/>
        <pt x="38" y="350" on="1"/>
        <pt x="38" y="708" on="0"/>
        <pt x="300" y="708" on="1"/>
        <pt x="390" y="708" on="0"/>
        <pt x="451" y="662" on="1"/>
        <pt x="467" y="651" on="0"/>
        <pt x="489" y="651" on="1"/>
        <pt x="524" y="651" on="0"/>
        <pt x="524" y="682" on="1"/>
        <pt x="524" y="699" on="0"/>
        <pt x="507" y="720" on="1"/>
        <pt x="506" y="721" on="0"/>
        <pt x="497" y="734" on="0"/>
        <pt x="497" y="739" on="1"/>
        <pt x="497" y="751" on="0"/>
        <pt x="508" y="758" on="1"/>
        <pt x="540" y="780" on="1"/>
        <pt x="546" y="785" on="0"/>
        <pt x="556" y="785" on="1"/>
        <pt x="574" y="785" on="0"/>
        <pt x="603" y="727" on="0"/>
        <pt x="603" y="702" on="1"/>
        <pt x="603" y="661" on="0"/>
        <pt x="553" y="612" on="0"/>
        <pt x="502" y="608" on="1"/>
        <pt x="561" y="518" on="0"/>
        <pt x="561" y="350" on="1"/>
        <pt x="561" y="166" on="0"/>
        <pt x="428" y="-8" on="0"/>
        <pt x="300" y="-8" on="1"/>
      </contour>
      <contour>
        <pt x="337" y="123" on="0"/>
        <pt x="381" y="163" on="0"/>
        <pt x="403" y="262" on="0"/>
        <pt x="403" y="350" on="1"/>
        <pt x="403" y="437" on="0"/>
        <pt x="381" y="536" on="0"/>
        <pt x="337" y="576" on="0"/>
        <pt x="301" y="576" on="1"/>
        <pt x="265" y="576" on="0"/>
        <pt x="220" y="536" on="0"/>
        <pt x="197" y="437" on="0"/>
        <pt x="197" y="350" on="1"/>
        <pt x="197" y="263" on="0"/>
        <pt x="220" y="163" on="0"/>
        <pt x="265" y="123" on="0"/>
        <pt x="301" y="123" on="1"/>
      </contour>
    </TTGlyph>
    <TTGlyph name="Ohungarumlaut" xMin="38" yMin="-8" xMax="561" yMax="911">
      <component glyphName="O" x="0" y="0" flags="0x0"/>
      <component glyphName="uni030B" x="340" y="177" flags="0x4"/>
    </TTGlyph>
    <TTGlyph name="Omacron" xMin="38" yMin="-8" xMax="561" yMax="869">
      <component glyphName="O" x="0" y="0" flags="0x0"/>
      <component glyphName="uni0304" x="298" y="177" flags="0x4"/>
    </TTGlyph>
    <TTGlyph name="Oslash" xMin="29" yMin="-23" xMax="561" yMax="730">
      <contour>
        <pt x="561" y="517" on="0"/>
        <pt x="561" y="350" on="1"/>
        <pt x="561" y="166" on="0"/>
        <pt x="428" y="-8" on="0"/>
        <pt x="300" y="-8" on="1"/>
        <pt x="200" y="-8" on="0"/>
        <pt x="138" y="44" on="1"/>
        <pt x="104" y="-7" on="1"/>
        <pt x="94" y="-23" on="0"/>
        <pt x="80" y="-23" on="1"/>
        <pt x="66" y="-23" on="0"/>
        <pt x="29" y="5" on="0"/>
        <pt x="29" y="18" on="1"/>
        <pt x="29" y="26" on="0"/>
        <pt x="36" y="36" on="1"/>
        <pt x="85" y="111" on="1"/>
        <pt x="38" y="197" on="0"/>
        <pt x="38" y="350" on="1"/>
        <pt x="38" y="708" on="0"/>
        <pt x="300" y="708" on="1"/>
        <pt x="389" y="708" on="0"/>
        <pt x="449" y="666" on="1"/>
        <pt x="481" y="714" on="1"/>
        <pt x="487" y="722" on="0"/>
        <pt x="497" y="730" on="0"/>
        <pt x="504" y="730" on="1"/>
        <pt x="518" y="730" on="0"/>
        <pt x="555" y="702" on="0"/>
        <pt x="555" y="689" on="1"/>
        <pt x="555" y="679" on="0"/>
        <pt x="548" y="670" on="1"/>
        <pt x="505" y="605" on="1"/>
      </contour>
      <contour>
        <pt x="197" y="324" on="0"/>
        <pt x="199" y="284" on="1"/>
        <pt x="369" y="544" on="1"/>
        <pt x="347" y="576" on="0"/>
        <pt x="301" y="576" on="1"/>
        <pt x="265" y="576" on="0"/>
        <pt x="220" y="536" on="0"/>
        <pt x="197" y="437" on="0"/>
        <pt x="197" y="350" on="1"/>
      </contour>
      <contour>
        <pt x="337" y="123" on="0"/>
        <pt x="381" y="163" on="0"/>
        <pt x="403" y="262" on="0"/>
        <pt x="403" y="350" on="1"/>
        <pt x="403" y="408" on="0"/>
        <pt x="399" y="443" on="1"/>
        <pt x="222" y="173" on="1"/>
        <pt x="234" y="146" on="0"/>
        <pt x="273" y="123" on="0"/>
        <pt x="301" y="123" on="1"/>
      </contour>
    </TTGlyph>
    <TTGlyph name="Oslashacute" xMin="29" yMin="-23" xMax="561" yMax="911">
      <component glyphName="Oslash" x="0" y="0" flags="0x0"/>
      <component glyphName="acutecomb" x="300" y="177" flags="0x4"/>
    </TTGlyph>
    <TTGlyph name="Otilde" xMin="38" yMin="-8" xMax="561" yMax="875">
      <component glyphName="O" x="0" y="0" flags="0x0"/>
      <component glyphName="tildecomb" x="307" y="177" flags="0x4"/>
    </TTGlyph>
    <TTGlyph name="P" xMin="55" yMin="-2" xMax="468" yMax="700">
      <contour>
        <pt x="55" y="-2" on="0"/>
        <pt x="55" y="30" on="1"/>
        <pt x="55" y="660" on="1"/>
        <pt x="55" y="681" on="0"/>
        <pt x="74" y="700" on="0"/>
        <pt x="95" y="700" on="1"/>
        <pt x="268" y="700" on="1"/>
        <pt x="347" y="700" on="0"/>
        <pt x="468" y="609" on="0"/>
        <pt x="468" y="481" on="1"/>
        <pt x="468" y="393" on="0"/>
        <pt x="398" y="296" on="0"/>
        <pt x="312" y="262" on="0"/>
        <pt x="278" y="262" on="1"/>
        <pt x="209" y="262" on="1"/>
        <pt x="209" y="30" on="1"/>
        <pt x="209" y="-2" on="0"/>
        <pt x="149" y="-2" on="1"/>
        <pt x="115" y="-2" on="1"/>
      </contour>
      <contour>
        <pt x="261" y="391" on="1"/>
        <pt x="284" y="391" on="0"/>
        <pt x="318" y="431" on="0"/>
        <pt x="318" y="481" on="1"/>
        <pt x="318" y="530" on="0"/>
        <pt x="284" y="569" on="0"/>
        <pt x="261" y="569" on="1"/>
        <pt x="208" y="569" on="1"/>
        <pt x="208" y="391" on="1"/>
      </contour>
    </TTGlyph>
    <TTGlyph name="Q" xMin="38" yMin="-159" xMax="584" yMax="708">
      <contour>
        <pt x="513" y="-159" on="0"/>
        <pt x="493" y="-148" on="0"/>
        <pt x="488" y="-145" on="1"/>
        <pt x="373" y="-76" on="0"/>
        <pt x="183" y="16" on="1"/>
        <pt x="111" y="52" on="0"/>
        <pt x="38" y="215" on="0"/>
        <pt x="38" y="350" on="1"/>
        <pt x="38" y="708" on="0"/>
        <pt x="300" y="708" on="1"/>
        <pt x="428" y="708" on="0"/>
        <pt x="561" y="534" on="0"/>
        <pt x="561" y="350" on="1"/>
        <pt x="561" y="100" on="0"/>
        <pt x="433" y="26" on="1"/>
        <pt x="433" y="22" on="1"/>
        <pt x="572" y="-47" on="1"/>
        <pt x="584" y="-52" on="0"/>
        <pt x="584" y="-65" on="1"/>
        <pt x="583" y="-74" on="0"/>
        <pt x="561" y="-121" on="0"/>
        <pt x="531" y="-159" on="0"/>
        <pt x="517" y="-159" on="1"/>
      </contour>
      <contour>
        <pt x="337" y="121" on="0"/>
        <pt x="381" y="162" on="0"/>
        <pt x="403" y="262" on="0"/>
        <pt x="403" y="350" on="1"/>
        <pt x="403" y="437" on="0"/>
        <pt x="381" y="536" on="0"/>
        <pt x="337" y="576" on="0"/>
        <pt x="301" y="576" on="1"/>
        <pt x="265" y="576" on="0"/>
        <pt x="220" y="536" on="0"/>
        <pt x="197" y="437" on="0"/>
        <pt x="197" y="350" on="1"/>
        <pt x="197" y="262" on="0"/>
        <pt x="220" y="162" on="0"/>
        <pt x="265" y="121" on="0"/>
        <pt x="301" y="121" on="1"/>
      </contour>
    </TTGlyph>
    <TTGlyph name="R" xMin="54" yMin="-2" xMax="499" yMax="700">
      <contour>
        <pt x="54" y="-2" on="0"/>
        <pt x="54" y="30" on="1"/>
        <pt x="54" y="660" on="1"/>
        <pt x="54" y="681" on="0"/>
        <pt x="73" y="700" on="0"/>
        <pt x="94" y="700" on="1"/>
        <pt x="261" y="700" on="1"/>
        <pt x="353" y="700" on="0"/>
        <pt x="465" y="609" on="0"/>
        <pt x="465" y="503" on="1"/>
        <pt x="465" y="386" on="0"/>
        <pt x="370" y="334" on="1"/>
        <pt x="370" y="330" on="1"/>
        <pt x="392" y="318" on="0"/>
        <pt x="428" y="262" on="0"/>
        <pt x="437" y="230" on="1"/>
        <pt x="496" y="38" on="1"/>
        <pt x="499" y="26" on="0"/>
        <pt x="499" y="26" on="1"/>
        <pt x="499" y="-1" on="0"/>
        <pt x="437" y="-1" on="1"/>
        <pt x="402" y="-1" on="1"/>
        <pt x="349" y="-1" on="0"/>
        <pt x="342" y="26" on="1"/>
        <pt x="289" y="216" on="1"/>
        <pt x="280" y="238" on="0"/>
        <pt x="257" y="256" on="0"/>
        <pt x="232" y="256" on="1"/>
        <pt x="208" y="256" on="1"/>
        <pt x="208" y="30" on="1"/>
        <pt x="208" y="-2" on="0"/>
        <pt x="148" y="-2" on="1"/>
        <pt x="114" y="-2" on="1"/>
      </contour>
      <contour>
        <pt x="264" y="402" on="1"/>
        <pt x="286" y="402" on="0"/>
        <pt x="317" y="446" on="0"/>
        <pt x="317" y="488" on="1"/>
        <pt x="317" y="530" on="0"/>
        <pt x="286" y="569" on="0"/>
        <pt x="261" y="569" on="1"/>
        <pt x="208" y="569" on="1"/>
        <pt x="208" y="402" on="1"/>
      </contour>
    </TTGlyph>
    <TTGlyph name="Racute" xMin="54" yMin="-2" xMax="499" yMax="911">
      <component glyphName="R" x="0" y="0" flags="0x0"/>
      <component glyphName="acutecomb" x="251" y="177" flags="0x4"/>
    </TTGlyph>
    <TTGlyph name="Rcaron" xMin="54" yMin="-2" xMax="499" yMax="895">
      <component glyphName="R" x="0" y="0" flags="0x0"/>
      <component glyphName="uni030C" x="242" y="177" flags="0x4"/>
    </TTGlyph>
    <TTGlyph name="Rcommaaccent" xMin="54" yMin="-240" xMax="499" yMax="700">
      <component glyphName="R" x="0" y="0" flags="0x0"/>
      <component glyphName="uni0326" x="394" y="0" flags="0x0"/>
    </TTGlyph>
    <TTGlyph name="S" xMin="26" yMin="-8" xMax="424" yMax="708">
      <contour>
        <pt x="157" y="-8" on="0"/>
        <pt x="61" y="21" on="0"/>
        <pt x="39" y="46" on="1"/>
        <pt x="26" y="64" on="0"/>
        <pt x="26" y="81" on="1"/>
        <pt x="26" y="109" on="0"/>
        <pt x="56" y="167" on="0"/>
        <pt x="74" y="167" on="1"/>
        <pt x="82" y="167" on="0"/>
        <pt x="117" y="147" on="0"/>
        <pt x="125" y="143" on="1"/>
        <pt x="164" y="123" on="0"/>
        <pt x="194" y="123" on="1"/>
        <pt x="225" y="123" on="0"/>
        <pt x="271" y="153" on="0"/>
        <pt x="271" y="189" on="1"/>
        <pt x="271" y="216" on="0"/>
        <pt x="247" y="254" on="0"/>
        <pt x="212" y="278" on="0"/>
        <pt x="179" y="296" on="1"/>
        <pt x="103" y="339" on="0"/>
        <pt x="35" y="435" on="0"/>
        <pt x="35" y="516" on="1"/>
        <pt x="35" y="606" on="0"/>
        <pt x="150" y="708" on="0"/>
        <pt x="245" y="708" on="1"/>
        <pt x="279" y="708" on="0"/>
        <pt x="355" y="687" on="0"/>
        <pt x="376" y="672" on="1"/>
        <pt x="394" y="659" on="0"/>
        <pt x="394" y="637" on="1"/>
        <pt x="394" y="611" on="0"/>
        <pt x="371" y="553" on="0"/>
        <pt x="354" y="553" on="1"/>
        <pt x="346" y="553" on="0"/>
        <pt x="325" y="561" on="1"/>
        <pt x="286" y="576" on="0"/>
        <pt x="260" y="576" on="1"/>
        <pt x="220" y="576" on="0"/>
        <pt x="190" y="542" on="0"/>
        <pt x="190" y="520" on="1"/>
        <pt x="190" y="483" on="0"/>
        <pt x="229" y="444" on="0"/>
        <pt x="271" y="421" on="1"/>
        <pt x="294" y="408" on="1"/>
        <pt x="363" y="368" on="0"/>
        <pt x="424" y="276" on="0"/>
        <pt x="424" y="201" on="1"/>
        <pt x="424" y="145" on="0"/>
        <pt x="376" y="50" on="0"/>
        <pt x="278" y="-8" on="0"/>
        <pt x="206" y="-8" on="1"/>
      </contour>
    </TTGlyph>
    <TTGlyph name="Sacute" xMin="26" yMin="-8" xMax="424" yMax="911">
      <component glyphName="S" x="0" y="0" flags="0x0"/>
      <component glyphName="acutecomb" x="218" y="177" flags="0x4"/>
    </TTGlyph>
    <TTGlyph name="Sacute.loclPLK" xMin="26" yMin="-8" xMax="424" yMax="911">
      <component glyphName="S" x="0" y="0" flags="0x0"/>
      <component glyphName="acute.loclPLK" x="132" y="177" flags="0x4"/>
    </TTGlyph>
    <TTGlyph name="Scaron" xMin="26" yMin="-8" xMax="424" yMax="895">
      <component glyphName="S" x="0" y="0" flags="0x0"/>
      <component glyphName="uni030C" x="209" y="177" flags="0x4"/>
    </TTGlyph>
    <TTGlyph name="Scedilla" xMin="26" yMin="-212" xMax="424" yMax="708">
      <contour>
        <pt x="424" y="124" on="0"/>
        <pt x="337" y="9" on="0"/>
        <pt x="253" y="-4" on="1"/>
        <pt x="240" y="-48" on="1"/>
        <pt x="269" y="-53" on="0"/>
        <pt x="304" y="-90" on="0"/>
        <pt x="304" y="-122" on="1"/>
        <pt x="304" y="-166" on="0"/>
        <pt x="248" y="-212" on="0"/>
        <pt x="200" y="-212" on="1"/>
        <pt x="157" y="-212" on="0"/>
        <pt x="94" y="-181" on="0"/>
        <pt x="94" y="-160" on="1"/>
        <pt x="94" y="-142" on="0"/>
        <pt x="117" y="-118" on="0"/>
        <pt x="126" y="-118" on="1"/>
        <pt x="135" y="-118" on="0"/>
        <pt x="151" y="-127" on="1"/>
        <pt x="153" y="-128" on="0"/>
        <pt x="177" y="-139" on="0"/>
        <pt x="191" y="-139" on="1"/>
        <pt x="211" y="-139" on="0"/>
        <pt x="211" y="-123" on="1"/>
        <pt x="211" y="-115" on="0"/>
        <pt x="200" y="-106" on="0"/>
        <pt x="188" y="-101" on="1"/>
        <pt x="176" y="-96" on="0"/>
        <pt x="164" y="-87" on="0"/>
        <pt x="164" y="-79" on="1"/>
        <pt x="164" y="-69" on="0"/>
        <pt x="187" y="-7" on="1"/>
        <pt x="142" y="-5" on="0"/>
        <pt x="59" y="24" on="0"/>
        <pt x="39" y="46" on="1"/>
        <pt x="26" y="64" on="0"/>
        <pt x="26" y="81" on="1"/>
        <pt x="26" y="109" on="0"/>
        <pt x="56" y="167" on="0"/>
        <pt x="74" y="167" on="1"/>
        <pt x="82" y="167" on="0"/>
        <pt x="117" y="147" on="0"/>
        <pt x="125" y="143" on="1"/>
        <pt x="164" y="123" on="0"/>
        <pt x="194" y="123" on="1"/>
        <pt x="225" y="123" on="0"/>
        <pt x="271" y="153" on="0"/>
        <pt x="271" y="189" on="1"/>
        <pt x="271" y="216" on="0"/>
        <pt x="247" y="254" on="0"/>
        <pt x="212" y="278" on="0"/>
        <pt x="179" y="296" on="1"/>
        <pt x="103" y="339" on="0"/>
        <pt x="35" y="435" on="0"/>
        <pt x="35" y="516" on="1"/>
        <pt x="35" y="606" on="0"/>
        <pt x="150" y="708" on="0"/>
        <pt x="245" y="708" on="1"/>
        <pt x="279" y="708" on="0"/>
        <pt x="355" y="687" on="0"/>
        <pt x="376" y="672" on="1"/>
        <pt x="394" y="659" on="0"/>
        <pt x="394" y="637" on="1"/>
        <pt x="394" y="611" on="0"/>
        <pt x="371" y="553" on="0"/>
        <pt x="354" y="553" on="1"/>
        <pt x="346" y="553" on="0"/>
        <pt x="325" y="561" on="1"/>
        <pt x="286" y="576" on="0"/>
        <pt x="260" y="576" on="1"/>
        <pt x="220" y="576" on="0"/>
        <pt x="190" y="542" on="0"/>
        <pt x="190" y="520" on="1"/>
        <pt x="190" y="483" on="0"/>
        <pt x="229" y="444" on="0"/>
        <pt x="271" y="421" on="1"/>
        <pt x="294" y="408" on="1"/>
        <pt x="363" y="368" on="0"/>
        <pt x="424" y="276" on="0"/>
        <pt x="424" y="201" on="1"/>
      </contour>
    </TTGlyph>
    <TTGlyph name="Scircumflex" xMin="26" yMin="-8" xMax="424" yMax="895">
      <component glyphName="S" x="0" y="0" flags="0x0"/>
      <component glyphName="uni0302" x="215" y="177" flags="0x4"/>
    </TTGlyph>
    <TTGlyph name="Scommaaccent" xMin="26" yMin="-240" xMax="424" yMax="708">
      <component glyphName="S" x="0" y="0" flags="0x0"/>
      <component glyphName="uni0326" x="350" y="0" flags="0x0"/>
    </TTGlyph>
    <TTGlyph name="T" xMin="8" yMin="-2" xMax="447" yMax="700">
      <contour>
        <pt x="148" y="-2" on="0"/>
        <pt x="148" y="30" on="1"/>
        <pt x="148" y="569" on="1"/>
        <pt x="37" y="569" on="1"/>
        <pt x="22" y="569" on="0"/>
        <pt x="8" y="593" on="0"/>
        <pt x="8" y="619" on="1"/>
        <pt x="8" y="650" on="1"/>
        <pt x="8" y="676" on="0"/>
        <pt x="22" y="700" on="0"/>
        <pt x="37" y="700" on="1"/>
        <pt x="417" y="700" on="1"/>
        <pt x="433" y="700" on="0"/>
        <pt x="447" y="676" on="0"/>
        <pt x="447" y="650" on="1"/>
        <pt x="447" y="619" on="1"/>
        <pt x="447" y="593" on="0"/>
        <pt x="433" y="569" on="0"/>
        <pt x="417" y="569" on="1"/>
        <pt x="305" y="569" on="1"/>
        <pt x="305" y="30" on="1"/>
        <pt x="305" y="-2" on="0"/>
        <pt x="247" y="-2" on="1"/>
        <pt x="206" y="-2" on="1"/>
      </contour>
    </TTGlyph>
    <TTGlyph name="Tbar" xMin="8" yMin="-2" xMax="447" yMax="700">
      <contour>
        <pt x="433" y="700" on="0"/>
        <pt x="447" y="676" on="0"/>
        <pt x="447" y="650" on="1"/>
        <pt x="447" y="619" on="1"/>
        <pt x="447" y="593" on="0"/>
        <pt x="433" y="569" on="0"/>
        <pt x="417" y="569" on="1"/>
        <pt x="305" y="569" on="1"/>
        <pt x="305" y="398" on="1"/>
        <pt x="361" y="398" on="1"/>
        <pt x="377" y="398" on="0"/>
        <pt x="390" y="379" on="0"/>
        <pt x="390" y="358" on="1"/>
        <pt x="390" y="343" on="1"/>
        <pt x="390" y="322" on="0"/>
        <pt x="377" y="303" on="0"/>
        <pt x="361" y="303" on="1"/>
        <pt x="305" y="303" on="1"/>
        <pt x="305" y="30" on="1"/>
        <pt x="305" y="-2" on="0"/>
        <pt x="247" y="-2" on="1"/>
        <pt x="206" y="-2" on="1"/>
        <pt x="148" y="-2" on="0"/>
        <pt x="148" y="30" on="1"/>
        <pt x="148" y="303" on="1"/>
        <pt x="81" y="303" on="1"/>
        <pt x="66" y="303" on="0"/>
        <pt x="52" y="322" on="0"/>
        <pt x="52" y="343" on="1"/>
        <pt x="52" y="358" on="1"/>
        <pt x="52" y="379" on="0"/>
        <pt x="66" y="398" on="0"/>
        <pt x="81" y="398" on="1"/>
        <pt x="148" y="398" on="1"/>
        <pt x="148" y="569" on="1"/>
        <pt x="37" y="569" on="1"/>
        <pt x="22" y="569" on="0"/>
        <pt x="8" y="593" on="0"/>
        <pt x="8" y="619" on="1"/>
        <pt x="8" y="650" on="1"/>
        <pt x="8" y="676" on="0"/>
        <pt x="22" y="700" on="0"/>
        <pt x="37" y="700" on="1"/>
        <pt x="417" y="700" on="1"/>
      </contour>
    </TTGlyph>
    <TTGlyph name="Tcaron" xMin="8" yMin="-2" xMax="447" yMax="895">
      <component glyphName="T" x="0" y="0" flags="0x0"/>
      <component glyphName="uni030C" x="218" y="177" flags="0x4"/>
    </TTGlyph>
    <TTGlyph name="Thorn" xMin="55" yMin="-2" xMax="468" yMax="702">
      <contour>
        <pt x="55" y="-2" on="0"/>
        <pt x="55" y="30" on="1"/>
        <pt x="55" y="670" on="1"/>
        <pt x="55" y="702" on="0"/>
        <pt x="113" y="702" on="1"/>
        <pt x="153" y="702" on="1"/>
        <pt x="211" y="702" on="0"/>
        <pt x="211" y="670" on="1"/>
        <pt x="211" y="591" on="1"/>
        <pt x="268" y="591" on="1"/>
        <pt x="347" y="591" on="0"/>
        <pt x="468" y="500" on="0"/>
        <pt x="468" y="372" on="1"/>
        <pt x="468" y="284" on="0"/>
        <pt x="398" y="187" on="0"/>
        <pt x="312" y="153" on="0"/>
        <pt x="278" y="153" on="1"/>
        <pt x="211" y="153" on="1"/>
        <pt x="211" y="30" on="1"/>
        <pt x="211" y="-2" on="0"/>
        <pt x="153" y="-2" on="1"/>
        <pt x="113" y="-2" on="1"/>
      </contour>
      <contour>
        <pt x="261" y="282" on="1"/>
        <pt x="285" y="282" on="0"/>
        <pt x="318" y="322" on="0"/>
        <pt x="318" y="372" on="1"/>
        <pt x="318" y="421" on="0"/>
        <pt x="285" y="460" on="0"/>
        <pt x="261" y="460" on="1"/>
        <pt x="211" y="460" on="1"/>
        <pt x="211" y="282" on="1"/>
      </contour>
    </TTGlyph>
    <TTGlyph name="U" xMin="51" yMin="-8" xMax="532" yMax="702">
      <contour>
        <pt x="179" y="-8" on="0"/>
        <pt x="51" y="104" on="0"/>
        <pt x="51" y="205" on="1"/>
        <pt x="51" y="670" on="1"/>
        <pt x="51" y="702" on="0"/>
        <pt x="109" y="702" on="1"/>
        <pt x="149" y="702" on="1"/>
        <pt x="207" y="702" on="0"/>
        <pt x="207" y="670" on="1"/>
        <pt x="207" y="215" on="1"/>
        <pt x="207" y="174" on="0"/>
        <pt x="253" y="123" on="0"/>
        <pt x="292" y="123" on="1"/>
        <pt x="330" y="123" on="0"/>
        <pt x="377" y="175" on="0"/>
        <pt x="377" y="215" on="1"/>
        <pt x="377" y="670" on="1"/>
        <pt x="377" y="702" on="0"/>
        <pt x="435" y="702" on="1"/>
        <pt x="474" y="702" on="1"/>
        <pt x="532" y="702" on="0"/>
        <pt x="532" y="670" on="1"/>
        <pt x="532" y="205" on="1"/>
        <pt x="532" y="104" on="0"/>
        <pt x="405" y="-8" on="0"/>
        <pt x="292" y="-8" on="1"/>
      </contour>
    </TTGlyph>
    <TTGlyph name="Uacute" xMin="51" yMin="-8" xMax="532" yMax="911">
      <component glyphName="U" x="0" y="0" flags="0x0"/>
      <component glyphName="acutecomb" x="292" y="177" flags="0x4"/>
    </TTGlyph>
    <TTGlyph name="Ubreve" xMin="51" yMin="-8" xMax="532" yMax="892">
      <component glyphName="U" x="0" y="0" flags="0x0"/>
      <component glyphName="uni0306" x="292" y="177" flags="0x4"/>
    </TTGlyph>
    <TTGlyph name="Ucircumflex" xMin="51" yMin="-8" xMax="532" yMax="895">
      <component glyphName="U" x="0" y="0" flags="0x0"/>
      <component glyphName="uni0302" x="289" y="177" flags="0x4"/>
    </TTGlyph>
    <TTGlyph name="Udieresis" xMin="51" yMin="-8" xMax="532" yMax="879">
      <component glyphName="U" x="0" y="0" flags="0x0"/>
      <component glyphName="uni0308" x="293" y="177" flags="0x4"/>
    </TTGlyph>
    <TTGlyph name="Ugrave" xMin="51" yMin="-8" xMax="532" yMax="911">
      <component glyphName="U" x="0" y="0" flags="0x0"/>
      <component glyphName="gravecomb" x="290" y="177" flags="0x4"/>
    </TTGlyph>
    <TTGlyph name="Uhorn" xMin="44" yMin="-8" xMax="601" yMax="836">
      <contour>
        <pt x="601" y="718" on="0"/>
        <pt x="563" y="672" on="0"/>
        <pt x="525" y="664" on="1"/>
        <pt x="525" y="205" on="1"/>
        <pt x="525" y="104" on="0"/>
        <pt x="398" y="-8" on="0"/>
        <pt x="285" y="-8" on="1"/>
        <pt x="172" y="-8" on="0"/>
        <pt x="44" y="104" on="0"/>
        <pt x="44" y="205" on="1"/>
        <pt x="44" y="670" on="1"/>
        <pt x="44" y="702" on="0"/>
        <pt x="102" y="702" on="1"/>
        <pt x="142" y="702" on="1"/>
        <pt x="200" y="702" on="0"/>
        <pt x="200" y="670" on="1"/>
        <pt x="200" y="215" on="1"/>
        <pt x="200" y="174" on="0"/>
        <pt x="246" y="123" on="0"/>
        <pt x="285" y="123" on="1"/>
        <pt x="323" y="123" on="0"/>
        <pt x="370" y="175" on="0"/>
        <pt x="370" y="215" on="1"/>
        <pt x="370" y="670" on="1"/>
        <pt x="370" y="702" on="0"/>
        <pt x="428" y="702" on="1"/>
        <pt x="479" y="702" on="1"/>
        <pt x="499" y="702" on="0"/>
        <pt x="522" y="720" on="0"/>
        <pt x="522" y="735" on="1"/>
        <pt x="522" y="745" on="0"/>
        <pt x="513" y="761" on="0"/>
        <pt x="505" y="771" on="1"/>
        <pt x="495" y="785" on="0"/>
        <pt x="495" y="790" on="1"/>
        <pt x="495" y="802" on="0"/>
        <pt x="506" y="809" on="1"/>
        <pt x="538" y="831" on="1"/>
        <pt x="544" y="836" on="0"/>
        <pt x="554" y="836" on="1"/>
        <pt x="572" y="836" on="0"/>
        <pt x="601" y="778" on="0"/>
        <pt x="601" y="753" on="1"/>
      </contour>
    </TTGlyph>
    <TTGlyph name="Uhungarumlaut" xMin="51" yMin="-8" xMax="532" yMax="911">
      <component glyphName="U" x="0" y="0" flags="0x0"/>
      <component glyphName="uni030B" x="332" y="177" flags="0x4"/>
    </TTGlyph>
    <TTGlyph name="Umacron" xMin="51" yMin="-8" xMax="532" yMax="869">
      <component glyphName="U" x="0" y="0" flags="0x0"/>
      <component glyphName="uni0304" x="290" y="177" flags="0x4"/>
    </TTGlyph>
    <TTGlyph name="Uogonek" xMin="51" yMin="-160" xMax="532" yMax="702">
      <contour>
        <pt x="532" y="143" on="0"/>
        <pt x="483" y="53" on="0"/>
        <pt x="437" y="26" on="1"/>
        <pt x="421" y="-12" on="0"/>
        <pt x="421" y="-47" on="1"/>
        <pt x="421" y="-91" on="0"/>
        <pt x="470" y="-91" on="1"/>
        <pt x="478" y="-91" on="0"/>
        <pt x="490" y="-87" on="0"/>
        <pt x="494" y="-87" on="1"/>
        <pt x="510" y="-87" on="0"/>
        <pt x="524" y="-100" on="0"/>
        <pt x="524" y="-117" on="1"/>
        <pt x="524" y="-138" on="0"/>
        <pt x="507" y="-148" on="1"/>
        <pt x="482" y="-160" on="0"/>
        <pt x="451" y="-160" on="1"/>
        <pt x="394" y="-160" on="0"/>
        <pt x="354" y="-100" on="0"/>
        <pt x="354" y="-66" on="1"/>
        <pt x="354" y="-36" on="0"/>
        <pt x="366" y="-1" on="1"/>
        <pt x="335" y="-8" on="0"/>
        <pt x="292" y="-8" on="1"/>
        <pt x="179" y="-8" on="0"/>
        <pt x="51" y="104" on="0"/>
        <pt x="51" y="205" on="1"/>
        <pt x="51" y="670" on="1"/>
        <pt x="51" y="702" on="0"/>
        <pt x="109" y="702" on="1"/>
        <pt x="149" y="702" on="1"/>
        <pt x="207" y="702" on="0"/>
        <pt x="207" y="670" on="1"/>
        <pt x="207" y="215" on="1"/>
        <pt x="207" y="174" on="0"/>
        <pt x="253" y="123" on="0"/>
        <pt x="292" y="123" on="1"/>
        <pt x="330" y="123" on="0"/>
        <pt x="377" y="175" on="0"/>
        <pt x="377" y="215" on="1"/>
        <pt x="377" y="670" on="1"/>
        <pt x="377" y="702" on="0"/>
        <pt x="435" y="702" on="1"/>
        <pt x="474" y="702" on="1"/>
        <pt x="532" y="702" on="0"/>
        <pt x="532" y="670" on="1"/>
        <pt x="532" y="205" on="1"/>
      </contour>
    </TTGlyph>
    <TTGlyph name="Uring" xMin="51" yMin="-8" xMax="532" yMax="926">
      <component glyphName="U" x="0" y="0" flags="0x0"/>
      <component glyphName="uni030A" x="291" y="177" flags="0x4"/>
    </TTGlyph>
    <TTGlyph name="Utilde" xMin="51" yMin="-8" xMax="532" yMax="875">
      <component glyphName="U" x="0" y="0" flags="0x0"/>
      <component glyphName="tildecomb" x="299" y="177" flags="0x4"/>
    </TTGlyph>
    <TTGlyph name="V" xMin="4" yMin="-2" xMax="501" yMax="702">
      <contour>
        <pt x="165" y="-2" on="0"/>
        <pt x="160" y="19" on="1"/>
        <pt x="8" y="662" on="1"/>
        <pt x="4" y="676" on="0"/>
        <pt x="4" y="680" on="1"/>
        <pt x="4" y="702" on="0"/>
        <pt x="62" y="702" on="1"/>
        <pt x="100" y="702" on="1"/>
        <pt x="150" y="702" on="0"/>
        <pt x="155" y="673" on="1"/>
        <pt x="240" y="221" on="1"/>
        <pt x="249" y="152" on="1"/>
        <pt x="253" y="152" on="1"/>
        <pt x="262" y="221" on="1"/>
        <pt x="352" y="673" on="1"/>
        <pt x="357" y="702" on="0"/>
        <pt x="407" y="702" on="1"/>
        <pt x="444" y="702" on="1"/>
        <pt x="501" y="702" on="0"/>
        <pt x="501" y="680" on="1"/>
        <pt x="501" y="673" on="0"/>
        <pt x="498" y="662" on="1"/>
        <pt x="346" y="19" on="1"/>
        <pt x="341" y="-2" on="0"/>
        <pt x="293" y="-2" on="1"/>
        <pt x="213" y="-2" on="1"/>
      </contour>
    </TTGlyph>
    <TTGlyph name="W" xMin="5" yMin="-2" xMax="747" yMax="702">
      <contour>
        <pt x="161" y="-2" on="0"/>
        <pt x="139" y="8" on="0"/>
        <pt x="137" y="19" on="1"/>
        <pt x="6" y="661" on="1"/>
        <pt x="5" y="665" on="0"/>
        <pt x="6" y="674" on="0"/>
        <pt x="6" y="676" on="1"/>
        <pt x="6" y="702" on="0"/>
        <pt x="65" y="702" on="1"/>
        <pt x="94" y="702" on="1"/>
        <pt x="154" y="702" on="0"/>
        <pt x="158" y="671" on="1"/>
        <pt x="205" y="302" on="1"/>
        <pt x="214" y="230" on="1"/>
        <pt x="223" y="152" on="1"/>
        <pt x="241" y="273" on="1"/>
        <pt x="245" y="293" on="0"/>
        <pt x="246" y="302" on="1"/>
        <pt x="307" y="681" on="1"/>
        <pt x="309" y="693" on="0"/>
        <pt x="330" y="702" on="0"/>
        <pt x="354" y="702" on="1"/>
        <pt x="404" y="702" on="1"/>
        <pt x="428" y="702" on="0"/>
        <pt x="449" y="693" on="0"/>
        <pt x="451" y="681" on="1"/>
        <pt x="511" y="302" on="1"/>
        <pt x="533" y="149" on="1"/>
        <pt x="547" y="256" on="1"/>
        <pt x="553" y="302" on="1"/>
        <pt x="601" y="671" on="1"/>
        <pt x="605" y="702" on="0"/>
        <pt x="665" y="702" on="1"/>
        <pt x="688" y="702" on="1"/>
        <pt x="747" y="702" on="0"/>
        <pt x="747" y="676" on="1"/>
        <pt x="747" y="667" on="0"/>
        <pt x="746" y="661" on="1"/>
        <pt x="613" y="19" on="1"/>
        <pt x="609" y="-2" on="0"/>
        <pt x="566" y="-2" on="1"/>
        <pt x="500" y="-2" on="1"/>
        <pt x="460" y="-2" on="0"/>
        <pt x="455" y="19" on="1"/>
        <pt x="387" y="372" on="1"/>
        <pt x="376" y="479" on="1"/>
        <pt x="364" y="372" on="1"/>
        <pt x="295" y="19" on="1"/>
        <pt x="291" y="-2" on="0"/>
        <pt x="250" y="-2" on="1"/>
        <pt x="184" y="-2" on="1"/>
      </contour>
    </TTGlyph>
    <TTGlyph name="Wacute" xMin="6" yMin="-2" xMax="747" yMax="911">
      <component glyphName="W" x="0" y="0" flags="0x0"/>
      <component glyphName="acutecomb" x="376" y="177" flags="0x4"/>
    </TTGlyph>
    <TTGlyph name="Wcircumflex" xMin="6" yMin="-2" xMax="747" yMax="895">
      <component glyphName="W" x="0" y="0" flags="0x0"/>
      <component glyphName="uni0302" x="373" y="177" flags="0x4"/>
    </TTGlyph>
    <TTGlyph name="Wdieresis" xMin="6" yMin="-2" xMax="747" yMax="879">
      <component glyphName="W" x="0" y="0" flags="0x0"/>
      <component glyphName="uni0308" x="377" y="177" flags="0x4"/>
    </TTGlyph>
    <TTGlyph name="Wgrave" xMin="6" yMin="-2" xMax="747" yMax="911">
      <component glyphName="W" x="0" y="0" flags="0x0"/>
      <component glyphName="gravecomb" x="374" y="177" flags="0x4"/>
    </TTGlyph>
    <TTGlyph name="X" xMin="8" yMin="-2" xMax="496" yMax="702">
      <contour>
        <pt x="8" y="-2" on="0"/>
        <pt x="8" y="17" on="1"/>
        <pt x="8" y="23" on="0"/>
        <pt x="16" y="42" on="1"/>
        <pt x="161" y="365" on="1"/>
        <pt x="35" y="658" on="1"/>
        <pt x="26" y="676" on="0"/>
        <pt x="26" y="683" on="1"/>
        <pt x="26" y="692" on="0"/>
        <pt x="57" y="702" on="0"/>
        <pt x="86" y="702" on="1"/>
        <pt x="133" y="702" on="1"/>
        <pt x="156" y="702" on="0"/>
        <pt x="184" y="694" on="0"/>
        <pt x="187" y="683" on="1"/>
        <pt x="257" y="447" on="1"/>
        <pt x="333" y="682" on="1"/>
        <pt x="337" y="694" on="0"/>
        <pt x="364" y="702" on="0"/>
        <pt x="389" y="702" on="1"/>
        <pt x="436" y="702" on="1"/>
        <pt x="495" y="702" on="0"/>
        <pt x="495" y="683" on="1"/>
        <pt x="495" y="676" on="0"/>
        <pt x="487" y="658" on="1"/>
        <pt x="351" y="363" on="1"/>
        <pt x="488" y="42" on="1"/>
        <pt x="490" y="37" on="0"/>
        <pt x="496" y="22" on="0"/>
        <pt x="496" y="17" on="1"/>
        <pt x="496" y="-2" on="0"/>
        <pt x="437" y="-2" on="1"/>
        <pt x="394" y="-2" on="1"/>
        <pt x="345" y="-2" on="0"/>
        <pt x="339" y="17" on="1"/>
        <pt x="257" y="272" on="1"/>
        <pt x="167" y="18" on="1"/>
        <pt x="162" y="4" on="0"/>
        <pt x="139" y="-2" on="0"/>
        <pt x="112" y="-2" on="1"/>
        <pt x="67" y="-2" on="1"/>
      </contour>
    </TTGlyph>
    <TTGlyph name="Y" xMin="1" yMin="-2" xMax="482" yMax="702">
      <contour>
        <pt x="164" y="-2" on="0"/>
        <pt x="164" y="30" on="1"/>
        <pt x="164" y="302" on="1"/>
        <pt x="10" y="657" on="1"/>
        <pt x="1" y="675" on="0"/>
        <pt x="1" y="682" on="1"/>
        <pt x="1" y="691" on="0"/>
        <pt x="32" y="702" on="0"/>
        <pt x="61" y="702" on="1"/>
        <pt x="112" y="702" on="1"/>
        <pt x="161" y="702" on="0"/>
        <pt x="167" y="683" on="1"/>
        <pt x="245" y="437" on="1"/>
        <pt x="322" y="683" on="1"/>
        <pt x="325" y="694" on="0"/>
        <pt x="353" y="702" on="0"/>
        <pt x="377" y="702" on="1"/>
        <pt x="419" y="702" on="1"/>
        <pt x="482" y="702" on="0"/>
        <pt x="482" y="682" on="1"/>
        <pt x="482" y="676" on="0"/>
        <pt x="475" y="657" on="1"/>
        <pt x="321" y="299" on="1"/>
        <pt x="321" y="30" on="1"/>
        <pt x="320" y="14" on="0"/>
        <pt x="292" y="-2" on="0"/>
        <pt x="262" y="-2" on="1"/>
        <pt x="223" y="-2" on="1"/>
      </contour>
    </TTGlyph>
    <TTGlyph name="Y.loclGUA" xMin="42" yMin="-9" xMax="452" yMax="701">
      <contour>
        <pt x="452" y="701" on="0"/>
        <pt x="452" y="669" on="1"/>
        <pt x="452" y="273" on="1"/>
        <pt x="452" y="129" on="0"/>
        <pt x="351" y="-9" on="0"/>
        <pt x="241" y="-9" on="1"/>
        <pt x="166" y="-9" on="0"/>
        <pt x="53" y="31" on="0"/>
        <pt x="48" y="62" on="1"/>
        <pt x="45" y="88" on="0"/>
        <pt x="45" y="110" on="1"/>
        <pt x="45" y="129" on="0"/>
        <pt x="56" y="148" on="0"/>
        <pt x="64" y="148" on="1"/>
        <pt x="69" y="148" on="0"/>
        <pt x="83" y="140" on="1"/>
        <pt x="112" y="126" on="0"/>
        <pt x="167" y="108" on="0"/>
        <pt x="203" y="108" on="1"/>
        <pt x="304" y="108" on="0"/>
        <pt x="304" y="219" on="1"/>
        <pt x="304" y="266" on="1"/>
        <pt x="285" y="239" on="0"/>
        <pt x="225" y="208" on="0"/>
        <pt x="186" y="208" on="1"/>
        <pt x="113" y="208" on="0"/>
        <pt x="42" y="286" on="0"/>
        <pt x="42" y="364" on="1"/>
        <pt x="42" y="669" on="1"/>
        <pt x="42" y="701" on="0"/>
        <pt x="102" y="701" on="1"/>
        <pt x="130" y="701" on="1"/>
        <pt x="190" y="701" on="0"/>
        <pt x="190" y="669" on="1"/>
        <pt x="190" y="386" on="1"/>
        <pt x="190" y="330" on="0"/>
        <pt x="244" y="330" on="1"/>
        <pt x="267" y="330" on="0"/>
        <pt x="294" y="362" on="0"/>
        <pt x="304" y="388" on="1"/>
        <pt x="304" y="669" on="1"/>
        <pt x="304" y="701" on="0"/>
        <pt x="364" y="701" on="1"/>
        <pt x="392" y="701" on="1"/>
      </contour>
    </TTGlyph>
    <TTGlyph name="Yacute" xMin="1" yMin="-2" xMax="482" yMax="911">
      <component glyphName="Y" x="0" y="0" flags="0x0"/>
      <component glyphName="acutecomb" x="242" y="177" flags="0x4"/>
    </TTGlyph>
    <TTGlyph name="Yacute.loclGUA" xMin="42" yMin="-9" xMax="452" yMax="911">
      <component glyphName="Y.loclGUA" x="0" y="0" flags="0x0"/>
      <component glyphName="acutecomb" x="244" y="177" flags="0x4"/>
    </TTGlyph>
    <TTGlyph name="Ycircumflex" xMin="1" yMin="-2" xMax="482" yMax="895">
      <component glyphName="Y" x="0" y="0" flags="0x0"/>
      <component glyphName="uni0302" x="239" y="177" flags="0x4"/>
    </TTGlyph>
    <TTGlyph name="Ycircumflex.loclGUA" xMin="42" yMin="-9" xMax="452" yMax="895">
      <component glyphName="Y.loclGUA" x="0" y="0" flags="0x0"/>
      <component glyphName="uni0302" x="241" y="177" flags="0x4"/>
    </TTGlyph>
    <TTGlyph name="Ydieresis" xMin="1" yMin="-2" xMax="482" yMax="879">
      <component glyphName="Y" x="0" y="0" flags="0x0"/>
      <component glyphName="uni0308" x="243" y="177" flags="0x4"/>
    </TTGlyph>
    <TTGlyph name="Ydieresis.loclGUA" xMin="42" yMin="-9" xMax="452" yMax="879">
      <component glyphName="Y.loclGUA" x="0" y="0" flags="0x0"/>
      <component glyphName="uni0308" x="245" y="177" flags="0x4"/>
    </TTGlyph>
    <TTGlyph name="Ygrave" xMin="1" yMin="-2" xMax="482" yMax="911">
      <component glyphName="Y" x="0" y="0" flags="0x0"/>
      <component glyphName="gravecomb" x="240" y="177" flags="0x4"/>
    </TTGlyph>
    <TTGlyph name="Ygrave.loclGUA" xMin="42" yMin="-9" xMax="452" yMax="911">
      <component glyphName="Y.loclGUA" x="0" y="0" flags="0x0"/>
      <component glyphName="gravecomb" x="242" y="177" flags="0x4"/>
    </TTGlyph>
    <TTGlyph name="Z" xMin="23" yMin="0" xMax="477" yMax="700">
      <contour>
        <pt x="49" y="0" on="0"/>
        <pt x="23" y="66" on="0"/>
        <pt x="23" y="89" on="1"/>
        <pt x="23" y="97" on="0"/>
        <pt x="24" y="99" on="1"/>
        <pt x="278" y="569" on="1"/>
        <pt x="73" y="569" on="1"/>
        <pt x="58" y="569" on="0"/>
        <pt x="45" y="593" on="0"/>
        <pt x="45" y="619" on="1"/>
        <pt x="45" y="650" on="1"/>
        <pt x="45" y="676" on="0"/>
        <pt x="58" y="700" on="0"/>
        <pt x="73" y="700" on="1"/>
        <pt x="438" y="700" on="1"/>
        <pt x="450" y="700" on="0"/>
        <pt x="475" y="631" on="0"/>
        <pt x="475" y="608" on="1"/>
        <pt x="475" y="605" on="0"/>
        <pt x="477" y="602" on="0"/>
        <pt x="476" y="600" on="1"/>
        <pt x="223" y="131" on="1"/>
        <pt x="448" y="131" on="1"/>
        <pt x="463" y="131" on="0"/>
        <pt x="477" y="107" on="0"/>
        <pt x="477" y="81" on="1"/>
        <pt x="477" y="50" on="1"/>
        <pt x="477" y="24" on="0"/>
        <pt x="463" y="0" on="0"/>
        <pt x="448" y="0" on="1"/>
        <pt x="62" y="0" on="1"/>
      </contour>
    </TTGlyph>
    <TTGlyph name="Zacute" xMin="23" yMin="0" xMax="477" yMax="911">
      <component glyphName="Z" x="0" y="0" flags="0x0"/>
      <component glyphName="acutecomb" x="256" y="177" flags="0x4"/>
    </TTGlyph>
    <TTGlyph name="Zacute.loclPLK" xMin="23" yMin="0" xMax="477" yMax="911">
      <component glyphName="Z" x="0" y="0" flags="0x0"/>
      <component glyphName="acute.loclPLK" x="170" y="177" flags="0x4"/>
    </TTGlyph>
    <TTGlyph name="Zcaron" xMin="23" yMin="0" xMax="477" yMax="895">
      <component glyphName="Z" x="0" y="0" flags="0x0"/>
      <component glyphName="uni030C" x="247" y="177" flags="0x4"/>
    </TTGlyph>
    <TTGlyph name="Zdotaccent" xMin="23" yMin="0" xMax="477" yMax="879">
      <component glyphName="Z" x="0" y="0" flags="0x0"/>
      <component glyphName="uni0307" x="255" y="177" flags="0x4"/>
    </TTGlyph>
    <TTGlyph name="a" xMin="38" yMin="-8" xMax="431" yMax="531">
      <contour>
        <pt x="109" y="-8" on="0"/>
        <pt x="38" y="76" on="0"/>
        <pt x="38" y="149" on="1"/>
        <pt x="38" y="336" on="0"/>
        <pt x="271" y="335" on="1"/>
        <pt x="271" y="351" on="1"/>
        <pt x="271" y="383" on="0"/>
        <pt x="242" y="414" on="0"/>
        <pt x="210" y="414" on="1"/>
        <pt x="188" y="414" on="0"/>
        <pt x="154" y="403" on="0"/>
        <pt x="133" y="393" on="1"/>
        <pt x="119" y="385" on="0"/>
        <pt x="112" y="385" on="1"/>
        <pt x="102" y="385" on="0"/>
        <pt x="78" y="415" on="0"/>
        <pt x="60" y="454" on="0"/>
        <pt x="60" y="465" on="1"/>
        <pt x="60" y="482" on="0"/>
        <pt x="107" y="513" on="0"/>
        <pt x="182" y="531" on="0"/>
        <pt x="221" y="531" on="1"/>
        <pt x="325" y="531" on="0"/>
        <pt x="419" y="439" on="0"/>
        <pt x="419" y="358" on="1"/>
        <pt x="419" y="176" on="1"/>
        <pt x="419" y="130" on="0"/>
        <pt x="424" y="82" on="0"/>
        <pt x="428" y="53" on="1"/>
        <pt x="431" y="40" on="0"/>
        <pt x="431" y="31" on="1"/>
        <pt x="431" y="15" on="0"/>
        <pt x="350" y="-1" on="0"/>
        <pt x="319" y="-1" on="1"/>
        <pt x="303" y="-1" on="0"/>
        <pt x="290" y="23" on="0"/>
        <pt x="283" y="50" on="1"/>
        <pt x="270" y="28" on="0"/>
        <pt x="214" y="-8" on="0"/>
        <pt x="175" y="-8" on="1"/>
      </contour>
      <contour>
        <pt x="236" y="99" on="0"/>
        <pt x="263" y="117" on="0"/>
        <pt x="271" y="132" on="1"/>
        <pt x="271" y="249" on="1"/>
        <pt x="171" y="249" on="0"/>
        <pt x="171" y="160" on="1"/>
        <pt x="171" y="132" on="0"/>
        <pt x="197" y="99" on="0"/>
        <pt x="220" y="99" on="1"/>
      </contour>
    </TTGlyph>
    <TTGlyph name="aacute" xMin="38" yMin="-8" xMax="431" yMax="734">
      <component glyphName="a" x="0" y="0" flags="0x0"/>
      <component glyphName="acutecomb" x="235" y="0" flags="0x0"/>
    </TTGlyph>
    <TTGlyph name="abreve" xMin="38" yMin="-8" xMax="431" yMax="715">
      <component glyphName="a" x="0" y="0" flags="0x0"/>
      <component glyphName="uni0306" x="235" y="0" flags="0x0"/>
    </TTGlyph>
    <TTGlyph name="acircumflex" xMin="38" yMin="-8" xMax="431" yMax="718">
      <component glyphName="a" x="0" y="0" flags="0x0"/>
      <component glyphName="uni0302" x="232" y="0" flags="0x0"/>
    </TTGlyph>
    <TTGlyph name="acute" xMin="33" yMin="575" xMax="222" yMax="734">
      <contour>
        <pt x="45" y="575" on="0"/>
        <pt x="33" y="582" on="0"/>
        <pt x="33" y="590" on="1"/>
        <pt x="33" y="596" on="0"/>
        <pt x="46" y="624" on="0"/>
        <pt x="58" y="646" on="1"/>
        <pt x="89" y="707" on="1"/>
        <pt x="103" y="734" on="0"/>
        <pt x="168" y="734" on="1"/>
        <pt x="196" y="734" on="0"/>
        <pt x="222" y="728" on="0"/>
        <pt x="222" y="720" on="1"/>
        <pt x="222" y="714" on="0"/>
        <pt x="208" y="694" on="0"/>
        <pt x="190" y="672" on="1"/>
        <pt x="181" y="660" on="0"/>
        <pt x="154" y="626" on="0"/>
        <pt x="134" y="600" on="1"/>
        <pt x="125" y="588" on="0"/>
        <pt x="95" y="575" on="0"/>
        <pt x="62" y="575" on="1"/>
      </contour>
    </TTGlyph>
    <TTGlyph name="acute.loclPLK" xMin="38" yMin="575" xMax="203" yMax="734">
      <contour>
        <pt x="50" y="575" on="0"/>
        <pt x="38" y="582" on="0"/>
        <pt x="38" y="590" on="1"/>
        <pt x="38" y="603" on="0"/>
        <pt x="70" y="707" on="1"/>
        <pt x="77" y="734" on="0"/>
        <pt x="149" y="734" on="1"/>
        <pt x="177" y="734" on="0"/>
        <pt x="203" y="728" on="0"/>
        <pt x="203" y="720" on="1"/>
        <pt x="203" y="714" on="0"/>
        <pt x="186" y="682" on="0"/>
        <pt x="171" y="656" on="1"/>
        <pt x="139" y="600" on="1"/>
        <pt x="132" y="588" on="0"/>
        <pt x="101" y="575" on="0"/>
        <pt x="67" y="575" on="1"/>
      </contour>
    </TTGlyph>
    <TTGlyph name="acutecomb" xMin="-50" yMin="575" xMax="139" yMax="734">
      <contour>
        <pt x="-38" y="575" on="0"/>
        <pt x="-50" y="582" on="0"/>
        <pt x="-50" y="590" on="1"/>
        <pt x="-50" y="596" on="0"/>
        <pt x="-37" y="624" on="0"/>
        <pt x="-25" y="646" on="1"/>
        <pt x="6" y="707" on="1"/>
        <pt x="20" y="734" on="0"/>
        <pt x="85" y="734" on="1"/>
        <pt x="113" y="734" on="0"/>
        <pt x="139" y="728" on="0"/>
        <pt x="139" y="720" on="1"/>
        <pt x="139" y="714" on="0"/>
        <pt x="125" y="694" on="0"/>
        <pt x="107" y="672" on="1"/>
        <pt x="98" y="660" on="0"/>
        <pt x="71" y="626" on="0"/>
        <pt x="51" y="600" on="1"/>
        <pt x="42" y="588" on="0"/>
        <pt x="12" y="575" on="0"/>
        <pt x="-21" y="575" on="1"/>
      </contour>
    </TTGlyph>
    <TTGlyph name="adieresis" xMin="38" yMin="-8" xMax="431" yMax="702">
      <component glyphName="a" x="0" y="0" flags="0x0"/>
      <component glyphName="uni0308" x="236" y="0" flags="0x0"/>
    </TTGlyph>
    <TTGlyph name="ae" xMin="38" yMin="-8" xMax="662" yMax="531">
      <contour>
        <pt x="116" y="-8" on="0"/>
        <pt x="38" y="76" on="0"/>
        <pt x="38" y="149" on="1"/>
        <pt x="38" y="336" on="0"/>
        <pt x="272" y="335" on="1"/>
        <pt x="275" y="358" on="0"/>
        <pt x="281" y="378" on="1"/>
        <pt x="267" y="414" on="0"/>
        <pt x="212" y="414" on="1"/>
        <pt x="191" y="414" on="0"/>
        <pt x="160" y="404" on="0"/>
        <pt x="136" y="394" on="1"/>
        <pt x="118" y="385" on="0"/>
        <pt x="112" y="385" on="1"/>
        <pt x="102" y="385" on="0"/>
        <pt x="77" y="415" on="0"/>
        <pt x="60" y="454" on="0"/>
        <pt x="60" y="465" on="1"/>
        <pt x="60" y="482" on="0"/>
        <pt x="107" y="513" on="0"/>
        <pt x="183" y="531" on="0"/>
        <pt x="225" y="531" on="1"/>
        <pt x="266" y="531" on="0"/>
        <pt x="335" y="514" on="0"/>
        <pt x="357" y="500" on="1"/>
        <pt x="402" y="531" on="0"/>
        <pt x="474" y="531" on="1"/>
        <pt x="574" y="531" on="0"/>
        <pt x="662" y="397" on="0"/>
        <pt x="662" y="266" on="1"/>
        <pt x="662" y="254" on="0"/>
        <pt x="621" y="207" on="0"/>
        <pt x="611" y="207" on="1"/>
        <pt x="422" y="207" on="1"/>
        <pt x="422" y="155" on="0"/>
        <pt x="466" y="109" on="0"/>
        <pt x="501" y="109" on="1"/>
        <pt x="522" y="109" on="0"/>
        <pt x="557" y="121" on="0"/>
        <pt x="577" y="130" on="1"/>
        <pt x="593" y="138" on="0"/>
        <pt x="598" y="138" on="1"/>
        <pt x="612" y="138" on="0"/>
        <pt x="649" y="80" on="0"/>
        <pt x="649" y="61" on="1"/>
        <pt x="649" y="40" on="0"/>
        <pt x="597" y="9" on="0"/>
        <pt x="522" y="-8" on="0"/>
        <pt x="489" y="-8" on="1"/>
        <pt x="388" y="-8" on="0"/>
        <pt x="329" y="51" on="1"/>
        <pt x="311" y="26" on="0"/>
        <pt x="234" y="-8" on="0"/>
        <pt x="188" y="-8" on="1"/>
      </contour>
      <contour>
        <pt x="520" y="306" on="1"/>
        <pt x="520" y="365" on="0"/>
        <pt x="499" y="414" on="0"/>
        <pt x="475" y="414" on="1"/>
        <pt x="451" y="414" on="0"/>
        <pt x="422" y="368" on="0"/>
        <pt x="419" y="306" on="1"/>
      </contour>
      <contour>
        <pt x="238" y="109" on="0"/>
        <pt x="271" y="126" on="0"/>
        <pt x="281" y="142" on="1"/>
        <pt x="270" y="182" on="0"/>
        <pt x="268" y="238" on="1"/>
        <pt x="179" y="238" on="0"/>
        <pt x="179" y="160" on="1"/>
        <pt x="179" y="137" on="0"/>
        <pt x="200" y="109" on="0"/>
        <pt x="220" y="109" on="1"/>
      </contour>
    </TTGlyph>
    <TTGlyph name="aeacute" xMin="38" yMin="-8" xMax="662" yMax="734">
      <component glyphName="ae" x="0" y="0" flags="0x0"/>
      <component glyphName="acutecomb" x="338" y="0" flags="0x0"/>
    </TTGlyph>
    <TTGlyph name="agrave" xMin="38" yMin="-8" xMax="431" yMax="734">
      <component glyphName="a" x="0" y="0" flags="0x0"/>
      <component glyphName="gravecomb" x="233" y="0" flags="0x0"/>
    </TTGlyph>
    <TTGlyph name="amacron" xMin="38" yMin="-8" xMax="431" yMax="692">
      <component glyphName="a" x="0" y="0" flags="0x0"/>
      <component glyphName="uni0304" x="233" y="0" flags="0x0"/>
    </TTGlyph>
    <TTGlyph name="ampersand" xMin="5" yMin="-8" xMax="520" yMax="708">
      <contour>
        <pt x="503" y="113" on="0"/>
        <pt x="520" y="54" on="0"/>
        <pt x="520" y="41" on="1"/>
        <pt x="520" y="-8" on="0"/>
        <pt x="432" y="-8" on="1"/>
        <pt x="398" y="-8" on="0"/>
        <pt x="356" y="11" on="0"/>
        <pt x="341" y="32" on="1"/>
        <pt x="296" y="9" on="0"/>
        <pt x="234" y="-8" on="0"/>
        <pt x="188" y="-8" on="1"/>
        <pt x="97" y="-8" on="0"/>
        <pt x="5" y="102" on="0"/>
        <pt x="5" y="204" on="1"/>
        <pt x="5" y="273" on="0"/>
        <pt x="42" y="362" on="0"/>
        <pt x="93" y="383" on="1"/>
        <pt x="93" y="387" on="1"/>
        <pt x="59" y="405" on="0"/>
        <pt x="23" y="481" on="0"/>
        <pt x="23" y="533" on="1"/>
        <pt x="23" y="614" on="0"/>
        <pt x="111" y="708" on="0"/>
        <pt x="189" y="708" on="1"/>
        <pt x="225" y="708" on="0"/>
        <pt x="289" y="685" on="0"/>
        <pt x="289" y="666" on="1"/>
        <pt x="289" y="632" on="0"/>
        <pt x="267" y="584" on="0"/>
        <pt x="255" y="584" on="1"/>
        <pt x="252" y="584" on="0"/>
        <pt x="229" y="591" on="0"/>
        <pt x="219" y="591" on="1"/>
        <pt x="198" y="591" on="0"/>
        <pt x="176" y="547" on="0"/>
        <pt x="176" y="509" on="1"/>
        <pt x="176" y="472" on="0"/>
        <pt x="215" y="426" on="0"/>
        <pt x="243" y="426" on="1"/>
        <pt x="306" y="426" on="1"/>
        <pt x="318" y="521" on="1"/>
        <pt x="321" y="553" on="0"/>
        <pt x="372" y="553" on="1"/>
        <pt x="407" y="553" on="1"/>
        <pt x="457" y="553" on="0"/>
        <pt x="457" y="521" on="1"/>
        <pt x="457" y="426" on="1"/>
        <pt x="479" y="426" on="1"/>
        <pt x="494" y="426" on="0"/>
        <pt x="508" y="402" on="0"/>
        <pt x="508" y="376" on="1"/>
        <pt x="508" y="359" on="1"/>
        <pt x="508" y="333" on="0"/>
        <pt x="494" y="309" on="0"/>
        <pt x="479" y="309" on="1"/>
        <pt x="457" y="309" on="1"/>
        <pt x="457" y="152" on="1"/>
        <pt x="457" y="127" on="0"/>
        <pt x="462" y="109" on="0"/>
        <pt x="473" y="109" on="1"/>
        <pt x="478" y="109" on="0"/>
        <pt x="488" y="113" on="0"/>
        <pt x="491" y="113" on="1"/>
      </contour>
      <contour>
        <pt x="156" y="156" on="0"/>
        <pt x="180" y="109" on="0"/>
        <pt x="213" y="109" on="1"/>
        <pt x="235" y="109" on="0"/>
        <pt x="275" y="119" on="0"/>
        <pt x="306" y="133" on="1"/>
        <pt x="306" y="309" on="1"/>
        <pt x="233" y="309" on="1"/>
        <pt x="188" y="309" on="0"/>
        <pt x="156" y="260" on="0"/>
        <pt x="156" y="206" on="1"/>
      </contour>
    </TTGlyph>
    <TTGlyph name="aogonek" xMin="38" yMin="-156" xMax="517" yMax="531">
      <contour>
        <pt x="503" y="-83" on="0"/>
        <pt x="517" y="-96" on="0"/>
        <pt x="517" y="-113" on="1"/>
        <pt x="517" y="-134" on="0"/>
        <pt x="500" y="-144" on="1"/>
        <pt x="474" y="-156" on="0"/>
        <pt x="444" y="-156" on="1"/>
        <pt x="387" y="-156" on="0"/>
        <pt x="347" y="-96" on="0"/>
        <pt x="347" y="-62" on="1"/>
        <pt x="347" y="-33" on="0"/>
        <pt x="359" y="2" on="1"/>
        <pt x="334" y="-1" on="0"/>
        <pt x="319" y="-1" on="1"/>
        <pt x="303" y="-1" on="0"/>
        <pt x="290" y="23" on="0"/>
        <pt x="283" y="50" on="1"/>
        <pt x="270" y="28" on="0"/>
        <pt x="214" y="-8" on="0"/>
        <pt x="175" y="-8" on="1"/>
        <pt x="109" y="-8" on="0"/>
        <pt x="38" y="76" on="0"/>
        <pt x="38" y="149" on="1"/>
        <pt x="38" y="336" on="0"/>
        <pt x="271" y="335" on="1"/>
        <pt x="271" y="351" on="1"/>
        <pt x="271" y="383" on="0"/>
        <pt x="242" y="414" on="0"/>
        <pt x="210" y="414" on="1"/>
        <pt x="188" y="414" on="0"/>
        <pt x="154" y="403" on="0"/>
        <pt x="133" y="393" on="1"/>
        <pt x="119" y="385" on="0"/>
        <pt x="112" y="385" on="1"/>
        <pt x="102" y="385" on="0"/>
        <pt x="78" y="415" on="0"/>
        <pt x="60" y="454" on="0"/>
        <pt x="60" y="465" on="1"/>
        <pt x="60" y="482" on="0"/>
        <pt x="107" y="513" on="0"/>
        <pt x="182" y="531" on="0"/>
        <pt x="221" y="531" on="1"/>
        <pt x="325" y="531" on="0"/>
        <pt x="419" y="439" on="0"/>
        <pt x="419" y="358" on="1"/>
        <pt x="419" y="176" on="1"/>
        <pt x="419" y="130" on="0"/>
        <pt x="424" y="82" on="0"/>
        <pt x="428" y="53" on="1"/>
        <pt x="431" y="40" on="0"/>
        <pt x="431" y="31" on="1"/>
        <pt x="431" y="28" on="0"/>
        <pt x="428" y="23" on="1"/>
        <pt x="414" y="-9" on="0"/>
        <pt x="414" y="-43" on="1"/>
        <pt x="414" y="-87" on="0"/>
        <pt x="463" y="-87" on="1"/>
        <pt x="471" y="-87" on="0"/>
        <pt x="483" y="-83" on="0"/>
        <pt x="487" y="-83" on="1"/>
      </contour>
      <contour>
        <pt x="271" y="249" on="1"/>
        <pt x="171" y="249" on="0"/>
        <pt x="171" y="160" on="1"/>
        <pt x="171" y="132" on="0"/>
        <pt x="197" y="99" on="0"/>
        <pt x="220" y="99" on="1"/>
        <pt x="236" y="99" on="0"/>
        <pt x="263" y="117" on="0"/>
        <pt x="271" y="132" on="1"/>
      </contour>
    </TTGlyph>
    <TTGlyph name="approxequal" xMin="43" yMin="85" xMax="401" yMax="395">
      <contour>
        <pt x="68" y="280" on="1"/>
        <pt x="43" y="290" on="0"/>
        <pt x="43" y="304" on="1"/>
        <pt x="43" y="308" on="0"/>
        <pt x="45" y="316" on="1"/>
        <pt x="51" y="348" on="0"/>
        <pt x="114" y="391" on="0"/>
        <pt x="160" y="391" on="1"/>
        <pt x="170" y="391" on="0"/>
        <pt x="220" y="377" on="1"/>
        <pt x="226" y="375" on="0"/>
        <pt x="277" y="362" on="0"/>
        <pt x="288" y="362" on="1"/>
        <pt x="304" y="362" on="0"/>
        <pt x="325" y="366" on="0"/>
        <pt x="333" y="378" on="1"/>
        <pt x="345" y="395" on="0"/>
        <pt x="357" y="395" on="1"/>
        <pt x="364" y="395" on="0"/>
        <pt x="368" y="393" on="1"/>
        <pt x="377" y="390" on="1"/>
        <pt x="401" y="382" on="0"/>
        <pt x="401" y="367" on="1"/>
        <pt x="400" y="354" on="1"/>
        <pt x="393" y="322" on="0"/>
        <pt x="331" y="279" on="0"/>
        <pt x="284" y="279" on="1"/>
        <pt x="273" y="279" on="0"/>
        <pt x="228" y="292" on="1"/>
        <pt x="172" y="308" on="0"/>
        <pt x="157" y="308" on="1"/>
        <pt x="155" y="308" on="0"/>
        <pt x="136" y="309" on="0"/>
        <pt x="117" y="301" on="0"/>
        <pt x="111" y="292" on="1"/>
        <pt x="99" y="275" on="0"/>
        <pt x="86" y="275" on="1"/>
        <pt x="84" y="275" on="0"/>
        <pt x="76" y="277" on="1"/>
      </contour>
      <contour>
        <pt x="68" y="90" on="1"/>
        <pt x="43" y="100" on="0"/>
        <pt x="43" y="114" on="1"/>
        <pt x="43" y="118" on="0"/>
        <pt x="45" y="126" on="1"/>
        <pt x="51" y="158" on="0"/>
        <pt x="114" y="201" on="0"/>
        <pt x="160" y="201" on="1"/>
        <pt x="170" y="201" on="0"/>
        <pt x="220" y="187" on="1"/>
        <pt x="226" y="185" on="0"/>
        <pt x="277" y="172" on="0"/>
        <pt x="288" y="172" on="1"/>
        <pt x="304" y="172" on="0"/>
        <pt x="325" y="176" on="0"/>
        <pt x="333" y="188" on="1"/>
        <pt x="345" y="205" on="0"/>
        <pt x="357" y="205" on="1"/>
        <pt x="364" y="205" on="0"/>
        <pt x="368" y="203" on="1"/>
        <pt x="377" y="200" on="1"/>
        <pt x="401" y="192" on="0"/>
        <pt x="401" y="177" on="1"/>
        <pt x="400" y="164" on="1"/>
        <pt x="393" y="132" on="0"/>
        <pt x="331" y="89" on="0"/>
        <pt x="284" y="89" on="1"/>
        <pt x="273" y="89" on="0"/>
        <pt x="228" y="102" on="1"/>
        <pt x="172" y="118" on="0"/>
        <pt x="157" y="118" on="1"/>
        <pt x="155" y="118" on="0"/>
        <pt x="136" y="119" on="0"/>
        <pt x="117" y="111" on="0"/>
        <pt x="111" y="102" on="1"/>
        <pt x="99" y="85" on="0"/>
        <pt x="86" y="85" on="1"/>
        <pt x="84" y="85" on="0"/>
        <pt x="76" y="87" on="1"/>
      </contour>
    </TTGlyph>
    <TTGlyph name="aring" xMin="38" yMin="-8" xMax="431" yMax="749">
      <component glyphName="a" x="0" y="0" flags="0x0"/>
      <component glyphName="uni030A" x="234" y="0" flags="0x0"/>
    </TTGlyph>
    <TTGlyph name="aringacute" xMin="38" yMin="-8" xMax="431" yMax="929">
      <component glyphName="a" x="0" y="0" flags="0x0"/>
      <component glyphName="uni030A" x="234" y="0" flags="0x0"/>
      <component glyphName="acutecomb" x="235" y="195" flags="0x4"/>
    </TTGlyph>
    <TTGlyph name="arrowdown" xMin="6" yMin="17" xMax="500" yMax="706">
      <contour>
        <pt x="242" y="17" on="0"/>
        <pt x="235" y="24" on="1"/>
        <pt x="27" y="233" on="1"/>
        <pt x="6" y="254" on="0"/>
        <pt x="6" y="284" on="1"/>
        <pt x="6" y="370" on="1"/>
        <pt x="6" y="389" on="0"/>
        <pt x="13" y="389" on="1"/>
        <pt x="17" y="389" on="0"/>
        <pt x="27" y="379" on="1"/>
        <pt x="199" y="204" on="1"/>
        <pt x="199" y="674" on="1"/>
        <pt x="199" y="706" on="0"/>
        <pt x="243" y="706" on="1"/>
        <pt x="262" y="706" on="1"/>
        <pt x="306" y="706" on="0"/>
        <pt x="306" y="674" on="1"/>
        <pt x="306" y="204" on="1"/>
        <pt x="479" y="380" on="1"/>
        <pt x="489" y="390" on="0"/>
        <pt x="493" y="390" on="1"/>
        <pt x="500" y="390" on="0"/>
        <pt x="500" y="371" on="1"/>
        <pt x="500" y="285" on="1"/>
        <pt x="500" y="255" on="0"/>
        <pt x="479" y="234" on="1"/>
        <pt x="271" y="24" on="1"/>
        <pt x="264" y="17" on="0"/>
        <pt x="253" y="17" on="1"/>
      </contour>
    </TTGlyph>
    <TTGlyph name="arrowleft" xMin="1" yMin="-1" xMax="586" yMax="527">
      <contour>
        <pt x="230" y="-1" on="0"/>
        <pt x="206" y="9" on="0"/>
        <pt x="197" y="21" on="1"/>
        <pt x="8" y="246" on="1"/>
        <pt x="1" y="255" on="0"/>
        <pt x="1" y="264" on="1"/>
        <pt x="1" y="272" on="0"/>
        <pt x="8" y="282" on="1"/>
        <pt x="196" y="505" on="1"/>
        <pt x="206" y="517" on="0"/>
        <pt x="229" y="527" on="0"/>
        <pt x="247" y="527" on="1"/>
        <pt x="304" y="527" on="1"/>
        <pt x="335" y="527" on="0"/>
        <pt x="335" y="517" on="1"/>
        <pt x="335" y="510" on="0"/>
        <pt x="318" y="489" on="1"/>
        <pt x="171" y="317" on="1"/>
        <pt x="554" y="317" on="1"/>
        <pt x="586" y="317" on="0"/>
        <pt x="586" y="273" on="1"/>
        <pt x="586" y="254" on="1"/>
        <pt x="586" y="210" on="0"/>
        <pt x="554" y="210" on="1"/>
        <pt x="170" y="210" on="1"/>
        <pt x="320" y="36" on="1"/>
        <pt x="336" y="16" on="0"/>
        <pt x="336" y="9" on="1"/>
        <pt x="336" y="3" on="0"/>
        <pt x="322" y="-1" on="0"/>
        <pt x="305" y="-1" on="1"/>
        <pt x="248" y="-1" on="1"/>
      </contour>
    </TTGlyph>
    <TTGlyph name="arrowright" xMin="14" yMin="-1" xMax="599" yMax="527">
      <contour>
        <pt x="279" y="-1" on="0"/>
        <pt x="265" y="3" on="0"/>
        <pt x="265" y="9" on="1"/>
        <pt x="265" y="17" on="0"/>
        <pt x="280" y="36" on="1"/>
        <pt x="430" y="210" on="1"/>
        <pt x="46" y="210" on="1"/>
        <pt x="14" y="210" on="0"/>
        <pt x="14" y="254" on="1"/>
        <pt x="14" y="273" on="1"/>
        <pt x="14" y="317" on="0"/>
        <pt x="46" y="317" on="1"/>
        <pt x="429" y="317" on="1"/>
        <pt x="282" y="489" on="1"/>
        <pt x="265" y="510" on="0"/>
        <pt x="265" y="517" on="1"/>
        <pt x="265" y="527" on="0"/>
        <pt x="296" y="527" on="1"/>
        <pt x="353" y="527" on="1"/>
        <pt x="371" y="527" on="0"/>
        <pt x="394" y="517" on="0"/>
        <pt x="404" y="505" on="1"/>
        <pt x="592" y="282" on="1"/>
        <pt x="599" y="274" on="0"/>
        <pt x="599" y="264" on="1"/>
        <pt x="599" y="253" on="0"/>
        <pt x="592" y="246" on="1"/>
        <pt x="404" y="21" on="1"/>
        <pt x="394" y="9" on="0"/>
        <pt x="371" y="-1" on="0"/>
        <pt x="353" y="-1" on="1"/>
        <pt x="296" y="-1" on="1"/>
      </contour>
    </TTGlyph>
    <TTGlyph name="arrowup" xMin="5" yMin="-2" xMax="499" yMax="709">
      <contour>
        <pt x="199" y="-2" on="0"/>
        <pt x="199" y="30" on="1"/>
        <pt x="199" y="523" on="1"/>
        <pt x="26" y="346" on="1"/>
        <pt x="16" y="336" on="0"/>
        <pt x="12" y="336" on="1"/>
        <pt x="5" y="336" on="0"/>
        <pt x="5" y="355" on="1"/>
        <pt x="5" y="441" on="1"/>
        <pt x="5" y="471" on="0"/>
        <pt x="26" y="492" on="1"/>
        <pt x="234" y="702" on="1"/>
        <pt x="241" y="709" on="0"/>
        <pt x="252" y="709" on="1"/>
        <pt x="263" y="709" on="0"/>
        <pt x="270" y="702" on="1"/>
        <pt x="478" y="493" on="1"/>
        <pt x="499" y="472" on="0"/>
        <pt x="499" y="442" on="1"/>
        <pt x="499" y="355" on="1"/>
        <pt x="499" y="336" on="0"/>
        <pt x="492" y="336" on="1"/>
        <pt x="488" y="336" on="0"/>
        <pt x="478" y="346" on="1"/>
        <pt x="306" y="522" on="1"/>
        <pt x="306" y="30" on="1"/>
        <pt x="306" y="-2" on="0"/>
        <pt x="262" y="-2" on="1"/>
        <pt x="243" y="-2" on="1"/>
      </contour>
    </TTGlyph>
    <TTGlyph name="asciicircum" xMin="19" yMin="318" xMax="342" yMax="686">
      <contour>
        <pt x="19" y="318" on="0"/>
        <pt x="19" y="333" on="1"/>
        <pt x="19" y="339" on="0"/>
        <pt x="22" y="348" on="1"/>
        <pt x="128" y="656" on="1"/>
        <pt x="138" y="686" on="0"/>
        <pt x="165" y="686" on="1"/>
        <pt x="196" y="686" on="1"/>
        <pt x="223" y="686" on="0"/>
        <pt x="233" y="656" on="1"/>
        <pt x="339" y="348" on="1"/>
        <pt x="342" y="339" on="0"/>
        <pt x="342" y="333" on="1"/>
        <pt x="342" y="318" on="0"/>
        <pt x="314" y="318" on="1"/>
        <pt x="289" y="318" on="1"/>
        <pt x="250" y="318" on="0"/>
        <pt x="240" y="348" on="1"/>
        <pt x="180" y="555" on="1"/>
        <pt x="120" y="348" on="1"/>
        <pt x="111" y="318" on="0"/>
        <pt x="73" y="318" on="1"/>
        <pt x="47" y="318" on="1"/>
      </contour>
    </TTGlyph>
    <TTGlyph name="asciitilde" xMin="35" yMin="213" xMax="401" yMax="333">
      <contour>
        <pt x="62" y="218" on="1"/>
        <pt x="48" y="221" on="0"/>
        <pt x="35" y="236" on="0"/>
        <pt x="35" y="244" on="1"/>
        <pt x="35" y="251" on="0"/>
        <pt x="40" y="260" on="1"/>
        <pt x="53" y="290" on="0"/>
        <pt x="108" y="329" on="0"/>
        <pt x="146" y="329" on="1"/>
        <pt x="170" y="329" on="0"/>
        <pt x="224" y="313" on="1"/>
        <pt x="232" y="311" on="0"/>
        <pt x="271" y="300" on="0"/>
        <pt x="283" y="300" on="1"/>
        <pt x="291" y="300" on="0"/>
        <pt x="304" y="306" on="0"/>
        <pt x="313" y="316" on="1"/>
        <pt x="328" y="333" on="0"/>
        <pt x="346" y="333" on="1"/>
        <pt x="352" y="333" on="0"/>
        <pt x="362" y="331" on="1"/>
        <pt x="375" y="328" on="1"/>
        <pt x="401" y="321" on="0"/>
        <pt x="401" y="302" on="1"/>
        <pt x="401" y="299" on="0"/>
        <pt x="398" y="287" on="1"/>
        <pt x="385" y="257" on="0"/>
        <pt x="328" y="217" on="0"/>
        <pt x="291" y="217" on="1"/>
        <pt x="268" y="217" on="0"/>
        <pt x="214" y="233" on="1"/>
        <pt x="206" y="235" on="0"/>
        <pt x="165" y="246" on="0"/>
        <pt x="153" y="246" on="1"/>
        <pt x="137" y="246" on="0"/>
        <pt x="123" y="230" on="1"/>
        <pt x="108" y="213" on="0"/>
        <pt x="91" y="213" on="1"/>
        <pt x="85" y="213" on="0"/>
        <pt x="75" y="215" on="1"/>
      </contour>
    </TTGlyph>
    <TTGlyph name="asterisk" xMin="16" yMin="412" xMax="278" yMax="708">
      <contour>
        <pt x="68" y="412" on="0"/>
        <pt x="45" y="429" on="0"/>
        <pt x="45" y="438" on="1"/>
        <pt x="45" y="441" on="1"/>
        <pt x="45" y="449" on="0"/>
        <pt x="54" y="462" on="1"/>
        <pt x="101" y="540" on="1"/>
        <pt x="38" y="564" on="1"/>
        <pt x="27" y="569" on="0"/>
        <pt x="16" y="579" on="0"/>
        <pt x="16" y="587" on="1"/>
        <pt x="16" y="600" on="0"/>
        <pt x="30" y="624" on="0"/>
        <pt x="44" y="624" on="1"/>
        <pt x="53" y="624" on="0"/>
        <pt x="60" y="621" on="1"/>
        <pt x="117" y="600" on="1"/>
        <pt x="117" y="678" on="1"/>
        <pt x="117" y="694" on="0"/>
        <pt x="131" y="708" on="0"/>
        <pt x="147" y="708" on="1"/>
        <pt x="163" y="708" on="0"/>
        <pt x="177" y="694" on="0"/>
        <pt x="177" y="678" on="1"/>
        <pt x="177" y="600" on="1"/>
        <pt x="233" y="621" on="1"/>
        <pt x="241" y="624" on="0"/>
        <pt x="249" y="624" on="1"/>
        <pt x="262" y="624" on="0"/>
        <pt x="278" y="601" on="0"/>
        <pt x="278" y="587" on="1"/>
        <pt x="278" y="579" on="0"/>
        <pt x="267" y="569" on="0"/>
        <pt x="256" y="564" on="1"/>
        <pt x="192" y="540" on="1"/>
        <pt x="240" y="462" on="1"/>
        <pt x="249" y="449" on="0"/>
        <pt x="249" y="438" on="1"/>
        <pt x="248" y="429" on="0"/>
        <pt x="225" y="412" on="0"/>
        <pt x="215" y="412" on="1"/>
        <pt x="202" y="414" on="0"/>
        <pt x="192" y="429" on="1"/>
        <pt x="147" y="501" on="1"/>
        <pt x="102" y="429" on="1"/>
        <pt x="93" y="414" on="0"/>
        <pt x="79" y="412" on="1"/>
      </contour>
    </TTGlyph>
    <TTGlyph name="at" xMin="55" yMin="-123" xMax="727" yMax="708">
      <contour>
        <pt x="526" y="708" on="0"/>
        <pt x="656" y="627" on="0"/>
        <pt x="727" y="480" on="0"/>
        <pt x="727" y="383" on="1"/>
        <pt x="727" y="294" on="0"/>
        <pt x="671" y="145" on="0"/>
        <pt x="573" y="58" on="0"/>
        <pt x="513" y="58" on="1"/>
        <pt x="476" y="58" on="0"/>
        <pt x="425" y="91" on="0"/>
        <pt x="415" y="118" on="1"/>
        <pt x="401" y="91" on="0"/>
        <pt x="351" y="58" on="0"/>
        <pt x="320" y="58" on="1"/>
        <pt x="269" y="58" on="0"/>
        <pt x="209" y="152" on="0"/>
        <pt x="209" y="239" on="1"/>
        <pt x="209" y="318" on="0"/>
        <pt x="249" y="441" on="0"/>
        <pt x="319" y="508" on="0"/>
        <pt x="365" y="508" on="1"/>
        <pt x="391" y="508" on="0"/>
        <pt x="434" y="483" on="0"/>
        <pt x="449" y="466" on="1"/>
        <pt x="455" y="488" on="0"/>
        <pt x="474" y="503" on="0"/>
        <pt x="499" y="503" on="1"/>
        <pt x="511" y="503" on="1"/>
        <pt x="558" y="503" on="0"/>
        <pt x="558" y="479" on="1"/>
        <pt x="549" y="382" on="1"/>
        <pt x="546" y="346" on="0"/>
        <pt x="532" y="186" on="0"/>
        <pt x="532" y="174" on="1"/>
        <pt x="532" y="159" on="0"/>
        <pt x="546" y="141" on="0"/>
        <pt x="560" y="141" on="1"/>
        <pt x="587" y="141" on="0"/>
        <pt x="634" y="207" on="0"/>
        <pt x="663" y="318" on="0"/>
        <pt x="663" y="380" on="1"/>
        <pt x="663" y="463" on="0"/>
        <pt x="607" y="587" on="0"/>
        <pt x="506" y="654" on="0"/>
        <pt x="439" y="654" on="1"/>
        <pt x="351" y="654" on="0"/>
        <pt x="204" y="544" on="0"/>
        <pt x="119" y="353" on="0"/>
        <pt x="119" y="237" on="1"/>
        <pt x="119" y="147" on="0"/>
        <pt x="172" y="8" on="0"/>
        <pt x="270" y="-69" on="0"/>
        <pt x="334" y="-69" on="1"/>
        <pt x="365" y="-69" on="0"/>
        <pt x="407" y="-58" on="0"/>
        <pt x="431" y="-48" on="1"/>
        <pt x="447" y="-40" on="0"/>
        <pt x="455" y="-40" on="1"/>
        <pt x="469" y="-40" on="0"/>
        <pt x="469" y="-73" on="1"/>
        <pt x="469" y="-99" on="0"/>
        <pt x="374" y="-123" on="0"/>
        <pt x="328" y="-123" on="1"/>
        <pt x="248" y="-123" on="0"/>
        <pt x="124" y="-31" on="0"/>
        <pt x="55" y="133" on="0"/>
        <pt x="55" y="239" on="1"/>
        <pt x="55" y="369" on="0"/>
        <pt x="157" y="584" on="0"/>
        <pt x="334" y="708" on="0"/>
        <pt x="441" y="708" on="1"/>
      </contour>
      <contour>
        <pt x="416" y="314" on="0"/>
        <pt x="429" y="392" on="1"/>
        <pt x="413" y="410" on="0"/>
        <pt x="395" y="410" on="1"/>
        <pt x="366" y="410" on="0"/>
        <pt x="334" y="326" on="0"/>
        <pt x="334" y="247" on="1"/>
        <pt x="334" y="197" on="0"/>
        <pt x="351" y="159" on="0"/>
        <pt x="370" y="159" on="1"/>
        <pt x="390" y="159" on="0"/>
        <pt x="411" y="190" on="1"/>
      </contour>
    </TTGlyph>
    <TTGlyph name="atilde" xMin="38" yMin="-8" xMax="431" yMax="698">
      <component glyphName="a" x="0" y="0" flags="0x0"/>
      <component glyphName="tildecomb" x="242" y="0" flags="0x0"/>
    </TTGlyph>
    <TTGlyph name="b" xMin="50" yMin="-8" xMax="447" yMax="754">
      <contour>
        <pt x="261" y="-8" on="0"/>
        <pt x="201" y="31" on="0"/>
        <pt x="185" y="62" on="1"/>
        <pt x="177" y="24" on="1"/>
        <pt x="173" y="9" on="0"/>
        <pt x="147" y="-2" on="0"/>
        <pt x="122" y="-2" on="1"/>
        <pt x="110" y="-2" on="1"/>
        <pt x="50" y="-2" on="0"/>
        <pt x="50" y="30" on="1"/>
        <pt x="50" y="722" on="1"/>
        <pt x="50" y="754" on="0"/>
        <pt x="110" y="754" on="1"/>
        <pt x="138" y="754" on="1"/>
        <pt x="198" y="754" on="0"/>
        <pt x="198" y="722" on="1"/>
        <pt x="198" y="501" on="1"/>
        <pt x="232" y="531" on="0"/>
        <pt x="281" y="531" on="1"/>
        <pt x="360" y="531" on="0"/>
        <pt x="447" y="391" on="0"/>
        <pt x="447" y="260" on="1"/>
        <pt x="447" y="133" on="0"/>
        <pt x="364" y="-8" on="0"/>
        <pt x="295" y="-8" on="1"/>
      </contour>
      <contour>
        <pt x="273" y="113" on="0"/>
        <pt x="297" y="180" on="0"/>
        <pt x="297" y="261" on="1"/>
        <pt x="297" y="348" on="0"/>
        <pt x="270" y="414" on="0"/>
        <pt x="240" y="414" on="1"/>
        <pt x="217" y="414" on="0"/>
        <pt x="198" y="399" on="1"/>
        <pt x="198" y="147" on="1"/>
        <pt x="219" y="113" on="0"/>
        <pt x="246" y="113" on="1"/>
      </contour>
    </TTGlyph>
    <TTGlyph name="backslash" xMin="-1" yMin="-22" xMax="284" yMax="702">
      <contour>
        <pt x="168" y="-22" on="0"/>
        <pt x="161" y="9" on="1"/>
        <pt x="3" y="652" on="1"/>
        <pt x="-1" y="679" on="0"/>
        <pt x="-1" y="679" on="1"/>
        <pt x="1" y="702" on="0"/>
        <pt x="37" y="702" on="1"/>
        <pt x="73" y="702" on="1"/>
        <pt x="113" y="702" on="0"/>
        <pt x="120" y="671" on="1"/>
        <pt x="279" y="35" on="1"/>
        <pt x="284" y="3" on="0"/>
        <pt x="284" y="1" on="1"/>
        <pt x="284" y="-10" on="0"/>
        <pt x="265" y="-22" on="0"/>
        <pt x="247" y="-22" on="1"/>
        <pt x="208" y="-22" on="1"/>
      </contour>
    </TTGlyph>
    <TTGlyph name="bar" xMin="41" yMin="-138" xMax="161" yMax="768">
      <contour>
        <pt x="66" y="-138" on="0"/>
        <pt x="41" y="-124" on="0"/>
        <pt x="41" y="-108" on="1"/>
        <pt x="41" y="738" on="1"/>
        <pt x="41" y="754" on="0"/>
        <pt x="66" y="768" on="0"/>
        <pt x="94" y="768" on="1"/>
        <pt x="108" y="768" on="1"/>
        <pt x="136" y="768" on="0"/>
        <pt x="161" y="754" on="0"/>
        <pt x="161" y="738" on="1"/>
        <pt x="161" y="-108" on="1"/>
        <pt x="161" y="-124" on="0"/>
        <pt x="136" y="-138" on="0"/>
        <pt x="108" y="-138" on="1"/>
        <pt x="94" y="-138" on="1"/>
      </contour>
    </TTGlyph>
    <TTGlyph name="braceleft" xMin="12" yMin="-138" xMax="245" yMax="768">
      <contour>
        <pt x="132" y="-138" on="0"/>
        <pt x="77" y="-73" on="0"/>
        <pt x="77" y="-22" on="1"/>
        <pt x="77" y="163" on="1"/>
        <pt x="77" y="205" on="0"/>
        <pt x="60" y="249" on="0"/>
        <pt x="41" y="259" on="1"/>
        <pt x="26" y="268" on="0"/>
        <pt x="12" y="290" on="0"/>
        <pt x="12" y="309" on="1"/>
        <pt x="12" y="321" on="1"/>
        <pt x="12" y="340" on="0"/>
        <pt x="26" y="362" on="0"/>
        <pt x="41" y="371" on="1"/>
        <pt x="60" y="381" on="0"/>
        <pt x="77" y="425" on="0"/>
        <pt x="77" y="467" on="1"/>
        <pt x="77" y="652" on="1"/>
        <pt x="77" y="703" on="0"/>
        <pt x="132" y="768" on="0"/>
        <pt x="176" y="768" on="1"/>
        <pt x="215" y="768" on="1"/>
        <pt x="231" y="768" on="0"/>
        <pt x="245" y="749" on="0"/>
        <pt x="245" y="728" on="1"/>
        <pt x="245" y="714" on="1"/>
        <pt x="245" y="675" on="0"/>
        <pt x="219" y="674" on="1"/>
        <pt x="221" y="674" on="1"/>
        <pt x="205" y="674" on="0"/>
        <pt x="192" y="658" on="0"/>
        <pt x="192" y="638" on="1"/>
        <pt x="192" y="451" on="1"/>
        <pt x="192" y="401" on="0"/>
        <pt x="163" y="331" on="0"/>
        <pt x="135" y="315" on="1"/>
        <pt x="163" y="299" on="0"/>
        <pt x="192" y="229" on="0"/>
        <pt x="192" y="179" on="1"/>
        <pt x="192" y="-8" on="1"/>
        <pt x="192" y="-44" on="0"/>
        <pt x="216" y="-44" on="1"/>
        <pt x="217" y="-44" on="1"/>
        <pt x="231" y="-45" on="0"/>
        <pt x="245" y="-64" on="0"/>
        <pt x="245" y="-84" on="1"/>
        <pt x="245" y="-98" on="1"/>
        <pt x="245" y="-119" on="0"/>
        <pt x="231" y="-138" on="0"/>
        <pt x="215" y="-138" on="1"/>
        <pt x="176" y="-138" on="1"/>
      </contour>
    </TTGlyph>
    <TTGlyph name="braceright" xMin="13" yMin="-138" xMax="246" yMax="768">
      <contour>
        <pt x="27" y="-138" on="0"/>
        <pt x="13" y="-119" on="0"/>
        <pt x="13" y="-98" on="1"/>
        <pt x="13" y="-84" on="1"/>
        <pt x="13" y="-64" on="0"/>
        <pt x="27" y="-45" on="0"/>
        <pt x="41" y="-44" on="1"/>
        <pt x="42" y="-44" on="1"/>
        <pt x="66" y="-44" on="0"/>
        <pt x="66" y="-8" on="1"/>
        <pt x="66" y="179" on="1"/>
        <pt x="66" y="229" on="0"/>
        <pt x="95" y="299" on="0"/>
        <pt x="123" y="315" on="1"/>
        <pt x="95" y="331" on="0"/>
        <pt x="66" y="401" on="0"/>
        <pt x="66" y="451" on="1"/>
        <pt x="66" y="638" on="1"/>
        <pt x="66" y="658" on="0"/>
        <pt x="54" y="674" on="0"/>
        <pt x="38" y="674" on="1"/>
        <pt x="39" y="674" on="1"/>
        <pt x="13" y="675" on="0"/>
        <pt x="13" y="714" on="1"/>
        <pt x="13" y="728" on="1"/>
        <pt x="13" y="749" on="0"/>
        <pt x="27" y="768" on="0"/>
        <pt x="43" y="768" on="1"/>
        <pt x="82" y="768" on="1"/>
        <pt x="126" y="768" on="0"/>
        <pt x="181" y="703" on="0"/>
        <pt x="181" y="652" on="1"/>
        <pt x="181" y="467" on="1"/>
        <pt x="181" y="425" on="0"/>
        <pt x="197" y="381" on="0"/>
        <pt x="217" y="371" on="1"/>
        <pt x="232" y="362" on="0"/>
        <pt x="246" y="340" on="0"/>
        <pt x="246" y="321" on="1"/>
        <pt x="246" y="309" on="1"/>
        <pt x="246" y="290" on="0"/>
        <pt x="232" y="268" on="0"/>
        <pt x="217" y="259" on="1"/>
        <pt x="197" y="249" on="0"/>
        <pt x="181" y="205" on="0"/>
        <pt x="181" y="163" on="1"/>
        <pt x="181" y="-22" on="1"/>
        <pt x="181" y="-73" on="0"/>
        <pt x="126" y="-138" on="0"/>
        <pt x="82" y="-138" on="1"/>
        <pt x="43" y="-138" on="1"/>
      </contour>
    </TTGlyph>
    <TTGlyph name="bracketleft" xMin="48" yMin="-138" xMax="220" yMax="768">
      <contour>
        <pt x="66" y="-138" on="0"/>
        <pt x="48" y="-119" on="0"/>
        <pt x="48" y="-98" on="1"/>
        <pt x="48" y="728" on="1"/>
        <pt x="48" y="749" on="0"/>
        <pt x="66" y="768" on="0"/>
        <pt x="85" y="768" on="1"/>
        <pt x="191" y="768" on="1"/>
        <pt x="207" y="768" on="0"/>
        <pt x="220" y="749" on="0"/>
        <pt x="220" y="728" on="1"/>
        <pt x="220" y="713" on="1"/>
        <pt x="220" y="692" on="0"/>
        <pt x="207" y="673" on="0"/>
        <pt x="191" y="673" on="1"/>
        <pt x="161" y="673" on="1"/>
        <pt x="161" y="-43" on="1"/>
        <pt x="191" y="-43" on="1"/>
        <pt x="207" y="-43" on="0"/>
        <pt x="220" y="-62" on="0"/>
        <pt x="220" y="-83" on="1"/>
        <pt x="220" y="-98" on="1"/>
        <pt x="220" y="-119" on="0"/>
        <pt x="207" y="-138" on="0"/>
        <pt x="191" y="-138" on="1"/>
        <pt x="85" y="-138" on="1"/>
      </contour>
    </TTGlyph>
    <TTGlyph name="bracketright" xMin="20" yMin="-138" xMax="192" yMax="768">
      <contour>
        <pt x="34" y="-138" on="0"/>
        <pt x="20" y="-119" on="0"/>
        <pt x="20" y="-98" on="1"/>
        <pt x="20" y="-83" on="1"/>
        <pt x="20" y="-62" on="0"/>
        <pt x="34" y="-43" on="0"/>
        <pt x="49" y="-43" on="1"/>
        <pt x="80" y="-43" on="1"/>
        <pt x="80" y="673" on="1"/>
        <pt x="49" y="673" on="1"/>
        <pt x="34" y="673" on="0"/>
        <pt x="20" y="692" on="0"/>
        <pt x="20" y="713" on="1"/>
        <pt x="20" y="728" on="1"/>
        <pt x="20" y="749" on="0"/>
        <pt x="34" y="768" on="0"/>
        <pt x="49" y="768" on="1"/>
        <pt x="155" y="768" on="1"/>
        <pt x="174" y="768" on="0"/>
        <pt x="192" y="749" on="0"/>
        <pt x="192" y="728" on="1"/>
        <pt x="192" y="-98" on="1"/>
        <pt x="192" y="-119" on="0"/>
        <pt x="174" y="-138" on="0"/>
        <pt x="155" y="-138" on="1"/>
        <pt x="49" y="-138" on="1"/>
      </contour>
    </TTGlyph>
    <TTGlyph name="breve" xMin="-4" yMin="575" xMax="257" yMax="715">
      <contour>
        <pt x="63" y="575" on="0"/>
        <pt x="-4" y="639" on="0"/>
        <pt x="-4" y="681" on="1"/>
        <pt x="-4" y="715" on="0"/>
        <pt x="36" y="715" on="1"/>
        <pt x="58" y="715" on="0"/>
        <pt x="66" y="697" on="1"/>
        <pt x="67" y="695" on="0"/>
        <pt x="77" y="677" on="0"/>
        <pt x="104" y="666" on="0"/>
        <pt x="127" y="666" on="1"/>
        <pt x="157" y="666" on="0"/>
        <pt x="181" y="682" on="0"/>
        <pt x="188" y="697" on="0"/>
        <pt x="189" y="699" on="1"/>
        <pt x="192" y="706" on="0"/>
        <pt x="207" y="715" on="0"/>
        <pt x="217" y="715" on="1"/>
        <pt x="257" y="715" on="0"/>
        <pt x="257" y="681" on="1"/>
        <pt x="257" y="655" on="0"/>
        <pt x="229" y="607" on="0"/>
        <pt x="170" y="575" on="0"/>
        <pt x="126" y="575" on="1"/>
      </contour>
    </TTGlyph>
    <TTGlyph name="brokenbar" xMin="41" yMin="-140" xMax="161" yMax="770">
      <contour>
        <pt x="41" y="380" on="0"/>
        <pt x="41" y="412" on="1"/>
        <pt x="41" y="738" on="1"/>
        <pt x="41" y="770" on="0"/>
        <pt x="94" y="770" on="1"/>
        <pt x="108" y="770" on="1"/>
        <pt x="136" y="770" on="0"/>
        <pt x="161" y="754" on="0"/>
        <pt x="161" y="738" on="1"/>
        <pt x="161" y="412" on="1"/>
        <pt x="161" y="396" on="0"/>
        <pt x="136" y="380" on="0"/>
        <pt x="108" y="380" on="1"/>
        <pt x="94" y="380" on="1"/>
      </contour>
      <contour>
        <pt x="41" y="-140" on="0"/>
        <pt x="41" y="-108" on="1"/>
        <pt x="41" y="218" on="1"/>
        <pt x="41" y="250" on="0"/>
        <pt x="94" y="250" on="1"/>
        <pt x="108" y="250" on="1"/>
        <pt x="136" y="250" on="0"/>
        <pt x="161" y="234" on="0"/>
        <pt x="161" y="218" on="1"/>
        <pt x="161" y="-108" on="1"/>
        <pt x="161" y="-124" on="0"/>
        <pt x="136" y="-140" on="0"/>
        <pt x="108" y="-140" on="1"/>
        <pt x="94" y="-140" on="1"/>
      </contour>
    </TTGlyph>
    <TTGlyph name="bullet" xMin="28" yMin="194" xMax="270" yMax="459">
      <contour>
        <pt x="96" y="194" on="0"/>
        <pt x="28" y="261" on="0"/>
        <pt x="28" y="326" on="1"/>
        <pt x="28" y="391" on="0"/>
        <pt x="96" y="459" on="0"/>
        <pt x="149" y="459" on="1"/>
        <pt x="202" y="459" on="0"/>
        <pt x="270" y="391" on="0"/>
        <pt x="270" y="326" on="1"/>
        <pt x="270" y="262" on="0"/>
        <pt x="202" y="194" on="0"/>
        <pt x="149" y="194" on="1"/>
      </contour>
    </TTGlyph>
    <TTGlyph name="c" xMin="34" yMin="-8" xMax="396" yMax="531">
      <contour>
        <pt x="34" y="-8" on="0"/>
        <pt x="34" y="260" on="1"/>
        <pt x="34" y="531" on="0"/>
        <pt x="250" y="531" on="1"/>
        <pt x="286" y="531" on="0"/>
        <pt x="353" y="512" on="0"/>
        <pt x="395" y="480" on="0"/>
        <pt x="395" y="462" on="1"/>
        <pt x="395" y="444" on="0"/>
        <pt x="364" y="386" on="0"/>
        <pt x="350" y="386" on="1"/>
        <pt x="344" y="386" on="0"/>
        <pt x="331" y="394" on="1"/>
        <pt x="313" y="403" on="0"/>
        <pt x="285" y="414" on="0"/>
        <pt x="266" y="414" on="1"/>
        <pt x="225" y="414" on="0"/>
        <pt x="185" y="344" on="0"/>
        <pt x="185" y="262" on="1"/>
        <pt x="185" y="180" on="0"/>
        <pt x="223" y="109" on="0"/>
        <pt x="263" y="109" on="1"/>
        <pt x="281" y="109" on="0"/>
        <pt x="311" y="119" on="0"/>
        <pt x="331" y="129" on="0"/>
        <pt x="334" y="130" on="1"/>
        <pt x="348" y="137" on="0"/>
        <pt x="352" y="137" on="1"/>
        <pt x="367" y="137" on="0"/>
        <pt x="396" y="80" on="0"/>
        <pt x="396" y="61" on="1"/>
        <pt x="396" y="42" on="0"/>
        <pt x="346" y="10" on="0"/>
        <pt x="275" y="-8" on="0"/>
        <pt x="246" y="-8" on="1"/>
      </contour>
    </TTGlyph>
    <TTGlyph name="cacute" xMin="34" yMin="-8" xMax="396" yMax="734">
      <component glyphName="c" x="0" y="0" flags="0x0"/>
      <component glyphName="acutecomb" x="228" y="0" flags="0x0"/>
    </TTGlyph>
    <TTGlyph name="cacute.loclPLK" xMin="34" yMin="-8" xMax="396" yMax="734">
      <component glyphName="c" x="0" y="0" flags="0x0"/>
      <component glyphName="acute.loclPLK" x="142" y="0" flags="0x0"/>
    </TTGlyph>
    <TTGlyph name="caron" xMin="1" yMin="572" xMax="250" yMax="718">
      <contour>
        <pt x="99" y="572" on="0"/>
        <pt x="75" y="579" on="0"/>
        <pt x="67" y="591" on="1"/>
        <pt x="8" y="691" on="1"/>
        <pt x="1" y="703" on="0"/>
        <pt x="1" y="708" on="1"/>
        <pt x="1" y="718" on="0"/>
        <pt x="22" y="718" on="1"/>
        <pt x="49" y="718" on="1"/>
        <pt x="87" y="718" on="0"/>
        <pt x="99" y="699" on="1"/>
        <pt x="125" y="654" on="1"/>
        <pt x="151" y="700" on="1"/>
        <pt x="161" y="718" on="0"/>
        <pt x="202" y="718" on="1"/>
        <pt x="230" y="718" on="1"/>
        <pt x="250" y="718" on="0"/>
        <pt x="250" y="708" on="1"/>
        <pt x="250" y="703" on="0"/>
        <pt x="243" y="691" on="1"/>
        <pt x="183" y="591" on="1"/>
        <pt x="175" y="579" on="0"/>
        <pt x="150" y="572" on="0"/>
        <pt x="128" y="572" on="1"/>
        <pt x="122" y="572" on="1"/>
      </contour>
    </TTGlyph>
    <TTGlyph name="caron.alt" xMin="30" yMin="511" xMax="153" yMax="700">
      <contour>
        <pt x="59" y="511" on="0"/>
        <pt x="30" y="522" on="0"/>
        <pt x="30" y="533" on="1"/>
        <pt x="30" y="564" on="0"/>
        <pt x="32" y="606" on="1"/>
        <pt x="34" y="642" on="0"/>
        <pt x="34" y="656" on="1"/>
        <pt x="34" y="700" on="0"/>
        <pt x="84" y="700" on="1"/>
        <pt x="103" y="700" on="1"/>
        <pt x="128" y="700" on="0"/>
        <pt x="153" y="676" on="0"/>
        <pt x="153" y="656" on="1"/>
        <pt x="153" y="625" on="0"/>
        <pt x="126" y="558" on="0"/>
        <pt x="88" y="512" on="0"/>
        <pt x="75" y="511" on="1"/>
      </contour>
    </TTGlyph>
    <TTGlyph name="ccaron" xMin="34" yMin="-8" xMax="396" yMax="718">
      <component glyphName="c" x="0" y="0" flags="0x0"/>
      <component glyphName="uni030C" x="219" y="0" flags="0x0"/>
    </TTGlyph>
    <TTGlyph name="ccedilla" xMin="34" yMin="-212" xMax="396" yMax="531">
      <contour>
        <pt x="396" y="38" on="0"/>
        <pt x="325" y="2" on="0"/>
        <pt x="280" y="-5" on="1"/>
        <pt x="267" y="-48" on="1"/>
        <pt x="296" y="-53" on="0"/>
        <pt x="331" y="-90" on="0"/>
        <pt x="331" y="-122" on="1"/>
        <pt x="331" y="-166" on="0"/>
        <pt x="275" y="-212" on="0"/>
        <pt x="227" y="-212" on="1"/>
        <pt x="184" y="-212" on="0"/>
        <pt x="121" y="-181" on="0"/>
        <pt x="121" y="-160" on="1"/>
        <pt x="121" y="-142" on="0"/>
        <pt x="144" y="-118" on="0"/>
        <pt x="153" y="-118" on="1"/>
        <pt x="162" y="-118" on="0"/>
        <pt x="178" y="-127" on="1"/>
        <pt x="180" y="-128" on="0"/>
        <pt x="204" y="-139" on="0"/>
        <pt x="218" y="-139" on="1"/>
        <pt x="238" y="-139" on="0"/>
        <pt x="238" y="-123" on="1"/>
        <pt x="238" y="-115" on="0"/>
        <pt x="227" y="-106" on="0"/>
        <pt x="215" y="-101" on="1"/>
        <pt x="203" y="-96" on="0"/>
        <pt x="191" y="-87" on="0"/>
        <pt x="191" y="-79" on="1"/>
        <pt x="191" y="-71" on="0"/>
        <pt x="205" y="-33" on="1"/>
        <pt x="208" y="-21" on="0"/>
        <pt x="214" y="-6" on="1"/>
        <pt x="34" y="12" on="0"/>
        <pt x="34" y="260" on="1"/>
        <pt x="34" y="531" on="0"/>
        <pt x="250" y="531" on="1"/>
        <pt x="286" y="531" on="0"/>
        <pt x="353" y="512" on="0"/>
        <pt x="395" y="480" on="0"/>
        <pt x="395" y="462" on="1"/>
        <pt x="395" y="444" on="0"/>
        <pt x="364" y="386" on="0"/>
        <pt x="350" y="386" on="1"/>
        <pt x="344" y="386" on="0"/>
        <pt x="331" y="394" on="1"/>
        <pt x="313" y="403" on="0"/>
        <pt x="285" y="414" on="0"/>
        <pt x="266" y="414" on="1"/>
        <pt x="225" y="414" on="0"/>
        <pt x="185" y="344" on="0"/>
        <pt x="185" y="262" on="1"/>
        <pt x="185" y="180" on="0"/>
        <pt x="223" y="109" on="0"/>
        <pt x="263" y="109" on="1"/>
        <pt x="281" y="109" on="0"/>
        <pt x="311" y="119" on="0"/>
        <pt x="331" y="129" on="0"/>
        <pt x="334" y="130" on="1"/>
        <pt x="348" y="137" on="0"/>
        <pt x="352" y="137" on="1"/>
        <pt x="367" y="137" on="0"/>
        <pt x="396" y="80" on="0"/>
        <pt x="396" y="61" on="1"/>
      </contour>
    </TTGlyph>
    <TTGlyph name="ccircumflex" xMin="34" yMin="-8" xMax="396" yMax="718">
      <component glyphName="c" x="0" y="0" flags="0x0"/>
      <component glyphName="uni0302" x="225" y="0" flags="0x0"/>
    </TTGlyph>
    <TTGlyph name="cdotaccent" xMin="34" yMin="-8" xMax="396" yMax="702">
      <component glyphName="c" x="0" y="0" flags="0x0"/>
      <component glyphName="uni0307" x="227" y="0" flags="0x0"/>
    </TTGlyph>
    <TTGlyph name="cedilla" xMin="15" yMin="-212" xMax="225" yMax="10">
      <contour>
        <pt x="190" y="-53" on="0"/>
        <pt x="225" y="-90" on="0"/>
        <pt x="225" y="-122" on="1"/>
        <pt x="225" y="-166" on="0"/>
        <pt x="169" y="-212" on="0"/>
        <pt x="121" y="-212" on="1"/>
        <pt x="78" y="-212" on="0"/>
        <pt x="15" y="-181" on="0"/>
        <pt x="15" y="-160" on="1"/>
        <pt x="15" y="-142" on="0"/>
        <pt x="38" y="-118" on="0"/>
        <pt x="47" y="-118" on="1"/>
        <pt x="56" y="-118" on="0"/>
        <pt x="72" y="-127" on="1"/>
        <pt x="74" y="-128" on="0"/>
        <pt x="98" y="-139" on="0"/>
        <pt x="112" y="-139" on="1"/>
        <pt x="132" y="-139" on="0"/>
        <pt x="132" y="-123" on="1"/>
        <pt x="132" y="-115" on="0"/>
        <pt x="121" y="-106" on="0"/>
        <pt x="109" y="-101" on="1"/>
        <pt x="97" y="-96" on="0"/>
        <pt x="85" y="-87" on="0"/>
        <pt x="85" y="-79" on="1"/>
        <pt x="85" y="-71" on="0"/>
        <pt x="106" y="-12" on="1"/>
        <pt x="114" y="10" on="1"/>
        <pt x="178" y="10" on="1"/>
        <pt x="161" y="-48" on="1"/>
      </contour>
    </TTGlyph>
    <TTGlyph name="cent" xMin="34" yMin="-78" xMax="396" yMax="587">
      <contour>
        <pt x="396" y="35" on="0"/>
        <pt x="309" y="-4" on="0"/>
        <pt x="262" y="-7" on="1"/>
        <pt x="262" y="-48" on="1"/>
        <pt x="262" y="-78" on="0"/>
        <pt x="236" y="-78" on="1"/>
        <pt x="221" y="-78" on="0"/>
        <pt x="207" y="-64" on="0"/>
        <pt x="207" y="-48" on="1"/>
        <pt x="207" y="-6" on="1"/>
        <pt x="34" y="18" on="0"/>
        <pt x="34" y="260" on="1"/>
        <pt x="34" y="503" on="0"/>
        <pt x="207" y="528" on="1"/>
        <pt x="207" y="557" on="1"/>
        <pt x="207" y="587" on="0"/>
        <pt x="233" y="587" on="1"/>
        <pt x="248" y="587" on="0"/>
        <pt x="262" y="573" on="0"/>
        <pt x="262" y="557" on="1"/>
        <pt x="262" y="531" on="1"/>
        <pt x="315" y="528" on="0"/>
        <pt x="395" y="488" on="0"/>
        <pt x="395" y="462" on="1"/>
        <pt x="395" y="444" on="0"/>
        <pt x="364" y="386" on="0"/>
        <pt x="350" y="386" on="1"/>
        <pt x="344" y="386" on="0"/>
        <pt x="331" y="394" on="1"/>
        <pt x="313" y="403" on="0"/>
        <pt x="285" y="414" on="0"/>
        <pt x="266" y="414" on="1"/>
        <pt x="262" y="414" on="1"/>
        <pt x="262" y="109" on="1"/>
        <pt x="263" y="109" on="1"/>
        <pt x="281" y="109" on="0"/>
        <pt x="311" y="119" on="0"/>
        <pt x="331" y="129" on="0"/>
        <pt x="334" y="130" on="1"/>
        <pt x="348" y="137" on="0"/>
        <pt x="352" y="137" on="1"/>
        <pt x="367" y="137" on="0"/>
        <pt x="396" y="80" on="0"/>
        <pt x="396" y="61" on="1"/>
      </contour>
      <contour>
        <pt x="185" y="174" on="0"/>
        <pt x="207" y="139" on="1"/>
        <pt x="207" y="382" on="1"/>
        <pt x="185" y="347" on="0"/>
        <pt x="185" y="262" on="1"/>
      </contour>
    </TTGlyph>
    <TTGlyph name="circumflex" xMin="1" yMin="572" xMax="250" yMax="718">
      <contour>
        <pt x="1" y="572" on="0"/>
        <pt x="1" y="582" on="1"/>
        <pt x="1" y="587" on="0"/>
        <pt x="8" y="599" on="1"/>
        <pt x="67" y="699" on="1"/>
        <pt x="75" y="711" on="0"/>
        <pt x="101" y="718" on="0"/>
        <pt x="124" y="718" on="1"/>
        <pt x="126" y="718" on="1"/>
        <pt x="149" y="718" on="0"/>
        <pt x="175" y="711" on="0"/>
        <pt x="183" y="699" on="1"/>
        <pt x="243" y="599" on="1"/>
        <pt x="250" y="587" on="0"/>
        <pt x="250" y="582" on="1"/>
        <pt x="250" y="572" on="0"/>
        <pt x="230" y="572" on="1"/>
        <pt x="202" y="572" on="1"/>
        <pt x="161" y="572" on="0"/>
        <pt x="151" y="590" on="1"/>
        <pt x="125" y="636" on="1"/>
        <pt x="99" y="591" on="1"/>
        <pt x="87" y="572" on="0"/>
        <pt x="49" y="572" on="1"/>
        <pt x="22" y="572" on="1"/>
      </contour>
    </TTGlyph>
    <TTGlyph name="colon" xMin="19" yMin="-2" xMax="168" yMax="525">
      <contour>
        <pt x="19" y="369" on="0"/>
        <pt x="19" y="401" on="1"/>
        <pt x="19" y="493" on="1"/>
        <pt x="19" y="525" on="0"/>
        <pt x="77" y="525" on="1"/>
        <pt x="110" y="525" on="1"/>
        <pt x="168" y="525" on="0"/>
        <pt x="168" y="493" on="1"/>
        <pt x="168" y="401" on="1"/>
        <pt x="168" y="369" on="0"/>
        <pt x="110" y="369" on="1"/>
        <pt x="77" y="369" on="1"/>
      </contour>
      <contour>
        <pt x="19" y="-2" on="0"/>
        <pt x="19" y="30" on="1"/>
        <pt x="19" y="122" on="1"/>
        <pt x="19" y="154" on="0"/>
        <pt x="77" y="154" on="1"/>
        <pt x="110" y="154" on="1"/>
        <pt x="168" y="154" on="0"/>
        <pt x="168" y="122" on="1"/>
        <pt x="168" y="30" on="1"/>
        <pt x="168" y="-2" on="0"/>
        <pt x="110" y="-2" on="1"/>
        <pt x="77" y="-2" on="1"/>
      </contour>
    </TTGlyph>
    <TTGlyph name="comma" xMin="-4" yMin="-125" xMax="168" yMax="154">
      <contour>
        <pt x="24" y="-125" on="0"/>
        <pt x="-4" y="-114" on="0"/>
        <pt x="-4" y="-103" on="1"/>
        <pt x="-4" y="-98" on="0"/>
        <pt x="1" y="-78" on="0"/>
        <pt x="2" y="-70" on="1"/>
        <pt x="8" y="-50" on="1"/>
        <pt x="19" y="-14" on="0"/>
        <pt x="32" y="58" on="0"/>
        <pt x="32" y="110" on="1"/>
        <pt x="32" y="154" on="0"/>
        <pt x="90" y="154" on="1"/>
        <pt x="110" y="154" on="1"/>
        <pt x="140" y="154" on="0"/>
        <pt x="168" y="130" on="0"/>
        <pt x="168" y="110" on="1"/>
        <pt x="168" y="57" on="0"/>
        <pt x="123" y="-52" on="0"/>
        <pt x="61" y="-125" on="0"/>
        <pt x="40" y="-125" on="1"/>
      </contour>
    </TTGlyph>
    <TTGlyph name="copyright" xMin="10" yMin="-8" xMax="581" yMax="708">
      <contour>
        <pt x="215" y="-8" on="0"/>
        <pt x="86" y="73" on="0"/>
        <pt x="10" y="235" on="0"/>
        <pt x="10" y="350" on="1"/>
        <pt x="10" y="465" on="0"/>
        <pt x="86" y="627" on="0"/>
        <pt x="215" y="708" on="0"/>
        <pt x="296" y="708" on="1"/>
        <pt x="377" y="708" on="0"/>
        <pt x="506" y="627" on="0"/>
        <pt x="581" y="465" on="0"/>
        <pt x="581" y="350" on="1"/>
        <pt x="581" y="235" on="0"/>
        <pt x="506" y="73" on="0"/>
        <pt x="377" y="-8" on="0"/>
        <pt x="296" y="-8" on="1"/>
      </contour>
      <contour>
        <pt x="358" y="56" on="0"/>
        <pt x="457" y="120" on="0"/>
        <pt x="515" y="253" on="0"/>
        <pt x="515" y="350" on="1"/>
        <pt x="515" y="447" on="0"/>
        <pt x="457" y="580" on="0"/>
        <pt x="358" y="644" on="0"/>
        <pt x="296" y="644" on="1"/>
        <pt x="234" y="644" on="0"/>
        <pt x="134" y="580" on="0"/>
        <pt x="76" y="447" on="0"/>
        <pt x="76" y="350" on="1"/>
        <pt x="76" y="253" on="0"/>
        <pt x="134" y="120" on="0"/>
        <pt x="234" y="56" on="0"/>
        <pt x="296" y="56" on="1"/>
      </contour>
      <contour>
        <pt x="231" y="152" on="0"/>
        <pt x="161" y="250" on="0"/>
        <pt x="161" y="353" on="1"/>
        <pt x="161" y="552" on="0"/>
        <pt x="306" y="552" on="1"/>
        <pt x="337" y="552" on="0"/>
        <pt x="401" y="529" on="0"/>
        <pt x="401" y="513" on="1"/>
        <pt x="401" y="500" on="0"/>
        <pt x="375" y="460" on="0"/>
        <pt x="365" y="460" on="1"/>
        <pt x="363" y="460" on="0"/>
        <pt x="334" y="478" on="0"/>
        <pt x="304" y="478" on="1"/>
        <pt x="248" y="478" on="0"/>
        <pt x="248" y="353" on="1"/>
        <pt x="248" y="225" on="0"/>
        <pt x="304" y="225" on="1"/>
        <pt x="332" y="225" on="0"/>
        <pt x="369" y="248" on="0"/>
        <pt x="371" y="248" on="1"/>
        <pt x="384" y="248" on="0"/>
        <pt x="404" y="209" on="0"/>
        <pt x="404" y="199" on="1"/>
        <pt x="404" y="184" on="0"/>
        <pt x="367" y="162" on="0"/>
        <pt x="319" y="152" on="0"/>
        <pt x="304" y="152" on="1"/>
      </contour>
    </TTGlyph>
    <TTGlyph name="currency" xMin="29" yMin="72" xMax="428" yMax="514">
      <contour>
        <pt x="86" y="72" on="0"/>
        <pt x="74" y="84" on="1"/>
        <pt x="44" y="114" on="1"/>
        <pt x="32" y="126" on="0"/>
        <pt x="32" y="139" on="1"/>
        <pt x="32" y="152" on="0"/>
        <pt x="44" y="164" on="1"/>
        <pt x="71" y="191" on="1"/>
        <pt x="50" y="239" on="0"/>
        <pt x="50" y="289" on="1"/>
        <pt x="50" y="344" on="0"/>
        <pt x="73" y="390" on="1"/>
        <pt x="41" y="422" on="1"/>
        <pt x="29" y="434" on="0"/>
        <pt x="29" y="447" on="1"/>
        <pt x="29" y="460" on="0"/>
        <pt x="41" y="472" on="1"/>
        <pt x="71" y="502" on="1"/>
        <pt x="83" y="514" on="0"/>
        <pt x="96" y="514" on="1"/>
        <pt x="109" y="514" on="0"/>
        <pt x="121" y="502" on="1"/>
        <pt x="147" y="476" on="1"/>
        <pt x="185" y="500" on="0"/>
        <pt x="227" y="500" on="1"/>
        <pt x="271" y="500" on="0"/>
        <pt x="310" y="475" on="1"/>
        <pt x="336" y="502" on="1"/>
        <pt x="348" y="514" on="0"/>
        <pt x="361" y="514" on="1"/>
        <pt x="374" y="514" on="0"/>
        <pt x="386" y="502" on="1"/>
        <pt x="416" y="472" on="1"/>
        <pt x="428" y="460" on="0"/>
        <pt x="428" y="447" on="1"/>
        <pt x="428" y="434" on="0"/>
        <pt x="416" y="422" on="1"/>
        <pt x="382" y="388" on="1"/>
        <pt x="404" y="341" on="0"/>
        <pt x="404" y="289" on="1"/>
        <pt x="404" y="242" on="0"/>
        <pt x="384" y="194" on="1"/>
        <pt x="413" y="164" on="1"/>
        <pt x="425" y="152" on="0"/>
        <pt x="425" y="139" on="1"/>
        <pt x="425" y="126" on="0"/>
        <pt x="413" y="114" on="1"/>
        <pt x="383" y="84" on="1"/>
        <pt x="371" y="72" on="0"/>
        <pt x="358" y="72" on="1"/>
        <pt x="345" y="72" on="0"/>
        <pt x="333" y="84" on="1"/>
        <pt x="313" y="105" on="1"/>
        <pt x="274" y="78" on="0"/>
        <pt x="227" y="78" on="1"/>
        <pt x="182" y="78" on="0"/>
        <pt x="143" y="103" on="1"/>
        <pt x="124" y="84" on="1"/>
        <pt x="112" y="72" on="0"/>
        <pt x="99" y="72" on="1"/>
      </contour>
      <contour>
        <pt x="254" y="192" on="0"/>
        <pt x="289" y="242" on="0"/>
        <pt x="289" y="289" on="1"/>
        <pt x="289" y="336" on="0"/>
        <pt x="254" y="386" on="0"/>
        <pt x="227" y="386" on="1"/>
        <pt x="199" y="386" on="0"/>
        <pt x="164" y="336" on="0"/>
        <pt x="164" y="289" on="1"/>
        <pt x="164" y="242" on="0"/>
        <pt x="199" y="192" on="0"/>
        <pt x="227" y="192" on="1"/>
      </contour>
    </TTGlyph>
    <TTGlyph name="d" xMin="35" yMin="-8" xMax="444" yMax="754">
      <contour>
        <pt x="141" y="-8" on="0"/>
        <pt x="74" y="55" on="0"/>
        <pt x="35" y="178" on="0"/>
        <pt x="35" y="264" on="1"/>
        <pt x="35" y="392" on="0"/>
        <pt x="123" y="531" on="0"/>
        <pt x="202" y="531" on="1"/>
        <pt x="251" y="531" on="0"/>
        <pt x="284" y="502" on="1"/>
        <pt x="284" y="722" on="1"/>
        <pt x="284" y="754" on="0"/>
        <pt x="344" y="754" on="1"/>
        <pt x="372" y="754" on="1"/>
        <pt x="432" y="754" on="0"/>
        <pt x="432" y="722" on="1"/>
        <pt x="432" y="176" on="1"/>
        <pt x="432" y="130" on="0"/>
        <pt x="437" y="82" on="0"/>
        <pt x="441" y="53" on="1"/>
        <pt x="444" y="40" on="0"/>
        <pt x="444" y="31" on="1"/>
        <pt x="444" y="15" on="0"/>
        <pt x="363" y="-1" on="0"/>
        <pt x="332" y="-1" on="1"/>
        <pt x="312" y="-1" on="0"/>
        <pt x="297" y="32" on="0"/>
        <pt x="291" y="62" on="1"/>
        <pt x="276" y="31" on="0"/>
        <pt x="220" y="-8" on="0"/>
        <pt x="185" y="-8" on="1"/>
      </contour>
      <contour>
        <pt x="264" y="113" on="0"/>
        <pt x="284" y="153" on="1"/>
        <pt x="284" y="400" on="1"/>
        <pt x="264" y="414" on="0"/>
        <pt x="243" y="414" on="1"/>
        <pt x="213" y="414" on="0"/>
        <pt x="185" y="343" on="0"/>
        <pt x="185" y="261" on="1"/>
        <pt x="185" y="183" on="0"/>
        <pt x="209" y="113" on="0"/>
        <pt x="235" y="113" on="1"/>
      </contour>
    </TTGlyph>
    <TTGlyph name="dagger" xMin="35" yMin="-140" xMax="392" yMax="702">
      <contour>
        <pt x="180" y="-140" on="0"/>
        <pt x="160" y="-124" on="0"/>
        <pt x="160" y="-108" on="1"/>
        <pt x="160" y="410" on="1"/>
        <pt x="64" y="410" on="1"/>
        <pt x="49" y="410" on="0"/>
        <pt x="35" y="434" on="0"/>
        <pt x="35" y="460" on="1"/>
        <pt x="35" y="467" on="1"/>
        <pt x="35" y="493" on="0"/>
        <pt x="49" y="517" on="0"/>
        <pt x="64" y="517" on="1"/>
        <pt x="160" y="517" on="1"/>
        <pt x="160" y="670" on="1"/>
        <pt x="160" y="702" on="0"/>
        <pt x="204" y="702" on="1"/>
        <pt x="223" y="702" on="1"/>
        <pt x="268" y="702" on="0"/>
        <pt x="268" y="670" on="1"/>
        <pt x="268" y="517" on="1"/>
        <pt x="363" y="517" on="1"/>
        <pt x="379" y="517" on="0"/>
        <pt x="392" y="493" on="0"/>
        <pt x="392" y="467" on="1"/>
        <pt x="392" y="460" on="1"/>
        <pt x="392" y="434" on="0"/>
        <pt x="379" y="410" on="0"/>
        <pt x="363" y="410" on="1"/>
        <pt x="268" y="410" on="1"/>
        <pt x="268" y="-108" on="1"/>
        <pt x="268" y="-140" on="0"/>
        <pt x="222" y="-140" on="1"/>
        <pt x="203" y="-140" on="1"/>
      </contour>
    </TTGlyph>
    <TTGlyph name="daggerdbl" xMin="35" yMin="-140" xMax="392" yMax="702">
      <contour>
        <pt x="180" y="-140" on="0"/>
        <pt x="160" y="-124" on="0"/>
        <pt x="160" y="-108" on="1"/>
        <pt x="160" y="42" on="1"/>
        <pt x="64" y="42" on="1"/>
        <pt x="49" y="42" on="0"/>
        <pt x="35" y="66" on="0"/>
        <pt x="35" y="92" on="1"/>
        <pt x="35" y="99" on="1"/>
        <pt x="35" y="125" on="0"/>
        <pt x="49" y="149" on="0"/>
        <pt x="64" y="149" on="1"/>
        <pt x="160" y="149" on="1"/>
        <pt x="160" y="410" on="1"/>
        <pt x="64" y="410" on="1"/>
        <pt x="49" y="410" on="0"/>
        <pt x="35" y="434" on="0"/>
        <pt x="35" y="460" on="1"/>
        <pt x="35" y="467" on="1"/>
        <pt x="35" y="493" on="0"/>
        <pt x="49" y="517" on="0"/>
        <pt x="64" y="517" on="1"/>
        <pt x="160" y="517" on="1"/>
        <pt x="160" y="670" on="1"/>
        <pt x="160" y="702" on="0"/>
        <pt x="204" y="702" on="1"/>
        <pt x="223" y="702" on="1"/>
        <pt x="268" y="702" on="0"/>
        <pt x="268" y="670" on="1"/>
        <pt x="268" y="517" on="1"/>
        <pt x="363" y="517" on="1"/>
        <pt x="379" y="517" on="0"/>
        <pt x="392" y="493" on="0"/>
        <pt x="392" y="467" on="1"/>
        <pt x="392" y="460" on="1"/>
        <pt x="392" y="434" on="0"/>
        <pt x="379" y="410" on="0"/>
        <pt x="363" y="410" on="1"/>
        <pt x="268" y="410" on="1"/>
        <pt x="268" y="149" on="1"/>
        <pt x="363" y="149" on="1"/>
        <pt x="379" y="149" on="0"/>
        <pt x="392" y="125" on="0"/>
        <pt x="392" y="99" on="1"/>
        <pt x="392" y="92" on="1"/>
        <pt x="392" y="66" on="0"/>
        <pt x="379" y="42" on="0"/>
        <pt x="363" y="42" on="1"/>
        <pt x="268" y="42" on="1"/>
        <pt x="268" y="-108" on="1"/>
        <pt x="268" y="-140" on="0"/>
        <pt x="222" y="-140" on="1"/>
        <pt x="203" y="-140" on="1"/>
      </contour>
    </TTGlyph>
    <TTGlyph name="dcaron" xMin="35" yMin="-8" xMax="570" yMax="754">
      <component glyphName="d" x="0" y="0" flags="0x0"/>
      <component glyphName="caron.alt" x="417" y="0" flags="0x0"/>
    </TTGlyph>
    <TTGlyph name="dcroat" xMin="35" yMin="-8" xMax="497" yMax="754">
      <contour>
        <pt x="481" y="678" on="0"/>
        <pt x="497" y="659" on="0"/>
        <pt x="497" y="638" on="1"/>
        <pt x="497" y="623" on="1"/>
        <pt x="497" y="602" on="0"/>
        <pt x="481" y="583" on="0"/>
        <pt x="462" y="583" on="1"/>
        <pt x="432" y="583" on="1"/>
        <pt x="432" y="176" on="1"/>
        <pt x="432" y="130" on="0"/>
        <pt x="437" y="82" on="0"/>
        <pt x="441" y="53" on="1"/>
        <pt x="444" y="40" on="0"/>
        <pt x="444" y="31" on="1"/>
        <pt x="444" y="15" on="0"/>
        <pt x="363" y="-1" on="0"/>
        <pt x="332" y="-1" on="1"/>
        <pt x="312" y="-1" on="0"/>
        <pt x="297" y="32" on="0"/>
        <pt x="291" y="62" on="1"/>
        <pt x="276" y="31" on="0"/>
        <pt x="220" y="-8" on="0"/>
        <pt x="185" y="-8" on="1"/>
        <pt x="141" y="-8" on="0"/>
        <pt x="74" y="55" on="0"/>
        <pt x="35" y="178" on="0"/>
        <pt x="35" y="264" on="1"/>
        <pt x="35" y="392" on="0"/>
        <pt x="123" y="531" on="0"/>
        <pt x="202" y="531" on="1"/>
        <pt x="251" y="531" on="0"/>
        <pt x="284" y="502" on="1"/>
        <pt x="284" y="583" on="1"/>
        <pt x="227" y="583" on="1"/>
        <pt x="191" y="583" on="0"/>
        <pt x="191" y="623" on="1"/>
        <pt x="191" y="638" on="1"/>
        <pt x="191" y="678" on="0"/>
        <pt x="227" y="678" on="1"/>
        <pt x="284" y="678" on="1"/>
        <pt x="284" y="722" on="1"/>
        <pt x="284" y="754" on="0"/>
        <pt x="344" y="754" on="1"/>
        <pt x="372" y="754" on="1"/>
        <pt x="432" y="754" on="0"/>
        <pt x="432" y="722" on="1"/>
        <pt x="432" y="678" on="1"/>
        <pt x="462" y="678" on="1"/>
      </contour>
      <contour>
        <pt x="284" y="400" on="1"/>
        <pt x="264" y="414" on="0"/>
        <pt x="243" y="414" on="1"/>
        <pt x="213" y="414" on="0"/>
        <pt x="185" y="343" on="0"/>
        <pt x="185" y="261" on="1"/>
        <pt x="185" y="183" on="0"/>
        <pt x="209" y="113" on="0"/>
        <pt x="235" y="113" on="1"/>
        <pt x="264" y="113" on="0"/>
        <pt x="284" y="153" on="1"/>
      </contour>
    </TTGlyph>
    <TTGlyph name="degree" xMin="31" yMin="443" xMax="243" yMax="708">
      <contour>
        <pt x="90" y="443" on="0"/>
        <pt x="31" y="509" on="0"/>
        <pt x="31" y="575" on="1"/>
        <pt x="31" y="641" on="0"/>
        <pt x="90" y="708" on="0"/>
        <pt x="137" y="708" on="1"/>
        <pt x="184" y="708" on="0"/>
        <pt x="243" y="641" on="0"/>
        <pt x="243" y="575" on="1"/>
        <pt x="243" y="509" on="0"/>
        <pt x="184" y="443" on="0"/>
        <pt x="137" y="443" on="1"/>
      </contour>
      <contour>
        <pt x="154" y="505" on="0"/>
        <pt x="177" y="540" on="0"/>
        <pt x="177" y="575" on="1"/>
        <pt x="177" y="610" on="0"/>
        <pt x="154" y="646" on="0"/>
        <pt x="136" y="646" on="1"/>
        <pt x="118" y="646" on="0"/>
        <pt x="95" y="610" on="0"/>
        <pt x="95" y="575" on="1"/>
        <pt x="95" y="540" on="0"/>
        <pt x="118" y="505" on="0"/>
        <pt x="136" y="505" on="1"/>
      </contour>
    </TTGlyph>
    <TTGlyph name="dieresis" xMin="-9" yMin="578" xMax="267" yMax="702">
      <contour>
        <pt x="-9" y="578" on="0"/>
        <pt x="-9" y="610" on="1"/>
        <pt x="-9" y="670" on="1"/>
        <pt x="-9" y="702" on="0"/>
        <pt x="47" y="702" on="1"/>
        <pt x="105" y="702" on="0"/>
        <pt x="105" y="670" on="1"/>
        <pt x="105" y="610" on="1"/>
        <pt x="105" y="578" on="0"/>
        <pt x="49" y="578" on="1"/>
      </contour>
      <contour>
        <pt x="153" y="578" on="0"/>
        <pt x="153" y="610" on="1"/>
        <pt x="153" y="670" on="1"/>
        <pt x="153" y="702" on="0"/>
        <pt x="209" y="702" on="1"/>
        <pt x="267" y="702" on="0"/>
        <pt x="267" y="670" on="1"/>
        <pt x="267" y="610" on="1"/>
        <pt x="267" y="578" on="0"/>
        <pt x="211" y="578" on="1"/>
      </contour>
    </TTGlyph>
    <TTGlyph name="divide" xMin="13" yMin="-2" xMax="436" yMax="453">
      <contour>
        <pt x="159" y="318" on="0"/>
        <pt x="159" y="350" on="1"/>
        <pt x="159" y="421" on="1"/>
        <pt x="159" y="453" on="0"/>
        <pt x="217" y="453" on="1"/>
        <pt x="229" y="453" on="1"/>
        <pt x="287" y="453" on="0"/>
        <pt x="287" y="421" on="1"/>
        <pt x="287" y="350" on="1"/>
        <pt x="287" y="318" on="0"/>
        <pt x="229" y="318" on="1"/>
        <pt x="217" y="318" on="1"/>
      </contour>
      <contour>
        <pt x="24" y="172" on="0"/>
        <pt x="13" y="195" on="0"/>
        <pt x="13" y="222" on="1"/>
        <pt x="13" y="229" on="1"/>
        <pt x="13" y="256" on="0"/>
        <pt x="24" y="279" on="0"/>
        <pt x="37" y="279" on="1"/>
        <pt x="412" y="279" on="1"/>
        <pt x="425" y="279" on="0"/>
        <pt x="436" y="256" on="0"/>
        <pt x="436" y="229" on="1"/>
        <pt x="436" y="222" on="1"/>
        <pt x="436" y="195" on="0"/>
        <pt x="425" y="172" on="0"/>
        <pt x="412" y="172" on="1"/>
        <pt x="37" y="172" on="1"/>
      </contour>
      <contour>
        <pt x="159" y="-2" on="0"/>
        <pt x="159" y="30" on="1"/>
        <pt x="159" y="101" on="1"/>
        <pt x="159" y="133" on="0"/>
        <pt x="217" y="133" on="1"/>
        <pt x="229" y="133" on="1"/>
        <pt x="287" y="133" on="0"/>
        <pt x="287" y="101" on="1"/>
        <pt x="287" y="30" on="1"/>
        <pt x="287" y="-2" on="0"/>
        <pt x="229" y="-2" on="1"/>
        <pt x="217" y="-2" on="1"/>
      </contour>
    </TTGlyph>
    <TTGlyph name="dollar" xMin="19" yMin="-75" xMax="420" yMax="765">
      <contour>
        <pt x="200" y="-75" on="0"/>
        <pt x="193" y="-66" on="0"/>
        <pt x="191" y="-55" on="1"/>
        <pt x="191" y="-8" on="1"/>
        <pt x="143" y="-7" on="0"/>
        <pt x="99" y="8" on="1"/>
        <pt x="71" y="18" on="0"/>
        <pt x="29" y="48" on="0"/>
        <pt x="27" y="66" on="1"/>
        <pt x="24" y="95" on="0"/>
        <pt x="48" y="163" on="0"/>
        <pt x="68" y="163" on="1"/>
        <pt x="74" y="163" on="0"/>
        <pt x="88" y="156" on="1"/>
        <pt x="122" y="138" on="0"/>
        <pt x="164" y="124" on="0"/>
        <pt x="191" y="123" on="1"/>
        <pt x="192" y="291" on="1"/>
        <pt x="138" y="313" on="0"/>
        <pt x="65" y="363" on="0"/>
        <pt x="19" y="447" on="0"/>
        <pt x="19" y="512" on="1"/>
        <pt x="19" y="592" on="0"/>
        <pt x="112" y="697" on="0"/>
        <pt x="191" y="706" on="1"/>
        <pt x="191" y="745" on="1"/>
        <pt x="191" y="748" on="1"/>
        <pt x="191" y="765" on="0"/>
        <pt x="211" y="765" on="1"/>
        <pt x="228" y="765" on="1"/>
        <pt x="238" y="765" on="0"/>
        <pt x="246" y="756" on="0"/>
        <pt x="248" y="745" on="1"/>
        <pt x="248" y="707" on="1"/>
        <pt x="310" y="702" on="0"/>
        <pt x="348" y="680" on="1"/>
        <pt x="374" y="666" on="0"/>
        <pt x="375" y="645" on="1"/>
        <pt x="376" y="641" on="0"/>
        <pt x="376" y="632" on="1"/>
        <pt x="376" y="604" on="0"/>
        <pt x="357" y="555" on="0"/>
        <pt x="340" y="555" on="1"/>
        <pt x="332" y="555" on="0"/>
        <pt x="309" y="562" on="1"/>
        <pt x="271" y="575" on="0"/>
        <pt x="249" y="576" on="1"/>
        <pt x="248" y="417" on="1"/>
        <pt x="259" y="412" on="1"/>
        <pt x="311" y="386" on="0"/>
        <pt x="372" y="345" on="0"/>
        <pt x="420" y="265" on="0"/>
        <pt x="420" y="203" on="1"/>
        <pt x="420" y="122" on="0"/>
        <pt x="330" y="13" on="0"/>
        <pt x="248" y="-5" on="1"/>
        <pt x="248" y="-55" on="1"/>
        <pt x="248" y="-75" on="0"/>
        <pt x="228" y="-75" on="1"/>
        <pt x="211" y="-75" on="1"/>
      </contour>
      <contour>
        <pt x="191" y="568" on="1"/>
        <pt x="154" y="552" on="0"/>
        <pt x="154" y="514" on="1"/>
        <pt x="154" y="492" on="0"/>
        <pt x="175" y="455" on="0"/>
        <pt x="191" y="445" on="1"/>
      </contour>
      <contour>
        <pt x="266" y="141" on="0"/>
        <pt x="287" y="176" on="0"/>
        <pt x="287" y="198" on="1"/>
        <pt x="287" y="223" on="0"/>
        <pt x="266" y="250" on="0"/>
        <pt x="248" y="261" on="1"/>
        <pt x="248" y="133" on="1"/>
      </contour>
    </TTGlyph>
    <TTGlyph name="dotaccent" xMin="61" yMin="578" xMax="198" yMax="702">
      <contour>
        <pt x="61" y="578" on="0"/>
        <pt x="61" y="610" on="1"/>
        <pt x="61" y="670" on="1"/>
        <pt x="61" y="702" on="0"/>
        <pt x="128" y="702" on="1"/>
        <pt x="198" y="702" on="0"/>
        <pt x="198" y="670" on="1"/>
        <pt x="198" y="610" on="1"/>
        <pt x="198" y="578" on="0"/>
        <pt x="131" y="578" on="1"/>
      </contour>
    </TTGlyph>
    <TTGlyph name="dotbelowcomb" xMin="-63" yMin="-204" xMax="74" yMax="-80">
      <contour>
        <pt x="-63" y="-204" on="0"/>
        <pt x="-63" y="-172" on="1"/>
        <pt x="-63" y="-112" on="1"/>
        <pt x="-63" y="-80" on="0"/>
        <pt x="4" y="-80" on="1"/>
        <pt x="74" y="-80" on="0"/>
        <pt x="74" y="-112" on="1"/>
        <pt x="74" y="-172" on="1"/>
        <pt x="74" y="-204" on="0"/>
        <pt x="7" y="-204" on="1"/>
      </contour>
    </TTGlyph>
    <TTGlyph name="dotlessi" xMin="53" yMin="-2" xMax="201" yMax="525">
      <contour>
        <pt x="53" y="-2" on="0"/>
        <pt x="53" y="30" on="1"/>
        <pt x="53" y="493" on="1"/>
        <pt x="53" y="525" on="0"/>
        <pt x="113" y="525" on="1"/>
        <pt x="141" y="525" on="1"/>
        <pt x="201" y="525" on="0"/>
        <pt x="201" y="493" on="1"/>
        <pt x="201" y="30" on="1"/>
        <pt x="201" y="-2" on="0"/>
        <pt x="141" y="-2" on="1"/>
        <pt x="113" y="-2" on="1"/>
      </contour>
    </TTGlyph>
    <TTGlyph name="e" xMin="34" yMin="-8" xMax="428" yMax="531">
      <contour>
        <pt x="144" y="-8" on="0"/>
        <pt x="34" y="127" on="0"/>
        <pt x="34" y="258" on="1"/>
        <pt x="34" y="406" on="0"/>
        <pt x="143" y="531" on="0"/>
        <pt x="242" y="531" on="1"/>
        <pt x="340" y="531" on="0"/>
        <pt x="428" y="393" on="0"/>
        <pt x="428" y="262" on="1"/>
        <pt x="428" y="250" on="0"/>
        <pt x="387" y="203" on="0"/>
        <pt x="377" y="203" on="1"/>
        <pt x="187" y="203" on="1"/>
        <pt x="189" y="152" on="0"/>
        <pt x="231" y="109" on="0"/>
        <pt x="267" y="109" on="1"/>
        <pt x="289" y="109" on="0"/>
        <pt x="325" y="121" on="0"/>
        <pt x="359" y="138" on="0"/>
        <pt x="363" y="138" on="1"/>
        <pt x="373" y="138" on="0"/>
        <pt x="398" y="109" on="0"/>
        <pt x="415" y="72" on="0"/>
        <pt x="415" y="62" on="1"/>
        <pt x="415" y="39" on="0"/>
        <pt x="361" y="8" on="0"/>
        <pt x="288" y="-8" on="0"/>
        <pt x="260" y="-8" on="1"/>
      </contour>
      <contour>
        <pt x="293" y="292" on="1"/>
        <pt x="293" y="363" on="0"/>
        <pt x="269" y="424" on="0"/>
        <pt x="241" y="424" on="1"/>
        <pt x="214" y="424" on="0"/>
        <pt x="185" y="366" on="0"/>
        <pt x="181" y="292" on="1"/>
      </contour>
    </TTGlyph>
    <TTGlyph name="eacute" xMin="34" yMin="-8" xMax="428" yMax="734">
      <component glyphName="e" x="0" y="0" flags="0x0"/>
      <component glyphName="acutecomb" x="231" y="0" flags="0x0"/>
    </TTGlyph>
    <TTGlyph name="ebreve" xMin="34" yMin="-8" xMax="428" yMax="715">
      <component glyphName="e" x="0" y="0" flags="0x0"/>
      <component glyphName="uni0306" x="231" y="0" flags="0x0"/>
    </TTGlyph>
    <TTGlyph name="ecaron" xMin="34" yMin="-8" xMax="428" yMax="718">
      <component glyphName="e" x="0" y="0" flags="0x0"/>
      <component glyphName="uni030C" x="222" y="0" flags="0x0"/>
    </TTGlyph>
    <TTGlyph name="ecircumflex" xMin="34" yMin="-8" xMax="428" yMax="718">
      <component glyphName="e" x="0" y="0" flags="0x0"/>
      <component glyphName="uni0302" x="228" y="0" flags="0x0"/>
    </TTGlyph>
    <TTGlyph name="edieresis" xMin="34" yMin="-8" xMax="428" yMax="702">
      <component glyphName="e" x="0" y="0" flags="0x0"/>
      <component glyphName="uni0308" x="232" y="0" flags="0x0"/>
    </TTGlyph>
    <TTGlyph name="edotaccent" xMin="34" yMin="-8" xMax="428" yMax="702">
      <component glyphName="e" x="0" y="0" flags="0x0"/>
      <component glyphName="uni0307" x="230" y="0" flags="0x0"/>
    </TTGlyph>
    <TTGlyph name="egrave" xMin="34" yMin="-8" xMax="428" yMax="734">
      <component glyphName="e" x="0" y="0" flags="0x0"/>
      <component glyphName="gravecomb" x="229" y="0" flags="0x0"/>
    </TTGlyph>
    <TTGlyph name="eight" xMin="27" yMin="-8" xMax="437" yMax="708">
      <contour>
        <pt x="130" y="-8" on="0"/>
        <pt x="27" y="109" on="0"/>
        <pt x="27" y="199" on="1"/>
        <pt x="27" y="264" on="0"/>
        <pt x="76" y="349" on="0"/>
        <pt x="115" y="372" on="1"/>
        <pt x="80" y="401" on="0"/>
        <pt x="40" y="471" on="0"/>
        <pt x="40" y="524" on="1"/>
        <pt x="40" y="606" on="0"/>
        <pt x="144" y="708" on="0"/>
        <pt x="237" y="708" on="1"/>
        <pt x="325" y="708" on="0"/>
        <pt x="425" y="610" on="0"/>
        <pt x="425" y="532" on="1"/>
        <pt x="425" y="472" on="0"/>
        <pt x="380" y="401" on="0"/>
        <pt x="343" y="379" on="1"/>
        <pt x="387" y="351" on="0"/>
        <pt x="437" y="264" on="0"/>
        <pt x="437" y="195" on="1"/>
        <pt x="437" y="142" on="0"/>
        <pt x="395" y="50" on="0"/>
        <pt x="304" y="-8" on="0"/>
        <pt x="234" y="-8" on="1"/>
      </contour>
      <contour>
        <pt x="292" y="473" on="0"/>
        <pt x="292" y="527" on="1"/>
        <pt x="292" y="557" on="0"/>
        <pt x="260" y="591" on="0"/>
        <pt x="236" y="591" on="1"/>
        <pt x="212" y="591" on="0"/>
        <pt x="177" y="559" on="0"/>
        <pt x="177" y="529" on="1"/>
        <pt x="177" y="499" on="0"/>
        <pt x="212" y="458" on="0"/>
        <pt x="244" y="440" on="1"/>
      </contour>
      <contour>
        <pt x="263" y="109" on="0"/>
        <pt x="297" y="156" on="0"/>
        <pt x="297" y="189" on="1"/>
        <pt x="297" y="231" on="0"/>
        <pt x="253" y="282" on="0"/>
        <pt x="212" y="305" on="1"/>
        <pt x="189" y="287" on="0"/>
        <pt x="166" y="239" on="0"/>
        <pt x="166" y="203" on="1"/>
        <pt x="166" y="155" on="0"/>
        <pt x="202" y="109" on="0"/>
        <pt x="233" y="109" on="1"/>
      </contour>
    </TTGlyph>
    <TTGlyph name="ellipsis" xMin="19" yMin="-2" xMax="532" yMax="154">
      <contour>
        <pt x="19" y="-2" on="0"/>
        <pt x="19" y="30" on="1"/>
        <pt x="19" y="122" on="1"/>
        <pt x="19" y="154" on="0"/>
        <pt x="77" y="154" on="1"/>
        <pt x="104" y="154" on="1"/>
        <pt x="162" y="154" on="0"/>
        <pt x="162" y="122" on="1"/>
        <pt x="162" y="30" on="1"/>
        <pt x="162" y="-2" on="0"/>
        <pt x="104" y="-2" on="1"/>
        <pt x="77" y="-2" on="1"/>
      </contour>
      <contour>
        <pt x="204" y="-2" on="0"/>
        <pt x="204" y="30" on="1"/>
        <pt x="204" y="122" on="1"/>
        <pt x="204" y="154" on="0"/>
        <pt x="262" y="154" on="1"/>
        <pt x="289" y="154" on="1"/>
        <pt x="347" y="154" on="0"/>
        <pt x="347" y="122" on="1"/>
        <pt x="347" y="30" on="1"/>
        <pt x="347" y="-2" on="0"/>
        <pt x="289" y="-2" on="1"/>
        <pt x="262" y="-2" on="1"/>
      </contour>
      <contour>
        <pt x="389" y="-2" on="0"/>
        <pt x="389" y="30" on="1"/>
        <pt x="389" y="122" on="1"/>
        <pt x="389" y="154" on="0"/>
        <pt x="447" y="154" on="1"/>
        <pt x="475" y="154" on="1"/>
        <pt x="532" y="154" on="0"/>
        <pt x="532" y="122" on="1"/>
        <pt x="532" y="30" on="1"/>
        <pt x="532" y="-2" on="0"/>
        <pt x="475" y="-2" on="1"/>
        <pt x="447" y="-2" on="1"/>
      </contour>
    </TTGlyph>
    <TTGlyph name="emacron" xMin="34" yMin="-8" xMax="428" yMax="692">
      <component glyphName="e" x="0" y="0" flags="0x0"/>
      <component glyphName="uni0304" x="229" y="0" flags="0x0"/>
    </TTGlyph>
    <TTGlyph name="emdash" xMin="0" yMin="212" xMax="886" yMax="319">
      <contour>
        <pt x="14" y="212" on="0"/>
        <pt x="0" y="236" on="0"/>
        <pt x="0" y="262" on="1"/>
        <pt x="0" y="269" on="1"/>
        <pt x="0" y="295" on="0"/>
        <pt x="14" y="319" on="0"/>
        <pt x="29" y="319" on="1"/>
        <pt x="857" y="319" on="1"/>
        <pt x="872" y="319" on="0"/>
        <pt x="886" y="295" on="0"/>
        <pt x="886" y="269" on="1"/>
        <pt x="886" y="262" on="1"/>
        <pt x="886" y="236" on="0"/>
        <pt x="872" y="212" on="0"/>
        <pt x="857" y="212" on="1"/>
        <pt x="29" y="212" on="1"/>
      </contour>
    </TTGlyph>
    <TTGlyph name="endash" xMin="0" yMin="212" xMax="443" yMax="319">
      <contour>
        <pt x="14" y="212" on="0"/>
        <pt x="0" y="236" on="0"/>
        <pt x="0" y="262" on="1"/>
        <pt x="0" y="269" on="1"/>
        <pt x="0" y="295" on="0"/>
        <pt x="14" y="319" on="0"/>
        <pt x="29" y="319" on="1"/>
        <pt x="414" y="319" on="1"/>
        <pt x="429" y="319" on="0"/>
        <pt x="443" y="295" on="0"/>
        <pt x="443" y="269" on="1"/>
        <pt x="443" y="262" on="1"/>
        <pt x="443" y="236" on="0"/>
        <pt x="429" y="212" on="0"/>
        <pt x="414" y="212" on="1"/>
        <pt x="29" y="212" on="1"/>
      </contour>
    </TTGlyph>
    <TTGlyph name="eng" xMin="40" yMin="-212" xMax="436" yMax="531">
      <contour>
        <pt x="249" y="-212" on="0"/>
        <pt x="201" y="-189" on="0"/>
        <pt x="201" y="-161" on="1"/>
        <pt x="201" y="-139" on="0"/>
        <pt x="218" y="-91" on="0"/>
        <pt x="231" y="-91" on="1"/>
        <pt x="236" y="-91" on="0"/>
        <pt x="255" y="-95" on="0"/>
        <pt x="261" y="-95" on="1"/>
        <pt x="274" y="-95" on="0"/>
        <pt x="286" y="-75" on="0"/>
        <pt x="286" y="-52" on="1"/>
        <pt x="286" y="358" on="1"/>
        <pt x="286" y="384" on="0"/>
        <pt x="270" y="409" on="0"/>
        <pt x="249" y="409" on="1"/>
        <pt x="222" y="409" on="0"/>
        <pt x="199" y="377" on="1"/>
        <pt x="199" y="30" on="1"/>
        <pt x="199" y="14" on="0"/>
        <pt x="171" y="-2" on="0"/>
        <pt x="142" y="-2" on="1"/>
        <pt x="107" y="-2" on="1"/>
        <pt x="50" y="-2" on="0"/>
        <pt x="50" y="30" on="1"/>
        <pt x="50" y="349" on="1"/>
        <pt x="50" y="420" on="0"/>
        <pt x="40" y="480" on="0"/>
        <pt x="40" y="487" on="1"/>
        <pt x="40" y="505" on="0"/>
        <pt x="124" y="522" on="0"/>
        <pt x="155" y="522" on="1"/>
        <pt x="174" y="522" on="0"/>
        <pt x="186" y="500" on="0"/>
        <pt x="191" y="465" on="0"/>
        <pt x="193" y="455" on="1"/>
        <pt x="215" y="488" on="0"/>
        <pt x="282" y="531" on="0"/>
        <pt x="324" y="531" on="1"/>
        <pt x="379" y="531" on="0"/>
        <pt x="436" y="460" on="0"/>
        <pt x="436" y="392" on="1"/>
        <pt x="436" y="-50" on="1"/>
        <pt x="436" y="-129" on="0"/>
        <pt x="360" y="-212" on="0"/>
        <pt x="299" y="-212" on="1"/>
      </contour>
    </TTGlyph>
    <TTGlyph name="eogonek" xMin="34" yMin="-173" xMax="454" yMax="531">
      <contour>
        <pt x="440" y="-100" on="0"/>
        <pt x="454" y="-113" on="0"/>
        <pt x="454" y="-130" on="1"/>
        <pt x="454" y="-151" on="0"/>
        <pt x="437" y="-161" on="1"/>
        <pt x="411" y="-173" on="0"/>
        <pt x="381" y="-173" on="1"/>
        <pt x="324" y="-173" on="0"/>
        <pt x="284" y="-113" on="0"/>
        <pt x="284" y="-79" on="1"/>
        <pt x="284" y="-44" on="0"/>
        <pt x="300" y="-5" on="1"/>
        <pt x="278" y="-8" on="0"/>
        <pt x="260" y="-8" on="1"/>
        <pt x="144" y="-8" on="0"/>
        <pt x="34" y="127" on="0"/>
        <pt x="34" y="258" on="1"/>
        <pt x="34" y="406" on="0"/>
        <pt x="143" y="531" on="0"/>
        <pt x="242" y="531" on="1"/>
        <pt x="340" y="531" on="0"/>
        <pt x="428" y="393" on="0"/>
        <pt x="428" y="262" on="1"/>
        <pt x="428" y="250" on="0"/>
        <pt x="387" y="203" on="0"/>
        <pt x="377" y="203" on="1"/>
        <pt x="187" y="203" on="1"/>
        <pt x="189" y="152" on="0"/>
        <pt x="231" y="109" on="0"/>
        <pt x="267" y="109" on="1"/>
        <pt x="289" y="109" on="0"/>
        <pt x="325" y="121" on="0"/>
        <pt x="359" y="138" on="0"/>
        <pt x="363" y="138" on="1"/>
        <pt x="373" y="138" on="0"/>
        <pt x="398" y="109" on="0"/>
        <pt x="415" y="72" on="0"/>
        <pt x="415" y="62" on="1"/>
        <pt x="415" y="34" on="0"/>
        <pt x="368" y="13" on="1"/>
        <pt x="351" y="-24" on="0"/>
        <pt x="351" y="-60" on="1"/>
        <pt x="351" y="-104" on="0"/>
        <pt x="400" y="-104" on="1"/>
        <pt x="408" y="-104" on="0"/>
        <pt x="420" y="-100" on="0"/>
        <pt x="424" y="-100" on="1"/>
      </contour>
      <contour>
        <pt x="214" y="424" on="0"/>
        <pt x="185" y="366" on="0"/>
        <pt x="181" y="292" on="1"/>
        <pt x="293" y="292" on="1"/>
        <pt x="293" y="363" on="0"/>
        <pt x="269" y="424" on="0"/>
        <pt x="241" y="424" on="1"/>
      </contour>
    </TTGlyph>
    <TTGlyph name="equal" xMin="30" yMin="86" xMax="419" yMax="374">
      <contour>
        <pt x="41" y="267" on="0"/>
        <pt x="30" y="290" on="0"/>
        <pt x="30" y="317" on="1"/>
        <pt x="30" y="324" on="1"/>
        <pt x="30" y="351" on="0"/>
        <pt x="41" y="374" on="0"/>
        <pt x="54" y="374" on="1"/>
        <pt x="396" y="374" on="1"/>
        <pt x="409" y="374" on="0"/>
        <pt x="419" y="351" on="0"/>
        <pt x="419" y="324" on="1"/>
        <pt x="419" y="317" on="1"/>
        <pt x="419" y="290" on="0"/>
        <pt x="409" y="267" on="0"/>
        <pt x="396" y="267" on="1"/>
        <pt x="54" y="267" on="1"/>
      </contour>
      <contour>
        <pt x="41" y="86" on="0"/>
        <pt x="30" y="109" on="0"/>
        <pt x="30" y="136" on="1"/>
        <pt x="30" y="143" on="1"/>
        <pt x="30" y="170" on="0"/>
        <pt x="41" y="193" on="0"/>
        <pt x="54" y="193" on="1"/>
        <pt x="396" y="193" on="1"/>
        <pt x="409" y="193" on="0"/>
        <pt x="419" y="170" on="0"/>
        <pt x="419" y="143" on="1"/>
        <pt x="419" y="136" on="1"/>
        <pt x="419" y="109" on="0"/>
        <pt x="409" y="86" on="0"/>
        <pt x="396" y="86" on="1"/>
        <pt x="54" y="86" on="1"/>
      </contour>
    </TTGlyph>
    <TTGlyph name="estimated" xMin="22" yMin="-7" xMax="593" yMax="707">
      <contour>
        <pt x="390" y="707" on="0"/>
        <pt x="518" y="624" on="0"/>
        <pt x="593" y="465" on="0"/>
        <pt x="593" y="355" on="1"/>
        <pt x="191" y="355" on="1"/>
        <pt x="191" y="85" on="1"/>
        <pt x="246" y="48" on="0"/>
        <pt x="320" y="48" on="1"/>
        <pt x="367" y="48" on="0"/>
        <pt x="465" y="93" on="0"/>
        <pt x="493" y="131" on="1"/>
        <pt x="498" y="137" on="0"/>
        <pt x="510" y="146" on="0"/>
        <pt x="515" y="146" on="1"/>
        <pt x="525" y="146" on="0"/>
        <pt x="543" y="128" on="0"/>
        <pt x="543" y="119" on="1"/>
        <pt x="543" y="110" on="0"/>
        <pt x="533" y="97" on="1"/>
        <pt x="491" y="48" on="0"/>
        <pt x="380" y="-7" on="0"/>
        <pt x="320" y="-7" on="1"/>
        <pt x="237" y="-7" on="0"/>
        <pt x="102" y="79" on="0"/>
        <pt x="22" y="243" on="0"/>
        <pt x="22" y="355" on="1"/>
        <pt x="22" y="465" on="0"/>
        <pt x="99" y="624" on="0"/>
        <pt x="231" y="707" on="0"/>
        <pt x="312" y="707" on="1"/>
      </contour>
      <contour>
        <pt x="191" y="405" on="1"/>
        <pt x="428" y="405" on="1"/>
        <pt x="428" y="621" on="1"/>
        <pt x="375" y="657" on="0"/>
        <pt x="312" y="657" on="1"/>
        <pt x="244" y="657" on="0"/>
        <pt x="191" y="622" on="1"/>
      </contour>
    </TTGlyph>
    <TTGlyph name="eth" xMin="34" yMin="-8" xMax="443" yMax="715">
      <contour>
        <pt x="386" y="542" on="0"/>
        <pt x="443" y="357" on="0"/>
        <pt x="443" y="262" on="1"/>
        <pt x="443" y="131" on="0"/>
        <pt x="339" y="-8" on="0"/>
        <pt x="238" y="-8" on="1"/>
        <pt x="138" y="-8" on="0"/>
        <pt x="34" y="131" on="0"/>
        <pt x="34" y="262" on="1"/>
        <pt x="34" y="391" on="0"/>
        <pt x="137" y="526" on="0"/>
        <pt x="238" y="526" on="1"/>
        <pt x="249" y="526" on="0"/>
        <pt x="255" y="525" on="1"/>
        <pt x="246" y="546" on="0"/>
        <pt x="223" y="589" on="1"/>
        <pt x="168" y="581" on="0"/>
        <pt x="162" y="581" on="1"/>
        <pt x="147" y="581" on="0"/>
        <pt x="123" y="607" on="0"/>
        <pt x="123" y="623" on="1"/>
        <pt x="123" y="636" on="0"/>
        <pt x="144" y="639" on="1"/>
        <pt x="187" y="645" on="1"/>
        <pt x="173" y="663" on="1"/>
        <pt x="149" y="689" on="0"/>
        <pt x="149" y="696" on="1"/>
        <pt x="149" y="705" on="0"/>
        <pt x="168" y="708" on="1"/>
        <pt x="230" y="715" on="1"/>
        <pt x="251" y="715" on="0"/>
        <pt x="268" y="704" on="1"/>
        <pt x="283" y="693" on="0"/>
        <pt x="308" y="661" on="1"/>
        <pt x="376" y="670" on="1"/>
        <pt x="389" y="670" on="0"/>
        <pt x="413" y="643" on="0"/>
        <pt x="413" y="628" on="1"/>
        <pt x="413" y="615" on="0"/>
        <pt x="392" y="612" on="1"/>
        <pt x="346" y="606" on="1"/>
      </contour>
      <contour>
        <pt x="268" y="109" on="0"/>
        <pt x="293" y="178" on="0"/>
        <pt x="293" y="262" on="1"/>
        <pt x="293" y="343" on="0"/>
        <pt x="268" y="409" on="0"/>
        <pt x="239" y="409" on="1"/>
        <pt x="209" y="409" on="0"/>
        <pt x="184" y="343" on="0"/>
        <pt x="184" y="262" on="1"/>
        <pt x="184" y="178" on="0"/>
        <pt x="209" y="109" on="0"/>
        <pt x="239" y="109" on="1"/>
      </contour>
    </TTGlyph>
    <TTGlyph name="exclam" xMin="47" yMin="-2" xMax="229" yMax="702">
      <contour>
        <pt x="88" y="222" on="0"/>
        <pt x="67" y="237" on="0"/>
        <pt x="67" y="254" on="1"/>
        <pt x="67" y="670" on="1"/>
        <pt x="67" y="702" on="0"/>
        <pt x="125" y="702" on="1"/>
        <pt x="171" y="702" on="1"/>
        <pt x="198" y="702" on="0"/>
        <pt x="229" y="687" on="0"/>
        <pt x="229" y="674" on="1"/>
        <pt x="178" y="254" on="1"/>
        <pt x="175" y="236" on="0"/>
        <pt x="157" y="222" on="0"/>
        <pt x="127" y="222" on="1"/>
        <pt x="119" y="222" on="1"/>
      </contour>
      <contour>
        <pt x="47" y="-2" on="0"/>
        <pt x="47" y="30" on="1"/>
        <pt x="47" y="122" on="1"/>
        <pt x="47" y="154" on="0"/>
        <pt x="105" y="154" on="1"/>
        <pt x="138" y="154" on="1"/>
        <pt x="196" y="154" on="0"/>
        <pt x="196" y="122" on="1"/>
        <pt x="196" y="30" on="1"/>
        <pt x="196" y="-2" on="0"/>
        <pt x="138" y="-2" on="1"/>
        <pt x="105" y="-2" on="1"/>
      </contour>
    </TTGlyph>
    <TTGlyph name="exclamdown" xMin="21" yMin="-180" xMax="204" yMax="525">
      <contour>
        <pt x="55" y="369" on="0"/>
        <pt x="55" y="401" on="1"/>
        <pt x="55" y="493" on="1"/>
        <pt x="55" y="525" on="0"/>
        <pt x="113" y="525" on="1"/>
        <pt x="146" y="525" on="1"/>
        <pt x="204" y="525" on="0"/>
        <pt x="204" y="493" on="1"/>
        <pt x="204" y="401" on="1"/>
        <pt x="204" y="369" on="0"/>
        <pt x="146" y="369" on="1"/>
        <pt x="113" y="369" on="1"/>
      </contour>
      <contour>
        <pt x="52" y="-180" on="0"/>
        <pt x="21" y="-165" on="0"/>
        <pt x="21" y="-152" on="1"/>
        <pt x="21" y="-138" on="0"/>
        <pt x="63" y="193" on="1"/>
        <pt x="73" y="268" on="1"/>
        <pt x="76" y="286" on="0"/>
        <pt x="93" y="300" on="0"/>
        <pt x="123" y="300" on="1"/>
        <pt x="132" y="300" on="1"/>
        <pt x="162" y="300" on="0"/>
        <pt x="183" y="285" on="0"/>
        <pt x="183" y="268" on="1"/>
        <pt x="183" y="-148" on="1"/>
        <pt x="183" y="-180" on="0"/>
        <pt x="125" y="-180" on="1"/>
        <pt x="79" y="-180" on="1"/>
      </contour>
    </TTGlyph>
    <TTGlyph name="f" xMin="23" yMin="-2" xMax="303" yMax="760">
      <contour>
        <pt x="65" y="-2" on="0"/>
        <pt x="65" y="30" on="1"/>
        <pt x="65" y="406" on="1"/>
        <pt x="53" y="406" on="1"/>
        <pt x="37" y="406" on="0"/>
        <pt x="23" y="430" on="0"/>
        <pt x="23" y="456" on="1"/>
        <pt x="23" y="473" on="1"/>
        <pt x="23" y="499" on="0"/>
        <pt x="37" y="523" on="0"/>
        <pt x="53" y="523" on="1"/>
        <pt x="65" y="523" on="1"/>
        <pt x="65" y="598" on="1"/>
        <pt x="65" y="760" on="0"/>
        <pt x="206" y="760" on="1"/>
        <pt x="238" y="760" on="0"/>
        <pt x="303" y="736" on="0"/>
        <pt x="303" y="710" on="1"/>
        <pt x="303" y="704" on="0"/>
        <pt x="295" y="668" on="0"/>
        <pt x="281" y="638" on="0"/>
        <pt x="272" y="638" on="1"/>
        <pt x="269" y="638" on="0"/>
        <pt x="248" y="643" on="0"/>
        <pt x="244" y="643" on="1"/>
        <pt x="228" y="643" on="0"/>
        <pt x="213" y="623" on="0"/>
        <pt x="213" y="600" on="1"/>
        <pt x="213" y="523" on="1"/>
        <pt x="246" y="523" on="1"/>
        <pt x="262" y="523" on="0"/>
        <pt x="276" y="499" on="0"/>
        <pt x="276" y="473" on="1"/>
        <pt x="276" y="456" on="1"/>
        <pt x="276" y="430" on="0"/>
        <pt x="262" y="406" on="0"/>
        <pt x="246" y="406" on="1"/>
        <pt x="213" y="406" on="1"/>
        <pt x="213" y="30" on="1"/>
        <pt x="213" y="-2" on="0"/>
        <pt x="153" y="-2" on="1"/>
        <pt x="125" y="-2" on="1"/>
      </contour>
    </TTGlyph>
    <TTGlyph name="f_f" xMin="23" yMin="-2" xMax="589" yMax="760">
      <contour>
        <pt x="514" y="643" on="0"/>
        <pt x="499" y="623" on="0"/>
        <pt x="499" y="600" on="1"/>
        <pt x="499" y="523" on="1"/>
        <pt x="532" y="523" on="1"/>
        <pt x="548" y="523" on="0"/>
        <pt x="562" y="499" on="0"/>
        <pt x="562" y="473" on="1"/>
        <pt x="562" y="456" on="1"/>
        <pt x="562" y="430" on="0"/>
        <pt x="548" y="406" on="0"/>
        <pt x="532" y="406" on="1"/>
        <pt x="499" y="406" on="1"/>
        <pt x="499" y="30" on="1"/>
        <pt x="499" y="-2" on="0"/>
        <pt x="439" y="-2" on="1"/>
        <pt x="411" y="-2" on="1"/>
        <pt x="351" y="-2" on="0"/>
        <pt x="351" y="30" on="1"/>
        <pt x="351" y="406" on="1"/>
        <pt x="213" y="406" on="1"/>
        <pt x="213" y="30" on="1"/>
        <pt x="213" y="-2" on="0"/>
        <pt x="153" y="-2" on="1"/>
        <pt x="125" y="-2" on="1"/>
        <pt x="65" y="-2" on="0"/>
        <pt x="65" y="30" on="1"/>
        <pt x="65" y="406" on="1"/>
        <pt x="53" y="406" on="1"/>
        <pt x="37" y="406" on="0"/>
        <pt x="23" y="430" on="0"/>
        <pt x="23" y="456" on="1"/>
        <pt x="23" y="473" on="1"/>
        <pt x="23" y="499" on="0"/>
        <pt x="37" y="523" on="0"/>
        <pt x="53" y="523" on="1"/>
        <pt x="65" y="523" on="1"/>
        <pt x="65" y="598" on="1"/>
        <pt x="65" y="760" on="0"/>
        <pt x="206" y="760" on="1"/>
        <pt x="238" y="760" on="0"/>
        <pt x="303" y="736" on="0"/>
        <pt x="303" y="710" on="1"/>
        <pt x="303" y="704" on="0"/>
        <pt x="295" y="668" on="0"/>
        <pt x="281" y="638" on="0"/>
        <pt x="272" y="638" on="1"/>
        <pt x="269" y="638" on="0"/>
        <pt x="248" y="643" on="0"/>
        <pt x="244" y="643" on="1"/>
        <pt x="228" y="643" on="0"/>
        <pt x="213" y="623" on="0"/>
        <pt x="213" y="600" on="1"/>
        <pt x="213" y="523" on="1"/>
        <pt x="351" y="523" on="1"/>
        <pt x="351" y="598" on="1"/>
        <pt x="351" y="760" on="0"/>
        <pt x="492" y="760" on="1"/>
        <pt x="524" y="760" on="0"/>
        <pt x="589" y="736" on="0"/>
        <pt x="589" y="710" on="1"/>
        <pt x="589" y="704" on="0"/>
        <pt x="581" y="668" on="0"/>
        <pt x="567" y="638" on="0"/>
        <pt x="558" y="638" on="1"/>
        <pt x="555" y="638" on="0"/>
        <pt x="534" y="643" on="0"/>
        <pt x="530" y="643" on="1"/>
      </contour>
    </TTGlyph>
    <TTGlyph name="f_t" xMin="23" yMin="-8" xMax="573" yMax="760">
      <contour>
        <pt x="555" y="113" on="0"/>
        <pt x="573" y="56" on="0"/>
        <pt x="573" y="42" on="1"/>
        <pt x="573" y="17" on="0"/>
        <pt x="505" y="-8" on="0"/>
        <pt x="469" y="-8" on="1"/>
        <pt x="409" y="-8" on="0"/>
        <pt x="344" y="69" on="0"/>
        <pt x="344" y="148" on="1"/>
        <pt x="344" y="406" on="1"/>
        <pt x="213" y="406" on="1"/>
        <pt x="213" y="30" on="1"/>
        <pt x="213" y="-2" on="0"/>
        <pt x="153" y="-2" on="1"/>
        <pt x="125" y="-2" on="1"/>
        <pt x="65" y="-2" on="0"/>
        <pt x="65" y="30" on="1"/>
        <pt x="65" y="406" on="1"/>
        <pt x="53" y="406" on="1"/>
        <pt x="37" y="406" on="0"/>
        <pt x="23" y="430" on="0"/>
        <pt x="23" y="456" on="1"/>
        <pt x="23" y="473" on="1"/>
        <pt x="23" y="499" on="0"/>
        <pt x="37" y="523" on="0"/>
        <pt x="53" y="523" on="1"/>
        <pt x="65" y="523" on="1"/>
        <pt x="65" y="598" on="1"/>
        <pt x="65" y="760" on="0"/>
        <pt x="206" y="760" on="1"/>
        <pt x="238" y="760" on="0"/>
        <pt x="303" y="736" on="0"/>
        <pt x="303" y="710" on="1"/>
        <pt x="303" y="704" on="0"/>
        <pt x="295" y="668" on="0"/>
        <pt x="281" y="638" on="0"/>
        <pt x="272" y="638" on="1"/>
        <pt x="269" y="638" on="0"/>
        <pt x="248" y="643" on="0"/>
        <pt x="244" y="643" on="1"/>
        <pt x="228" y="643" on="0"/>
        <pt x="213" y="623" on="0"/>
        <pt x="213" y="600" on="1"/>
        <pt x="213" y="523" on="1"/>
        <pt x="344" y="523" on="1"/>
        <pt x="357" y="618" on="1"/>
        <pt x="362" y="650" on="0"/>
        <pt x="411" y="650" on="1"/>
        <pt x="442" y="650" on="1"/>
        <pt x="492" y="650" on="0"/>
        <pt x="492" y="618" on="1"/>
        <pt x="492" y="523" on="1"/>
        <pt x="529" y="523" on="1"/>
        <pt x="545" y="523" on="0"/>
        <pt x="559" y="499" on="0"/>
        <pt x="559" y="473" on="1"/>
        <pt x="559" y="456" on="1"/>
        <pt x="559" y="430" on="0"/>
        <pt x="545" y="406" on="0"/>
        <pt x="529" y="406" on="1"/>
        <pt x="492" y="406" on="1"/>
        <pt x="492" y="144" on="1"/>
        <pt x="492" y="126" on="0"/>
        <pt x="503" y="109" on="0"/>
        <pt x="516" y="109" on="1"/>
        <pt x="521" y="109" on="0"/>
        <pt x="538" y="113" on="0"/>
        <pt x="543" y="113" on="1"/>
      </contour>
    </TTGlyph>
</ttFont>
